{"glyphs":{"0":{"ha":556,"x_min":0,"x_max":0,"o":"m 278 528 b 181 625 224 528 181 571 b 278 722 181 679 224 722 b 375 625 332 722 375 679 b 278 528 375 571 332 528 m 236 208 b 139 111 236 154 193 111 b 42 208 85 111 42 154 b 71 278 42 236 53 260 b 42 347 53 296 42 319 b 71 417 42 375 53 399 b 42 486 53 435 42 458 b 139 583 42 540 85 583 b 236 486 193 583 236 540 b 207 417 236 458 225 435 b 236 347 225 399 236 375 b 207 278 236 319 225 296 b 236 208 225 260 236 236 m 514 347 b 485 278 514 319 503 296 b 514 208 503 260 514 236 b 417 111 514 154 471 111 b 319 208 363 111 319 154 b 349 278 319 236 331 260 b 319 347 331 296 319 319 b 349 417 319 375 331 399 b 319 486 331 435 319 458 b 417 583 319 540 363 583 b 514 486 471 583 514 540 b 485 417 514 458 503 435 b 514 347 503 399 514 375 m 278 167 b 375 69 332 167 375 124 b 278 -28 375 15 332 -28 b 181 69 224 -28 181 15 b 278 167 181 124 224 167 "},"1":{"ha":417,"x_min":0,"x_max":0,"o":"m 375 486 b 346 417 375 458 364 435 b 375 347 364 399 375 375 b 346 278 375 319 364 296 b 375 208 364 260 375 236 b 346 139 375 181 364 157 b 375 69 364 121 375 97 b 278 -28 375 15 332 -28 b 181 69 224 -28 181 15 b 210 139 181 97 192 121 b 181 208 192 157 181 181 b 210 278 181 236 192 260 b 181 347 192 296 181 319 b 210 417 181 375 192 399 l 208 418 b 139 389 190 400 167 389 b 42 486 85 389 42 432 b 139 583 42 540 85 583 b 208 554 167 583 190 572 l 210 556 b 181 625 192 574 181 597 b 278 722 181 679 224 722 b 375 625 332 722 375 679 b 346 556 375 597 364 574 b 375 486 364 538 375 514 "},"2":{"ha":556,"x_min":0,"x_max":0,"o":"m 139 528 b 42 625 85 528 42 571 b 139 722 42 679 85 722 b 208 693 167 722 190 711 b 278 722 226 711 250 722 b 375 625 332 722 375 679 b 278 528 375 571 332 528 b 208 557 250 528 226 539 b 139 528 190 539 167 528 m 319 486 b 417 583 319 540 363 583 b 514 486 471 583 514 540 b 417 389 514 432 471 389 b 319 486 363 389 319 432 m 278 444 b 375 347 332 444 375 401 b 278 250 375 293 332 250 b 181 347 224 250 181 293 b 278 444 181 401 224 444 m 417 167 b 514 69 471 167 514 124 b 417 -28 514 15 471 -28 b 347 1 389 -28 365 -17 b 278 -28 329 -17 306 -28 b 208 1 250 -28 226 -17 b 139 -28 190 -17 167 -28 b 42 69 85 -28 42 15 b 71 139 42 97 53 121 b 42 208 53 157 42 181 b 139 306 42 263 85 306 b 236 208 193 306 236 263 b 207 139 236 181 225 157 l 208 138 b 278 167 226 156 250 167 b 347 138 306 167 329 156 b 417 167 365 156 389 167 "},"3":{"ha":556,"x_min":0,"x_max":0,"o":"m 139 528 b 42 625 85 528 42 571 b 139 722 42 679 85 722 b 208 693 167 722 190 711 b 278 722 226 711 250 722 b 375 625 332 722 375 679 b 278 528 375 571 332 528 b 208 557 250 528 226 539 b 139 528 190 539 167 528 m 319 486 b 417 583 319 540 363 583 b 514 486 471 583 514 540 b 417 389 514 432 471 389 b 319 486 363 389 319 432 m 278 444 b 375 347 332 444 375 401 b 278 250 375 293 332 250 b 181 347 224 250 181 293 b 278 444 181 401 224 444 m 417 306 b 514 208 471 306 514 263 b 417 111 514 154 471 111 b 319 208 363 111 319 154 b 417 306 319 263 363 306 m 278 167 b 375 69 332 167 375 124 b 278 -28 375 15 332 -28 b 208 1 250 -28 226 -17 b 139 -28 190 -17 167 -28 b 42 69 85 -28 42 15 b 139 167 42 124 85 167 b 208 138 167 167 190 156 b 278 167 226 156 250 167 "},"4":{"ha":556,"x_min":0,"x_max":0,"o":"m 514 486 b 485 417 514 458 503 435 b 514 347 503 399 514 375 b 485 278 514 319 503 296 b 514 208 503 260 514 236 b 485 139 514 181 503 157 b 514 69 503 121 514 97 b 417 -28 514 15 471 -28 b 319 69 363 -28 319 15 b 349 139 319 97 331 121 l 347 140 b 278 111 329 122 306 111 b 208 140 250 111 226 122 b 139 111 190 122 167 111 b 42 208 85 111 42 154 b 71 278 42 236 53 260 b 42 347 53 296 42 319 b 139 444 42 401 85 444 b 236 347 193 444 236 401 b 207 278 236 319 225 296 l 208 276 b 278 306 226 294 250 306 b 347 276 306 306 329 294 l 349 278 b 319 347 331 296 319 319 b 349 417 319 375 331 399 l 347 418 b 278 389 329 400 306 389 b 181 486 224 389 181 432 b 278 583 181 540 224 583 b 347 554 306 583 329 572 l 349 556 b 319 625 331 574 319 597 b 417 722 319 679 363 722 b 514 625 471 722 514 679 b 485 556 514 597 503 574 b 514 486 503 538 514 514 "},"5":{"ha":556,"x_min":0,"x_max":0,"o":"m 42 347 b 71 417 42 375 53 399 b 42 486 53 435 42 458 b 71 556 42 514 53 538 b 42 625 53 574 42 597 b 139 722 42 679 85 722 b 208 693 167 722 190 711 b 278 722 226 711 250 722 b 347 693 306 722 329 711 b 417 722 365 711 389 722 b 514 625 471 722 514 679 b 417 528 514 571 471 528 b 347 557 389 528 365 539 b 278 528 329 539 306 528 b 208 557 250 528 226 539 l 207 556 b 236 486 225 538 236 514 b 207 417 236 458 225 435 l 208 415 b 278 444 226 433 250 444 b 375 347 332 444 375 401 b 278 250 375 293 332 250 b 208 279 250 250 226 261 b 139 250 190 261 167 250 b 42 347 85 250 42 293 m 417 306 b 514 208 471 306 514 263 b 417 111 514 154 471 111 b 319 208 363 111 319 154 b 417 306 319 263 363 306 m 278 167 b 375 69 332 167 375 124 b 278 -28 375 15 332 -28 b 208 1 250 -28 226 -17 b 139 -28 190 -17 167 -28 b 42 69 85 -28 42 15 b 139 167 42 124 85 167 b 208 138 167 167 190 156 b 278 167 226 156 250 167 "},"6":{"ha":556,"x_min":0,"x_max":0,"o":"m 278 528 b 181 625 224 528 181 571 b 278 722 181 679 224 722 b 347 693 306 722 329 711 b 417 722 365 711 389 722 b 514 625 471 722 514 679 b 417 528 514 571 471 528 b 347 557 389 528 365 539 b 278 528 329 539 306 528 m 236 208 b 139 111 236 154 193 111 b 42 208 85 111 42 154 b 71 278 42 236 53 260 b 42 347 53 296 42 319 b 71 417 42 375 53 399 b 42 486 53 435 42 458 b 139 583 42 540 85 583 b 236 486 193 583 236 540 b 207 417 236 458 225 435 l 208 415 b 278 444 226 433 250 444 b 375 347 332 444 375 401 b 278 250 375 293 332 250 b 208 279 250 250 226 261 l 207 278 b 236 208 225 260 236 236 m 417 306 b 514 208 471 306 514 263 b 417 111 514 154 471 111 b 319 208 363 111 319 154 b 417 306 319 263 363 306 m 278 167 b 375 69 332 167 375 124 b 278 -28 375 15 332 -28 b 181 69 224 -28 181 15 b 278 167 181 124 224 167 "},"7":{"ha":556,"x_min":0,"x_max":0,"o":"m 485 556 b 514 486 503 538 514 514 b 417 389 514 432 471 389 b 319 486 363 389 319 432 b 349 556 319 514 331 538 l 347 557 b 278 528 329 539 306 528 b 208 557 250 528 226 539 b 139 528 190 539 167 528 b 42 625 85 528 42 571 b 139 722 42 679 85 722 b 208 693 167 722 190 711 b 278 722 226 711 250 722 b 347 693 306 722 329 711 b 417 722 365 711 389 722 b 514 625 471 722 514 679 b 485 556 514 597 503 574 m 375 347 b 346 278 375 319 364 296 b 375 208 364 260 375 236 b 278 111 375 154 332 111 b 181 208 224 111 181 154 b 210 278 181 236 192 260 b 181 347 192 296 181 319 b 278 444 181 401 224 444 b 375 347 332 444 375 401 m 139 167 b 236 69 193 167 236 124 b 139 -28 236 15 193 -28 b 42 69 85 -28 42 15 b 139 167 42 124 85 167 "},"8":{"ha":556,"x_min":0,"x_max":0,"o":"m 278 528 b 181 625 224 528 181 571 b 278 722 181 679 224 722 b 375 625 332 722 375 679 b 278 528 375 571 332 528 m 139 389 b 42 486 85 389 42 432 b 139 583 42 540 85 583 b 236 486 193 583 236 540 b 139 389 236 432 193 389 m 417 389 b 319 486 363 389 319 432 b 417 583 319 540 363 583 b 514 486 471 583 514 540 b 417 389 514 432 471 389 m 278 250 b 181 347 224 250 181 293 b 278 444 181 401 224 444 b 375 347 332 444 375 401 b 278 250 375 293 332 250 m 139 111 b 42 208 85 111 42 154 b 139 306 42 263 85 306 b 236 208 193 306 236 263 b 139 111 236 154 193 111 m 417 111 b 319 208 363 111 319 154 b 417 306 319 263 363 306 b 514 208 471 306 514 263 b 417 111 514 154 471 111 m 278 -28 b 181 69 224 -28 181 15 b 278 167 181 124 224 167 b 375 69 332 167 375 124 b 278 -28 375 15 332 -28 "},"9":{"ha":556,"x_min":0,"x_max":0,"o":"m 278 528 b 181 625 224 528 181 571 b 278 722 181 679 224 722 b 375 625 332 722 375 679 b 278 528 375 571 332 528 m 139 389 b 42 486 85 389 42 432 b 139 583 42 540 85 583 b 236 486 193 583 236 540 b 139 389 236 432 193 389 m 514 347 b 485 278 514 319 503 296 b 514 208 503 260 514 236 b 417 111 514 154 471 111 b 319 208 363 111 319 154 b 349 278 319 236 331 260 l 347 279 b 278 250 329 261 306 250 b 181 347 224 250 181 293 b 278 444 181 401 224 444 b 347 415 306 444 329 433 l 349 417 b 319 486 331 435 319 458 b 417 583 319 540 363 583 b 514 486 471 583 514 540 b 485 417 514 458 503 435 b 514 347 503 399 514 375 m 278 167 b 375 69 332 167 375 124 b 278 -28 375 15 332 -28 b 208 1 250 -28 226 -17 b 139 -28 190 -17 167 -28 b 42 69 85 -28 42 15 b 139 167 42 124 85 167 b 208 138 167 167 190 156 b 278 167 226 156 250 167 "}," ":{"ha":278,"x_min":0,"x_max":0,"o":""},"A":{"ha":556,"x_min":0,"x_max":0,"o":"m 278 528 b 181 625 224 528 181 571 b 278 722 181 679 224 722 b 375 625 332 722 375 679 b 278 528 375 571 332 528 m 514 347 b 485 278 514 319 503 296 b 514 208 503 260 514 236 b 485 139 514 181 503 157 b 514 69 503 121 514 97 b 417 -28 514 15 471 -28 b 319 69 363 -28 319 15 b 349 139 319 97 331 121 b 319 208 331 157 319 181 b 349 278 319 236 331 260 l 347 279 b 278 250 329 261 306 250 b 208 279 250 250 226 261 l 207 278 b 236 208 225 260 236 236 b 207 139 236 181 225 157 b 236 69 225 121 236 97 b 139 -28 236 15 193 -28 b 42 69 85 -28 42 15 b 71 139 42 97 53 121 b 42 208 53 157 42 181 b 71 278 42 236 53 260 b 42 347 53 296 42 319 b 71 417 42 375 53 399 b 42 486 53 435 42 458 b 139 583 42 540 85 583 b 236 486 193 583 236 540 b 207 417 236 458 225 435 l 208 415 b 278 444 226 433 250 444 b 347 415 306 444 329 433 l 349 417 b 319 486 331 435 319 458 b 417 583 319 540 363 583 b 514 486 471 583 514 540 b 485 417 514 458 503 435 b 514 347 503 399 514 375 "},"Á":{"ha":556,"x_min":0,"x_max":0,"o":"m 417 944 b 319 1042 363 944 319 988 b 417 1139 319 1096 363 1139 b 514 1042 471 1139 514 1096 b 417 944 514 988 471 944 m 278 806 b 181 903 224 806 181 849 b 278 1000 181 957 224 1000 b 375 903 332 1000 375 957 b 278 806 375 849 332 806 m 278 528 b 181 625 224 528 181 571 b 278 722 181 679 224 722 b 375 625 332 722 375 679 b 278 528 375 571 332 528 m 514 486 b 485 417 514 458 503 435 b 514 347 503 399 514 375 b 485 278 514 319 503 296 b 514 208 503 260 514 236 b 485 139 514 181 503 157 b 514 69 503 121 514 97 b 417 -28 514 15 471 -28 b 319 69 363 -28 319 15 b 349 139 319 97 331 121 b 319 208 331 157 319 181 b 349 278 319 236 331 260 l 347 279 b 278 250 329 261 306 250 b 208 279 250 250 226 261 l 207 278 b 236 208 225 260 236 236 b 207 139 236 181 225 157 b 236 69 225 121 236 97 b 139 -28 236 15 193 -28 b 42 69 85 -28 42 15 b 71 139 42 97 53 121 b 42 208 53 157 42 181 b 71 278 42 236 53 260 b 42 347 53 296 42 319 b 71 417 42 375 53 399 b 42 486 53 435 42 458 b 139 583 42 540 85 583 b 236 486 193 583 236 540 b 207 417 236 458 225 435 l 208 415 b 278 444 226 433 250 444 b 347 415 306 444 329 433 l 349 417 b 319 486 331 435 319 458 b 417 583 319 540 363 583 b 514 486 471 583 514 540 "},"Ă":{"ha":556,"x_min":0,"x_max":0,"o":"m 485 972 b 514 903 503 954 514 931 b 417 806 514 849 471 806 b 347 835 389 806 365 817 b 278 806 329 817 306 806 b 208 835 250 806 226 817 b 139 806 190 817 167 806 b 42 903 85 806 42 849 b 71 972 42 931 53 954 b 42 1042 53 990 42 1014 b 139 1139 42 1096 85 1139 b 236 1042 193 1139 236 1096 b 207 972 236 1014 225 990 l 208 971 b 278 1000 226 989 250 1000 b 347 971 306 1000 329 989 l 349 972 b 319 1042 331 990 319 1014 b 417 1139 319 1096 363 1139 b 514 1042 471 1139 514 1096 b 485 972 514 1014 503 990 m 278 528 b 181 625 224 528 181 571 b 278 722 181 679 224 722 b 375 625 332 722 375 679 b 278 528 375 571 332 528 m 514 486 b 485 417 514 458 503 435 b 514 347 503 399 514 375 b 485 278 514 319 503 296 b 514 208 503 260 514 236 b 485 139 514 181 503 157 b 514 69 503 121 514 97 b 417 -28 514 15 471 -28 b 319 69 363 -28 319 15 b 349 139 319 97 331 121 b 319 208 331 157 319 181 b 349 278 319 236 331 260 l 347 279 b 278 250 329 261 306 250 b 208 279 250 250 226 261 l 207 278 b 236 208 225 260 236 236 b 207 139 236 181 225 157 b 236 69 225 121 236 97 b 139 -28 236 15 193 -28 b 42 69 85 -28 42 15 b 71 139 42 97 53 121 b 42 208 53 157 42 181 b 71 278 42 236 53 260 b 42 347 53 296 42 319 b 71 417 42 375 53 399 b 42 486 53 435 42 458 b 139 583 42 540 85 583 b 236 486 193 583 236 540 b 207 417 236 458 225 435 l 208 415 b 278 444 226 433 250 444 b 347 415 306 444 329 433 l 349 417 b 319 486 331 435 319 458 b 417 583 319 540 363 583 b 514 486 471 583 514 540 "},"Â":{"ha":556,"x_min":0,"x_max":0,"o":"m 278 944 b 181 1042 224 944 181 988 b 278 1139 181 1096 224 1139 b 375 1042 332 1139 375 1096 b 278 944 375 988 332 944 m 139 806 b 42 903 85 806 42 849 b 139 1000 42 957 85 1000 b 236 903 193 1000 236 957 b 139 806 236 849 193 806 m 319 903 b 417 1000 319 957 363 1000 b 514 903 471 1000 514 957 b 417 806 514 849 471 806 b 319 903 363 806 319 849 m 278 722 b 375 625 332 722 375 679 b 278 528 375 571 332 528 b 181 625 224 528 181 571 b 278 722 181 679 224 722 m 514 486 b 485 417 514 458 503 435 b 514 347 503 399 514 375 b 485 278 514 319 503 296 b 514 208 503 260 514 236 b 485 139 514 181 503 157 b 514 69 503 121 514 97 b 417 -28 514 15 471 -28 b 319 69 363 -28 319 15 b 349 139 319 97 331 121 b 319 208 331 157 319 181 b 349 278 319 236 331 260 l 347 279 b 278 250 329 261 306 250 b 208 279 250 250 226 261 l 207 278 b 236 208 225 260 236 236 b 207 139 236 181 225 157 b 236 69 225 121 236 97 b 139 -28 236 15 193 -28 b 42 69 85 -28 42 15 b 71 139 42 97 53 121 b 42 208 53 157 42 181 b 71 278 42 236 53 260 b 42 347 53 296 42 319 b 71 417 42 375 53 399 b 42 486 53 435 42 458 b 139 583 42 540 85 583 b 236 486 193 583 236 540 b 207 417 236 458 225 435 l 208 415 b 278 444 226 433 250 444 b 347 415 306 444 329 433 l 349 417 b 319 486 331 435 319 458 b 417 583 319 540 363 583 b 514 486 471 583 514 540 "},"Ä":{"ha":556,"x_min":0,"x_max":0,"o":"m 139 806 b 42 903 85 806 42 849 b 139 1000 42 957 85 1000 b 236 903 193 1000 236 957 b 139 806 236 849 193 806 m 417 806 b 319 903 363 806 319 849 b 417 1000 319 957 363 1000 b 514 903 471 1000 514 957 b 417 806 514 849 471 806 m 181 625 b 278 722 181 679 224 722 b 375 625 332 722 375 679 b 278 528 375 571 332 528 b 181 625 224 528 181 571 m 514 486 b 485 417 514 458 503 435 b 514 347 503 399 514 375 b 485 278 514 319 503 296 b 514 208 503 260 514 236 b 485 139 514 181 503 157 b 514 69 503 121 514 97 b 417 -28 514 15 471 -28 b 319 69 363 -28 319 15 b 349 139 319 97 331 121 b 319 208 331 157 319 181 b 349 278 319 236 331 260 l 347 279 b 278 250 329 261 306 250 b 208 279 250 250 226 261 l 207 278 b 236 208 225 260 236 236 b 207 139 236 181 225 157 b 236 69 225 121 236 97 b 139 -28 236 15 193 -28 b 42 69 85 -28 42 15 b 71 139 42 97 53 121 b 42 208 53 157 42 181 b 71 278 42 236 53 260 b 42 347 53 296 42 319 b 71 417 42 375 53 399 b 42 486 53 435 42 458 b 139 583 42 540 85 583 b 236 486 193 583 236 540 b 207 417 236 458 225 435 l 208 415 b 278 444 226 433 250 444 b 347 415 306 444 329 433 l 349 417 b 319 486 331 435 319 458 b 417 583 319 540 363 583 b 514 486 471 583 514 540 "},"À":{"ha":556,"x_min":0,"x_max":0,"o":"m 139 944 b 42 1042 85 944 42 988 b 139 1139 42 1096 85 1139 b 236 1042 193 1139 236 1096 b 139 944 236 988 193 944 m 181 903 b 278 1000 181 957 224 1000 b 375 903 332 1000 375 957 b 278 806 375 849 332 806 b 181 903 224 806 181 849 m 278 722 b 375 625 332 722 375 679 b 278 528 375 571 332 528 b 181 625 224 528 181 571 b 278 722 181 679 224 722 m 514 347 b 485 278 514 319 503 296 b 514 208 503 260 514 236 b 485 139 514 181 503 157 b 514 69 503 121 514 97 b 417 -28 514 15 471 -28 b 319 69 363 -28 319 15 b 349 139 319 97 331 121 b 319 208 331 157 319 181 b 349 278 319 236 331 260 l 347 279 b 278 250 329 261 306 250 b 208 279 250 250 226 261 l 207 278 b 236 208 225 260 236 236 b 207 139 236 181 225 157 b 236 69 225 121 236 97 b 139 -28 236 15 193 -28 b 42 69 85 -28 42 15 b 71 139 42 97 53 121 b 42 208 53 157 42 181 b 71 278 42 236 53 260 b 42 347 53 296 42 319 b 71 417 42 375 53 399 b 42 486 53 435 42 458 b 139 583 42 540 85 583 b 236 486 193 583 236 540 b 207 417 236 458 225 435 l 208 415 b 278 444 226 433 250 444 b 347 415 306 444 329 433 l 349 417 b 319 486 331 435 319 458 b 417 583 319 540 363 583 b 514 486 471 583 514 540 b 485 417 514 458 503 435 b 514 347 503 399 514 375 "},"Ā":{"ha":556,"x_min":0,"x_max":0,"o":"m 139 806 b 42 903 85 806 42 849 b 139 1000 42 957 85 1000 b 208 971 167 1000 190 989 b 278 1000 226 989 250 1000 b 347 971 306 1000 329 989 b 417 1000 365 989 389 1000 b 514 903 471 1000 514 957 b 417 806 514 849 471 806 b 347 835 389 806 365 817 b 278 806 329 817 306 806 b 208 835 250 806 226 817 b 139 806 190 817 167 806 m 278 722 b 375 625 332 722 375 679 b 278 528 375 571 332 528 b 181 625 224 528 181 571 b 278 722 181 679 224 722 m 514 486 b 485 417 514 458 503 435 b 514 347 503 399 514 375 b 485 278 514 319 503 296 b 514 208 503 260 514 236 b 485 139 514 181 503 157 b 514 69 503 121 514 97 b 417 -28 514 15 471 -28 b 319 69 363 -28 319 15 b 349 139 319 97 331 121 b 319 208 331 157 319 181 b 349 278 319 236 331 260 l 347 279 b 278 250 329 261 306 250 b 208 279 250 250 226 261 l 207 278 b 236 208 225 260 236 236 b 207 139 236 181 225 157 b 236 69 225 121 236 97 b 139 -28 236 15 193 -28 b 42 69 85 -28 42 15 b 71 139 42 97 53 121 b 42 208 53 157 42 181 b 71 278 42 236 53 260 b 42 347 53 296 42 319 b 71 417 42 375 53 399 b 42 486 53 435 42 458 b 139 583 42 540 85 583 b 236 486 193 583 236 540 b 207 417 236 458 225 435 l 208 415 b 278 444 226 433 250 444 b 347 415 306 444 329 433 l 349 417 b 319 486 331 435 319 458 b 417 583 319 540 363 583 b 514 486 471 583 514 540 "},"Ą":{"ha":556,"x_min":0,"x_max":0,"o":"m 278 528 b 181 625 224 528 181 571 b 278 722 181 679 224 722 b 375 625 332 722 375 679 b 278 528 375 571 332 528 m 514 347 b 485 278 514 319 503 296 b 514 208 503 260 514 236 b 485 139 514 181 503 157 b 514 69 503 121 514 97 b 417 -28 514 15 471 -28 b 319 69 363 -28 319 15 b 349 139 319 97 331 121 b 319 208 331 157 319 181 b 349 278 319 236 331 260 l 347 279 b 278 250 329 261 306 250 b 208 279 250 250 226 261 l 207 278 b 236 208 225 260 236 236 b 207 139 236 181 225 157 b 236 69 225 121 236 97 b 139 -28 236 15 193 -28 b 42 69 85 -28 42 15 b 71 139 42 97 53 121 b 42 208 53 157 42 181 b 71 278 42 236 53 260 b 42 347 53 296 42 319 b 71 417 42 375 53 399 b 42 486 53 435 42 458 b 139 583 42 540 85 583 b 236 486 193 583 236 540 b 207 417 236 458 225 435 l 208 415 b 278 444 226 433 250 444 b 347 415 306 444 329 433 l 349 417 b 319 486 331 435 319 458 b 417 583 319 540 363 583 b 514 486 471 583 514 540 b 485 417 514 458 503 435 b 514 347 503 399 514 375 m 417 -111 b 514 -208 471 -111 514 -154 b 417 -306 514 -262 471 -306 b 347 -276 389 -306 365 -294 b 278 -306 329 -294 306 -306 b 181 -208 224 -306 181 -262 b 210 -139 181 -181 192 -157 b 181 -69 192 -121 181 -97 b 278 28 181 -15 224 28 b 375 -69 332 28 375 -15 b 346 -139 375 -97 364 -121 l 347 -140 b 417 -111 365 -122 389 -111 "},"Å":{"ha":556,"x_min":0,"x_max":0,"o":"m 278 806 b 181 903 224 806 181 849 b 278 1000 181 957 224 1000 b 375 903 332 1000 375 957 b 278 806 375 849 332 806 m 139 667 b 42 764 85 667 42 710 b 139 861 42 818 85 861 b 236 764 193 861 236 818 b 139 667 236 710 193 667 m 319 764 b 417 861 319 818 363 861 b 514 764 471 861 514 818 b 417 667 514 710 471 667 b 319 764 363 667 319 710 m 278 722 b 375 625 332 722 375 679 b 278 528 375 571 332 528 b 181 625 224 528 181 571 b 278 722 181 679 224 722 m 514 486 b 485 417 514 458 503 435 b 514 347 503 399 514 375 b 485 278 514 319 503 296 b 514 208 503 260 514 236 b 485 139 514 181 503 157 b 514 69 503 121 514 97 b 417 -28 514 15 471 -28 b 319 69 363 -28 319 15 b 349 139 319 97 331 121 b 319 208 331 157 319 181 b 349 278 319 236 331 260 l 347 279 b 278 250 329 261 306 250 b 208 279 250 250 226 261 l 207 278 b 236 208 225 260 236 236 b 207 139 236 181 225 157 b 236 69 225 121 236 97 b 139 -28 236 15 193 -28 b 42 69 85 -28 42 15 b 71 139 42 97 53 121 b 42 208 53 157 42 181 b 71 278 42 236 53 260 b 42 347 53 296 42 319 b 71 417 42 375 53 399 b 42 486 53 435 42 458 b 139 583 42 540 85 583 b 236 486 193 583 236 540 b 207 417 236 458 225 435 l 208 415 b 278 444 226 433 250 444 b 347 415 306 444 329 433 l 349 417 b 319 486 331 435 319 458 b 417 583 319 540 363 583 b 514 486 471 583 514 540 "},"Ã":{"ha":556,"x_min":0,"x_max":0,"o":"m 278 944 b 181 1042 224 944 181 988 b 278 1139 181 1096 224 1139 b 375 1042 332 1139 375 1096 b 278 944 375 988 332 944 m 556 1139 b 653 1042 610 1139 653 1096 b 556 944 653 988 610 944 b 458 1042 501 944 458 988 b 556 1139 458 1096 501 1139 m 139 806 b 42 903 85 806 42 849 b 139 1000 42 957 85 1000 b 236 903 193 1000 236 957 b 139 806 236 849 193 806 m 417 1000 b 514 903 471 1000 514 957 b 417 806 514 849 471 806 b 319 903 363 806 319 849 b 417 1000 319 957 363 1000 m 181 625 b 278 722 181 679 224 722 b 375 625 332 722 375 679 b 278 528 375 571 332 528 b 181 625 224 528 181 571 m 514 486 b 485 417 514 458 503 435 b 514 347 503 399 514 375 b 485 278 514 319 503 296 b 514 208 503 260 514 236 b 485 139 514 181 503 157 b 514 69 503 121 514 97 b 417 -28 514 15 471 -28 b 319 69 363 -28 319 15 b 349 139 319 97 331 121 b 319 208 331 157 319 181 b 349 278 319 236 331 260 l 347 279 b 278 250 329 261 306 250 b 208 279 250 250 226 261 l 207 278 b 236 208 225 260 236 236 b 207 139 236 181 225 157 b 236 69 225 121 236 97 b 139 -28 236 15 193 -28 b 42 69 85 -28 42 15 b 71 139 42 97 53 121 b 42 208 53 157 42 181 b 71 278 42 236 53 260 b 42 347 53 296 42 319 b 71 417 42 375 53 399 b 42 486 53 435 42 458 b 139 583 42 540 85 583 b 236 486 193 583 236 540 b 207 417 236 458 225 435 l 208 415 b 278 444 226 433 250 444 b 347 415 306 444 329 433 l 349 417 b 319 486 331 435 319 458 b 417 583 319 540 363 583 b 514 486 471 583 514 540 "},"Æ":{"ha":694,"x_min":0,"x_max":0,"o":"m 485 278 b 514 208 503 260 514 236 b 485 139 514 181 503 157 l 486 138 b 556 167 504 156 528 167 b 653 69 610 167 653 124 b 556 -28 653 15 610 -28 b 486 1 528 -28 504 -17 b 417 -28 468 -17 444 -28 b 319 69 363 -28 319 15 b 349 139 319 97 331 121 b 319 208 331 157 319 181 b 349 278 319 236 331 260 l 347 279 b 278 250 329 261 306 250 b 208 279 250 250 226 261 l 207 278 b 236 208 225 260 236 236 b 207 139 236 181 225 157 b 236 69 225 121 236 97 b 139 -28 236 15 193 -28 b 42 69 85 -28 42 15 b 71 139 42 97 53 121 b 42 208 53 157 42 181 b 71 278 42 236 53 260 b 42 347 53 296 42 319 b 71 417 42 375 53 399 b 42 486 53 435 42 458 b 139 583 42 540 85 583 b 236 486 193 583 236 540 b 207 417 236 458 225 435 l 208 415 b 278 444 226 433 250 444 b 347 415 306 444 329 433 l 349 417 b 319 486 331 435 319 458 b 349 556 319 514 331 538 l 347 557 b 278 528 329 539 306 528 b 181 625 224 528 181 571 b 278 722 181 679 224 722 b 347 693 306 722 329 711 b 417 722 365 711 389 722 b 486 693 444 722 468 711 b 556 722 504 711 528 722 b 653 625 610 722 653 679 b 556 528 653 571 610 528 b 486 557 528 528 504 539 l 485 556 b 514 486 503 538 514 514 b 485 417 514 458 503 435 l 486 415 b 556 444 504 433 528 444 b 653 347 610 444 653 401 b 556 250 653 293 610 250 b 486 279 528 250 504 261 "},"B":{"ha":556,"x_min":0,"x_max":0,"o":"m 278 167 b 375 69 332 167 375 124 b 278 -28 375 15 332 -28 b 208 1 250 -28 226 -17 b 139 -28 190 -17 167 -28 b 42 69 85 -28 42 15 b 71 139 42 97 53 121 b 42 208 53 157 42 181 b 71 278 42 236 53 260 b 42 347 53 296 42 319 b 71 417 42 375 53 399 b 42 486 53 435 42 458 b 71 556 42 514 53 538 b 42 625 53 574 42 597 b 139 722 42 679 85 722 b 208 693 167 722 190 711 b 278 722 226 711 250 722 b 375 625 332 722 375 679 b 278 528 375 571 332 528 b 208 557 250 528 226 539 l 207 556 b 236 486 225 538 236 514 b 207 417 236 458 225 435 l 208 415 b 278 444 226 433 250 444 b 375 347 332 444 375 401 b 278 250 375 293 332 250 b 208 279 250 250 226 261 l 207 278 b 236 208 225 260 236 236 b 207 139 236 181 225 157 l 208 138 b 278 167 226 156 250 167 m 319 486 b 417 583 319 540 363 583 b 514 486 471 583 514 540 b 417 389 514 432 471 389 b 319 486 363 389 319 432 m 417 306 b 514 208 471 306 514 263 b 417 111 514 154 471 111 b 319 208 363 111 319 154 b 417 306 319 263 363 306 "},"C":{"ha":556,"x_min":0,"x_max":0,"o":"m 278 528 b 181 625 224 528 181 571 b 278 722 181 679 224 722 b 375 625 332 722 375 679 b 278 528 375 571 332 528 m 236 208 b 139 111 236 154 193 111 b 42 208 85 111 42 154 b 71 278 42 236 53 260 b 42 347 53 296 42 319 b 71 417 42 375 53 399 b 42 486 53 435 42 458 b 139 583 42 540 85 583 b 236 486 193 583 236 540 b 207 417 236 458 225 435 b 236 347 225 399 236 375 b 207 278 236 319 225 296 b 236 208 225 260 236 236 m 319 486 b 417 583 319 540 363 583 b 514 486 471 583 514 540 b 417 389 514 432 471 389 b 319 486 363 389 319 432 m 417 306 b 514 208 471 306 514 263 b 417 111 514 154 471 111 b 319 208 363 111 319 154 b 417 306 319 263 363 306 m 278 167 b 375 69 332 167 375 124 b 278 -28 375 15 332 -28 b 181 69 224 -28 181 15 b 278 167 181 124 224 167 "},"Ć":{"ha":556,"x_min":0,"x_max":0,"o":"m 417 944 b 319 1042 363 944 319 988 b 417 1139 319 1096 363 1139 b 514 1042 471 1139 514 1096 b 417 944 514 988 471 944 m 278 806 b 181 903 224 806 181 849 b 278 1000 181 957 224 1000 b 375 903 332 1000 375 957 b 278 806 375 849 332 806 m 278 528 b 181 625 224 528 181 571 b 278 722 181 679 224 722 b 375 625 332 722 375 679 b 278 528 375 571 332 528 m 236 208 b 139 111 236 154 193 111 b 42 208 85 111 42 154 b 71 278 42 236 53 260 b 42 347 53 296 42 319 b 71 417 42 375 53 399 b 42 486 53 435 42 458 b 139 583 42 540 85 583 b 236 486 193 583 236 540 b 207 417 236 458 225 435 b 236 347 225 399 236 375 b 207 278 236 319 225 296 b 236 208 225 260 236 236 m 417 583 b 514 486 471 583 514 540 b 417 389 514 432 471 389 b 319 486 363 389 319 432 b 417 583 319 540 363 583 m 417 306 b 514 208 471 306 514 263 b 417 111 514 154 471 111 b 319 208 363 111 319 154 b 417 306 319 263 363 306 m 278 167 b 375 69 332 167 375 124 b 278 -28 375 15 332 -28 b 181 69 224 -28 181 15 b 278 167 181 124 224 167 "},"Č":{"ha":556,"x_min":0,"x_max":0,"o":"m 139 944 b 42 1042 85 944 42 988 b 139 1139 42 1096 85 1139 b 236 1042 193 1139 236 1096 b 139 944 236 988 193 944 m 417 944 b 319 1042 363 944 319 988 b 417 1139 319 1096 363 1139 b 514 1042 471 1139 514 1096 b 417 944 514 988 471 944 m 181 903 b 278 1000 181 957 224 1000 b 375 903 332 1000 375 957 b 278 806 375 849 332 806 b 181 903 224 806 181 849 m 278 722 b 375 625 332 722 375 679 b 278 528 375 571 332 528 b 181 625 224 528 181 571 b 278 722 181 679 224 722 m 236 208 b 139 111 236 154 193 111 b 42 208 85 111 42 154 b 71 278 42 236 53 260 b 42 347 53 296 42 319 b 71 417 42 375 53 399 b 42 486 53 435 42 458 b 139 583 42 540 85 583 b 236 486 193 583 236 540 b 207 417 236 458 225 435 b 236 347 225 399 236 375 b 207 278 236 319 225 296 b 236 208 225 260 236 236 m 417 583 b 514 486 471 583 514 540 b 417 389 514 432 471 389 b 319 486 363 389 319 432 b 417 583 319 540 363 583 m 417 306 b 514 208 471 306 514 263 b 417 111 514 154 471 111 b 319 208 363 111 319 154 b 417 306 319 263 363 306 m 278 167 b 375 69 332 167 375 124 b 278 -28 375 15 332 -28 b 181 69 224 -28 181 15 b 278 167 181 124 224 167 "},"Ç":{"ha":556,"x_min":0,"x_max":0,"o":"m 278 528 b 181 625 224 528 181 571 b 278 722 181 679 224 722 b 375 625 332 722 375 679 b 278 528 375 571 332 528 m 42 208 b 71 278 42 236 53 260 b 42 347 53 296 42 319 b 71 417 42 375 53 399 b 42 486 53 435 42 458 b 139 583 42 540 85 583 b 236 486 193 583 236 540 b 207 417 236 458 225 435 b 236 347 225 399 236 375 b 207 278 236 319 225 296 b 236 208 225 260 236 236 b 139 111 236 154 193 111 b 42 208 85 111 42 154 m 319 486 b 417 583 319 540 363 583 b 514 486 471 583 514 540 b 417 389 514 432 471 389 b 319 486 363 389 319 432 m 417 306 b 514 208 471 306 514 263 b 417 111 514 154 471 111 b 319 208 363 111 319 154 b 417 306 319 263 363 306 m 375 69 b 346 0 375 42 364 18 b 375 -69 364 -18 375 -42 b 278 -167 375 -124 332 -167 b 208 -137 250 -167 226 -156 b 139 -167 190 -156 167 -167 b 42 -69 85 -167 42 -124 b 139 28 42 -15 85 28 b 208 -1 167 28 190 17 l 210 0 b 181 69 192 18 181 42 b 278 167 181 124 224 167 b 375 69 332 167 375 124 "},"Ċ":{"ha":556,"x_min":0,"x_max":0,"o":"m 278 806 b 181 903 224 806 181 849 b 278 1000 181 957 224 1000 b 375 903 332 1000 375 957 b 278 806 375 849 332 806 m 278 528 b 181 625 224 528 181 571 b 278 722 181 679 224 722 b 375 625 332 722 375 679 b 278 528 375 571 332 528 m 236 208 b 139 111 236 154 193 111 b 42 208 85 111 42 154 b 71 278 42 236 53 260 b 42 347 53 296 42 319 b 71 417 42 375 53 399 b 42 486 53 435 42 458 b 139 583 42 540 85 583 b 236 486 193 583 236 540 b 207 417 236 458 225 435 b 236 347 225 399 236 375 b 207 278 236 319 225 296 b 236 208 225 260 236 236 m 319 486 b 417 583 319 540 363 583 b 514 486 471 583 514 540 b 417 389 514 432 471 389 b 319 486 363 389 319 432 m 417 306 b 514 208 471 306 514 263 b 417 111 514 154 471 111 b 319 208 363 111 319 154 b 417 306 319 263 363 306 m 278 167 b 375 69 332 167 375 124 b 278 -28 375 15 332 -28 b 181 69 224 -28 181 15 b 278 167 181 124 224 167 "},"D":{"ha":556,"x_min":0,"x_max":0,"o":"m 278 167 b 375 69 332 167 375 124 b 278 -28 375 15 332 -28 b 208 1 250 -28 226 -17 b 139 -28 190 -17 167 -28 b 42 69 85 -28 42 15 b 71 139 42 97 53 121 b 42 208 53 157 42 181 b 71 278 42 236 53 260 b 42 347 53 296 42 319 b 71 417 42 375 53 399 b 42 486 53 435 42 458 b 71 556 42 514 53 538 b 42 625 53 574 42 597 b 139 722 42 679 85 722 b 208 693 167 722 190 711 b 278 722 226 711 250 722 b 375 625 332 722 375 679 b 278 528 375 571 332 528 b 208 557 250 528 226 539 l 207 556 b 236 486 225 538 236 514 b 207 417 236 458 225 435 b 236 347 225 399 236 375 b 207 278 236 319 225 296 b 236 208 225 260 236 236 b 207 139 236 181 225 157 l 208 138 b 278 167 226 156 250 167 m 514 347 b 485 278 514 319 503 296 b 514 208 503 260 514 236 b 417 111 514 154 471 111 b 319 208 363 111 319 154 b 349 278 319 236 331 260 b 319 347 331 296 319 319 b 349 417 319 375 331 399 b 319 486 331 435 319 458 b 417 583 319 540 363 583 b 514 486 471 583 514 540 b 485 417 514 458 503 435 b 514 347 503 399 514 375 "},"Ð":{"ha":694,"x_min":0,"x_max":0,"o":"m 417 167 b 514 69 471 167 514 124 b 417 -28 514 15 471 -28 b 347 1 389 -28 365 -17 b 278 -28 329 -17 306 -28 b 181 69 224 -28 181 15 b 210 139 181 97 192 121 b 181 208 192 157 181 181 b 210 278 181 236 192 260 l 208 279 b 139 250 190 261 167 250 b 42 347 85 250 42 293 b 139 444 42 401 85 444 b 208 415 167 444 190 433 l 210 417 b 181 486 192 435 181 458 b 210 556 181 514 192 538 b 181 625 192 574 181 597 b 278 722 181 679 224 722 b 347 693 306 722 329 711 b 417 722 365 711 389 722 b 514 625 471 722 514 679 b 417 528 514 571 471 528 b 347 557 389 528 365 539 l 346 556 b 375 486 364 538 375 514 b 346 417 375 458 364 435 b 375 347 364 399 375 375 b 346 278 375 319 364 296 b 375 208 364 260 375 236 b 346 139 375 181 364 157 l 347 138 b 417 167 365 156 389 167 m 653 347 b 624 278 653 319 642 296 b 653 208 642 260 653 236 b 556 111 653 154 610 111 b 458 208 501 111 458 154 b 488 278 458 236 469 260 b 458 347 469 296 458 319 b 488 417 458 375 469 399 b 458 486 469 435 458 458 b 556 583 458 540 501 583 b 653 486 610 583 653 540 b 624 417 653 458 642 435 b 653 347 642 399 653 375 "},"Ď":{"ha":556,"x_min":0,"x_max":0,"o":"m 139 944 b 42 1042 85 944 42 988 b 139 1139 42 1096 85 1139 b 236 1042 193 1139 236 1096 b 139 944 236 988 193 944 m 417 944 b 319 1042 363 944 319 988 b 417 1139 319 1096 363 1139 b 514 1042 471 1139 514 1096 b 417 944 514 988 471 944 m 181 903 b 278 1000 181 957 224 1000 b 375 903 332 1000 375 957 b 278 806 375 849 332 806 b 181 903 224 806 181 849 m 278 167 b 375 69 332 167 375 124 b 278 -28 375 15 332 -28 b 208 1 250 -28 226 -17 b 139 -28 190 -17 167 -28 b 42 69 85 -28 42 15 b 71 139 42 97 53 121 b 42 208 53 157 42 181 b 71 278 42 236 53 260 b 42 347 53 296 42 319 b 71 417 42 375 53 399 b 42 486 53 435 42 458 b 71 556 42 514 53 538 b 42 625 53 574 42 597 b 139 722 42 679 85 722 b 208 693 167 722 190 711 b 278 722 226 711 250 722 b 375 625 332 722 375 679 b 278 528 375 571 332 528 b 208 557 250 528 226 539 l 207 556 b 236 486 225 538 236 514 b 207 417 236 458 225 435 b 236 347 225 399 236 375 b 207 278 236 319 225 296 b 236 208 225 260 236 236 b 207 139 236 181 225 157 l 208 138 b 278 167 226 156 250 167 m 514 486 b 485 417 514 458 503 435 b 514 347 503 399 514 375 b 485 278 514 319 503 296 b 514 208 503 260 514 236 b 417 111 514 154 471 111 b 319 208 363 111 319 154 b 349 278 319 236 331 260 b 319 347 331 296 319 319 b 349 417 319 375 331 399 b 319 486 331 435 319 458 b 417 583 319 540 363 583 b 514 486 471 583 514 540 "},"Đ":{"ha":694,"x_min":0,"x_max":0,"o":"m 417 167 b 514 69 471 167 514 124 b 417 -28 514 15 471 -28 b 347 1 389 -28 365 -17 b 278 -28 329 -17 306 -28 b 181 69 224 -28 181 15 b 210 139 181 97 192 121 b 181 208 192 157 181 181 b 210 278 181 236 192 260 l 208 279 b 139 250 190 261 167 250 b 42 347 85 250 42 293 b 139 444 42 401 85 444 b 208 415 167 444 190 433 l 210 417 b 181 486 192 435 181 458 b 210 556 181 514 192 538 b 181 625 192 574 181 597 b 278 722 181 679 224 722 b 347 693 306 722 329 711 b 417 722 365 711 389 722 b 514 625 471 722 514 679 b 417 528 514 571 471 528 b 347 557 389 528 365 539 l 346 556 b 375 486 364 538 375 514 b 346 417 375 458 364 435 b 375 347 364 399 375 375 b 346 278 375 319 364 296 b 375 208 364 260 375 236 b 346 139 375 181 364 157 l 347 138 b 417 167 365 156 389 167 m 653 347 b 624 278 653 319 642 296 b 653 208 642 260 653 236 b 556 111 653 154 610 111 b 458 208 501 111 458 154 b 488 278 458 236 469 260 b 458 347 469 296 458 319 b 488 417 458 375 469 399 b 458 486 469 435 458 458 b 556 583 458 540 501 583 b 653 486 610 583 653 540 b 624 417 653 458 642 435 b 653 347 642 399 653 375 "},"E":{"ha":417,"x_min":0,"x_max":0,"o":"m 207 278 b 236 208 225 260 236 236 b 207 139 236 181 225 157 l 208 138 b 278 167 226 156 250 167 b 375 69 332 167 375 124 b 278 -28 375 15 332 -28 b 208 1 250 -28 226 -17 b 139 -28 190 -17 167 -28 b 42 69 85 -28 42 15 b 71 139 42 97 53 121 b 42 208 53 157 42 181 b 71 278 42 236 53 260 b 42 347 53 296 42 319 b 71 417 42 375 53 399 b 42 486 53 435 42 458 b 71 556 42 514 53 538 b 42 625 53 574 42 597 b 139 722 42 679 85 722 b 208 693 167 722 190 711 b 278 722 226 711 250 722 b 375 625 332 722 375 679 b 278 528 375 571 332 528 b 208 557 250 528 226 539 l 207 556 b 236 486 225 538 236 514 b 207 417 236 458 225 435 l 208 415 b 278 444 226 433 250 444 b 375 347 332 444 375 401 b 278 250 375 293 332 250 b 208 279 250 250 226 261 "},"É":{"ha":417,"x_min":0,"x_max":0,"o":"m 278 944 b 181 1042 224 944 181 988 b 278 1139 181 1096 224 1139 b 375 1042 332 1139 375 1096 b 278 944 375 988 332 944 m 139 806 b 42 903 85 806 42 849 b 139 1000 42 957 85 1000 b 236 903 193 1000 236 957 b 139 806 236 849 193 806 m 207 556 b 236 486 225 538 236 514 b 207 417 236 458 225 435 l 208 415 b 278 444 226 433 250 444 b 375 347 332 444 375 401 b 278 250 375 293 332 250 b 208 279 250 250 226 261 l 207 278 b 236 208 225 260 236 236 b 207 139 236 181 225 157 l 208 138 b 278 167 226 156 250 167 b 375 69 332 167 375 124 b 278 -28 375 15 332 -28 b 208 1 250 -28 226 -17 b 139 -28 190 -17 167 -28 b 42 69 85 -28 42 15 b 71 139 42 97 53 121 b 42 208 53 157 42 181 b 71 278 42 236 53 260 b 42 347 53 296 42 319 b 71 417 42 375 53 399 b 42 486 53 435 42 458 b 71 556 42 514 53 538 b 42 625 53 574 42 597 b 139 722 42 679 85 722 b 208 693 167 722 190 711 b 278 722 226 711 250 722 b 375 625 332 722 375 679 b 278 528 375 571 332 528 b 208 557 250 528 226 539 "},"Ě":{"ha":417,"x_min":0,"x_max":0,"o":"m 97 1042 b 0 944 97 988 54 944 b -97 1042 -54 944 -97 988 b 0 1139 -97 1096 -54 1139 b 97 1042 54 1139 97 1096 m 278 944 b 181 1042 224 944 181 988 b 278 1139 181 1096 224 1139 b 375 1042 332 1139 375 1096 b 278 944 375 988 332 944 m 42 903 b 139 1000 42 957 85 1000 b 236 903 193 1000 236 957 b 139 806 236 849 193 806 b 42 903 85 806 42 849 m 207 556 b 236 486 225 538 236 514 b 207 417 236 458 225 435 l 208 415 b 278 444 226 433 250 444 b 375 347 332 444 375 401 b 278 250 375 293 332 250 b 208 279 250 250 226 261 l 207 278 b 236 208 225 260 236 236 b 207 139 236 181 225 157 l 208 138 b 278 167 226 156 250 167 b 375 69 332 167 375 124 b 278 -28 375 15 332 -28 b 208 1 250 -28 226 -17 b 139 -28 190 -17 167 -28 b 42 69 85 -28 42 15 b 71 139 42 97 53 121 b 42 208 53 157 42 181 b 71 278 42 236 53 260 b 42 347 53 296 42 319 b 71 417 42 375 53 399 b 42 486 53 435 42 458 b 71 556 42 514 53 538 b 42 625 53 574 42 597 b 139 722 42 679 85 722 b 208 693 167 722 190 711 b 278 722 226 711 250 722 b 375 625 332 722 375 679 b 278 528 375 571 332 528 b 208 557 250 528 226 539 "},"Ê":{"ha":417,"x_min":0,"x_max":0,"o":"m 278 944 b 181 1042 224 944 181 988 b 278 1139 181 1096 224 1139 b 375 1042 332 1139 375 1096 b 278 944 375 988 332 944 m 139 806 b 42 903 85 806 42 849 b 139 1000 42 957 85 1000 b 236 903 193 1000 236 957 b 139 806 236 849 193 806 m 417 1000 b 514 903 471 1000 514 957 b 417 806 514 849 471 806 b 319 903 363 806 319 849 b 417 1000 319 957 363 1000 m 207 556 b 236 486 225 538 236 514 b 207 417 236 458 225 435 l 208 415 b 278 444 226 433 250 444 b 375 347 332 444 375 401 b 278 250 375 293 332 250 b 208 279 250 250 226 261 l 207 278 b 236 208 225 260 236 236 b 207 139 236 181 225 157 l 208 138 b 278 167 226 156 250 167 b 375 69 332 167 375 124 b 278 -28 375 15 332 -28 b 208 1 250 -28 226 -17 b 139 -28 190 -17 167 -28 b 42 69 85 -28 42 15 b 71 139 42 97 53 121 b 42 208 53 157 42 181 b 71 278 42 236 53 260 b 42 347 53 296 42 319 b 71 417 42 375 53 399 b 42 486 53 435 42 458 b 71 556 42 514 53 538 b 42 625 53 574 42 597 b 139 722 42 679 85 722 b 208 693 167 722 190 711 b 278 722 226 711 250 722 b 375 625 332 722 375 679 b 278 528 375 571 332 528 b 208 557 250 528 226 539 "},"Ë":{"ha":417,"x_min":0,"x_max":0,"o":"m 139 806 b 42 903 85 806 42 849 b 139 1000 42 957 85 1000 b 236 903 193 1000 236 957 b 139 806 236 849 193 806 m 417 1000 b 514 903 471 1000 514 957 b 417 806 514 849 471 806 b 319 903 363 806 319 849 b 417 1000 319 957 363 1000 m 207 556 b 236 486 225 538 236 514 b 207 417 236 458 225 435 l 208 415 b 278 444 226 433 250 444 b 375 347 332 444 375 401 b 278 250 375 293 332 250 b 208 279 250 250 226 261 l 207 278 b 236 208 225 260 236 236 b 207 139 236 181 225 157 l 208 138 b 278 167 226 156 250 167 b 375 69 332 167 375 124 b 278 -28 375 15 332 -28 b 208 1 250 -28 226 -17 b 139 -28 190 -17 167 -28 b 42 69 85 -28 42 15 b 71 139 42 97 53 121 b 42 208 53 157 42 181 b 71 278 42 236 53 260 b 42 347 53 296 42 319 b 71 417 42 375 53 399 b 42 486 53 435 42 458 b 71 556 42 514 53 538 b 42 625 53 574 42 597 b 139 722 42 679 85 722 b 208 693 167 722 190 711 b 278 722 226 711 250 722 b 375 625 332 722 375 679 b 278 528 375 571 332 528 b 208 557 250 528 226 539 "},"Ė":{"ha":417,"x_min":0,"x_max":0,"o":"m 139 806 b 42 903 85 806 42 849 b 139 1000 42 957 85 1000 b 236 903 193 1000 236 957 b 139 806 236 849 193 806 m 207 278 b 236 208 225 260 236 236 b 207 139 236 181 225 157 l 208 138 b 278 167 226 156 250 167 b 375 69 332 167 375 124 b 278 -28 375 15 332 -28 b 208 1 250 -28 226 -17 b 139 -28 190 -17 167 -28 b 42 69 85 -28 42 15 b 71 139 42 97 53 121 b 42 208 53 157 42 181 b 71 278 42 236 53 260 b 42 347 53 296 42 319 b 71 417 42 375 53 399 b 42 486 53 435 42 458 b 71 556 42 514 53 538 b 42 625 53 574 42 597 b 139 722 42 679 85 722 b 208 693 167 722 190 711 b 278 722 226 711 250 722 b 375 625 332 722 375 679 b 278 528 375 571 332 528 b 208 557 250 528 226 539 l 207 556 b 236 486 225 538 236 514 b 207 417 236 458 225 435 l 208 415 b 278 444 226 433 250 444 b 375 347 332 444 375 401 b 278 250 375 293 332 250 b 208 279 250 250 226 261 "},"È":{"ha":417,"x_min":0,"x_max":0,"o":"m 139 944 b 42 1042 85 944 42 988 b 139 1139 42 1096 85 1139 b 236 1042 193 1139 236 1096 b 139 944 236 988 193 944 m 181 903 b 278 1000 181 957 224 1000 b 375 903 332 1000 375 957 b 278 806 375 849 332 806 b 181 903 224 806 181 849 m 207 556 b 236 486 225 538 236 514 b 207 417 236 458 225 435 l 208 415 b 278 444 226 433 250 444 b 375 347 332 444 375 401 b 278 250 375 293 332 250 b 208 279 250 250 226 261 l 207 278 b 236 208 225 260 236 236 b 207 139 236 181 225 157 l 208 138 b 278 167 226 156 250 167 b 375 69 332 167 375 124 b 278 -28 375 15 332 -28 b 208 1 250 -28 226 -17 b 139 -28 190 -17 167 -28 b 42 69 85 -28 42 15 b 71 139 42 97 53 121 b 42 208 53 157 42 181 b 71 278 42 236 53 260 b 42 347 53 296 42 319 b 71 417 42 375 53 399 b 42 486 53 435 42 458 b 71 556 42 514 53 538 b 42 625 53 574 42 597 b 139 722 42 679 85 722 b 208 693 167 722 190 711 b 278 722 226 711 250 722 b 375 625 332 722 375 679 b 278 528 375 571 332 528 b 208 557 250 528 226 539 "},"Ē":{"ha":417,"x_min":0,"x_max":0,"o":"m 417 1000 b 514 903 471 1000 514 957 b 417 806 514 849 471 806 b 347 835 389 806 365 817 b 278 806 329 817 306 806 b 208 835 250 806 226 817 b 139 806 190 817 167 806 b 42 903 85 806 42 849 b 139 1000 42 957 85 1000 b 208 971 167 1000 190 989 b 278 1000 226 989 250 1000 b 347 971 306 1000 329 989 b 417 1000 365 989 389 1000 m 207 556 b 236 486 225 538 236 514 b 207 417 236 458 225 435 l 208 415 b 278 444 226 433 250 444 b 375 347 332 444 375 401 b 278 250 375 293 332 250 b 208 279 250 250 226 261 l 207 278 b 236 208 225 260 236 236 b 207 139 236 181 225 157 l 208 138 b 278 167 226 156 250 167 b 375 69 332 167 375 124 b 278 -28 375 15 332 -28 b 208 1 250 -28 226 -17 b 139 -28 190 -17 167 -28 b 42 69 85 -28 42 15 b 71 139 42 97 53 121 b 42 208 53 157 42 181 b 71 278 42 236 53 260 b 42 347 53 296 42 319 b 71 417 42 375 53 399 b 42 486 53 435 42 458 b 71 556 42 514 53 538 b 42 625 53 574 42 597 b 139 722 42 679 85 722 b 208 693 167 722 190 711 b 278 722 226 711 250 722 b 375 625 332 722 375 679 b 278 528 375 571 332 528 b 208 557 250 528 226 539 "},"Ę":{"ha":417,"x_min":0,"x_max":0,"o":"m 417 -111 b 514 -208 471 -111 514 -154 b 417 -306 514 -262 471 -306 b 347 -276 389 -306 365 -294 b 278 -306 329 -294 306 -306 b 181 -208 224 -306 181 -262 b 210 -139 181 -181 192 -157 b 181 -69 192 -121 181 -97 b 210 0 181 -42 192 -18 l 208 1 b 139 -28 190 -17 167 -28 b 42 69 85 -28 42 15 b 71 139 42 97 53 121 b 42 208 53 157 42 181 b 71 278 42 236 53 260 b 42 347 53 296 42 319 b 71 417 42 375 53 399 b 42 486 53 435 42 458 b 71 556 42 514 53 538 b 42 625 53 574 42 597 b 139 722 42 679 85 722 b 208 693 167 722 190 711 b 278 722 226 711 250 722 b 375 625 332 722 375 679 b 278 528 375 571 332 528 b 208 557 250 528 226 539 l 207 556 b 236 486 225 538 236 514 b 207 417 236 458 225 435 l 208 415 b 278 444 226 433 250 444 b 375 347 332 444 375 401 b 278 250 375 293 332 250 b 208 279 250 250 226 261 l 207 278 b 236 208 225 260 236 236 b 207 139 236 181 225 157 l 208 138 b 278 167 226 156 250 167 b 375 69 332 167 375 124 b 346 0 375 42 364 18 b 375 -69 364 -18 375 -42 b 346 -139 375 -97 364 -121 l 347 -140 b 417 -111 365 -122 389 -111 "},"F":{"ha":417,"x_min":0,"x_max":0,"o":"m 278 444 b 375 347 332 444 375 401 b 278 250 375 293 332 250 b 208 279 250 250 226 261 l 207 278 b 236 208 225 260 236 236 b 207 139 236 181 225 157 b 236 69 225 121 236 97 b 139 -28 236 15 193 -28 b 42 69 85 -28 42 15 b 71 139 42 97 53 121 b 42 208 53 157 42 181 b 71 278 42 236 53 260 b 42 347 53 296 42 319 b 71 417 42 375 53 399 b 42 486 53 435 42 458 b 71 556 42 514 53 538 b 42 625 53 574 42 597 b 139 722 42 679 85 722 b 208 693 167 722 190 711 b 278 722 226 711 250 722 b 375 625 332 722 375 679 b 278 528 375 571 332 528 b 208 557 250 528 226 539 l 207 556 b 236 486 225 538 236 514 b 207 417 236 458 225 435 l 208 415 b 278 444 226 433 250 444 "},"G":{"ha":556,"x_min":0,"x_max":0,"o":"m 278 528 b 181 625 224 528 181 571 b 278 722 181 679 224 722 b 347 693 306 722 329 711 b 417 722 365 711 389 722 b 514 625 471 722 514 679 b 417 528 514 571 471 528 b 347 557 389 528 365 539 b 278 528 329 539 306 528 m 236 208 b 139 111 236 154 193 111 b 42 208 85 111 42 154 b 71 278 42 236 53 260 b 42 347 53 296 42 319 b 71 417 42 375 53 399 b 42 486 53 435 42 458 b 139 583 42 540 85 583 b 236 486 193 583 236 540 b 207 417 236 458 225 435 b 236 347 225 399 236 375 b 207 278 236 319 225 296 b 236 208 225 260 236 236 m 514 347 b 485 278 514 319 503 296 b 514 208 503 260 514 236 b 485 139 514 181 503 157 b 514 69 503 121 514 97 b 417 -28 514 15 471 -28 b 347 1 389 -28 365 -17 b 278 -28 329 -17 306 -28 b 181 69 224 -28 181 15 b 278 167 181 124 224 167 b 347 138 306 167 329 156 l 349 139 b 319 208 331 157 319 181 b 349 278 319 236 331 260 b 319 347 331 296 319 319 b 417 444 319 401 363 444 b 514 347 471 444 514 401 "},"Ğ":{"ha":556,"x_min":0,"x_max":0,"o":"m 485 972 b 514 903 503 954 514 931 b 417 806 514 849 471 806 b 347 835 389 806 365 817 b 278 806 329 817 306 806 b 208 835 250 806 226 817 b 139 806 190 817 167 806 b 42 903 85 806 42 849 b 71 972 42 931 53 954 b 42 1042 53 990 42 1014 b 139 1139 42 1096 85 1139 b 236 1042 193 1139 236 1096 b 207 972 236 1014 225 990 l 208 971 b 278 1000 226 989 250 1000 b 347 971 306 1000 329 989 l 349 972 b 319 1042 331 990 319 1014 b 417 1139 319 1096 363 1139 b 514 1042 471 1139 514 1096 b 485 972 514 1014 503 990 m 417 722 b 514 625 471 722 514 679 b 417 528 514 571 471 528 b 347 557 389 528 365 539 b 278 528 329 539 306 528 b 181 625 224 528 181 571 b 278 722 181 679 224 722 b 347 693 306 722 329 711 b 417 722 365 711 389 722 m 236 208 b 139 111 236 154 193 111 b 42 208 85 111 42 154 b 71 278 42 236 53 260 b 42 347 53 296 42 319 b 71 417 42 375 53 399 b 42 486 53 435 42 458 b 139 583 42 540 85 583 b 236 486 193 583 236 540 b 207 417 236 458 225 435 b 236 347 225 399 236 375 b 207 278 236 319 225 296 b 236 208 225 260 236 236 m 514 347 b 485 278 514 319 503 296 b 514 208 503 260 514 236 b 485 139 514 181 503 157 b 514 69 503 121 514 97 b 417 -28 514 15 471 -28 b 347 1 389 -28 365 -17 b 278 -28 329 -17 306 -28 b 181 69 224 -28 181 15 b 278 167 181 124 224 167 b 347 138 306 167 329 156 l 349 139 b 319 208 331 157 319 181 b 349 278 319 236 331 260 b 319 347 331 296 319 319 b 417 444 319 401 363 444 b 514 347 471 444 514 401 "},"Ģ":{"ha":556,"x_min":0,"x_max":0,"o":"m 278 528 b 181 625 224 528 181 571 b 278 722 181 679 224 722 b 347 693 306 722 329 711 b 417 722 365 711 389 722 b 514 625 471 722 514 679 b 417 528 514 571 471 528 b 347 557 389 528 365 539 b 278 528 329 539 306 528 m 236 208 b 139 111 236 154 193 111 b 42 208 85 111 42 154 b 71 278 42 236 53 260 b 42 347 53 296 42 319 b 71 417 42 375 53 399 b 42 486 53 435 42 458 b 139 583 42 540 85 583 b 236 486 193 583 236 540 b 207 417 236 458 225 435 b 236 347 225 399 236 375 b 207 278 236 319 225 296 b 236 208 225 260 236 236 m 514 347 b 485 278 514 319 503 296 b 514 208 503 260 514 236 b 485 139 514 181 503 157 b 514 69 503 121 514 97 b 417 -28 514 15 471 -28 b 347 1 389 -28 365 -17 b 278 -28 329 -17 306 -28 b 181 69 224 -28 181 15 b 278 167 181 124 224 167 b 347 138 306 167 329 156 l 349 139 b 319 208 331 157 319 181 b 349 278 319 236 331 260 b 319 347 331 296 319 319 b 417 444 319 401 363 444 b 514 347 471 444 514 401 m 514 -208 b 485 -278 514 -236 503 -260 b 514 -347 503 -296 514 -319 b 417 -444 514 -401 471 -444 b 319 -347 363 -444 319 -401 b 349 -278 319 -319 331 -296 l 347 -276 b 278 -306 329 -294 306 -306 b 181 -208 224 -306 181 -262 b 278 -111 181 -154 224 -111 b 347 -140 306 -111 329 -122 b 417 -111 365 -122 389 -111 b 514 -208 471 -111 514 -154 m 278 -389 b 375 -486 332 -389 375 -432 b 278 -583 375 -540 332 -583 b 181 -486 224 -583 181 -540 b 278 -389 181 -432 224 -389 "},"Ġ":{"ha":556,"x_min":0,"x_max":0,"o":"m 278 806 b 181 903 224 806 181 849 b 278 1000 181 957 224 1000 b 375 903 332 1000 375 957 b 278 806 375 849 332 806 m 278 528 b 181 625 224 528 181 571 b 278 722 181 679 224 722 b 347 693 306 722 329 711 b 417 722 365 711 389 722 b 514 625 471 722 514 679 b 417 528 514 571 471 528 b 347 557 389 528 365 539 b 278 528 329 539 306 528 m 236 208 b 139 111 236 154 193 111 b 42 208 85 111 42 154 b 71 278 42 236 53 260 b 42 347 53 296 42 319 b 71 417 42 375 53 399 b 42 486 53 435 42 458 b 139 583 42 540 85 583 b 236 486 193 583 236 540 b 207 417 236 458 225 435 b 236 347 225 399 236 375 b 207 278 236 319 225 296 b 236 208 225 260 236 236 m 514 347 b 485 278 514 319 503 296 b 514 208 503 260 514 236 b 485 139 514 181 503 157 b 514 69 503 121 514 97 b 417 -28 514 15 471 -28 b 347 1 389 -28 365 -17 b 278 -28 329 -17 306 -28 b 181 69 224 -28 181 15 b 278 167 181 124 224 167 b 347 138 306 167 329 156 l 349 139 b 319 208 331 157 319 181 b 349 278 319 236 331 260 b 319 347 331 296 319 319 b 417 444 319 401 363 444 b 514 347 471 444 514 401 "},"H":{"ha":556,"x_min":0,"x_max":0,"o":"m 514 486 b 485 417 514 458 503 435 b 514 347 503 399 514 375 b 485 278 514 319 503 296 b 514 208 503 260 514 236 b 485 139 514 181 503 157 b 514 69 503 121 514 97 b 417 -28 514 15 471 -28 b 319 69 363 -28 319 15 b 349 139 319 97 331 121 b 319 208 331 157 319 181 b 349 278 319 236 331 260 l 347 279 b 278 250 329 261 306 250 b 208 279 250 250 226 261 l 207 278 b 236 208 225 260 236 236 b 207 139 236 181 225 157 b 236 69 225 121 236 97 b 139 -28 236 15 193 -28 b 42 69 85 -28 42 15 b 71 139 42 97 53 121 b 42 208 53 157 42 181 b 71 278 42 236 53 260 b 42 347 53 296 42 319 b 71 417 42 375 53 399 b 42 486 53 435 42 458 b 71 556 42 514 53 538 b 42 625 53 574 42 597 b 139 722 42 679 85 722 b 236 625 193 722 236 679 b 207 556 236 597 225 574 b 236 486 225 538 236 514 b 207 417 236 458 225 435 l 208 415 b 278 444 226 433 250 444 b 347 415 306 444 329 433 l 349 417 b 319 486 331 435 319 458 b 349 556 319 514 331 538 b 319 625 331 574 319 597 b 417 722 319 679 363 722 b 514 625 471 722 514 679 b 485 556 514 597 503 574 b 514 486 503 538 514 514 "},"Ħ":{"ha":972,"x_min":0,"x_max":0,"o":"m 833 583 b 931 486 888 583 931 540 b 833 389 931 432 888 389 b 764 418 806 389 782 400 l 763 417 b 792 347 781 399 792 375 b 763 278 792 319 781 296 b 792 208 781 260 792 236 b 763 139 792 181 781 157 b 792 69 781 121 792 97 b 694 -28 792 15 749 -28 b 597 69 640 -28 597 15 b 626 139 597 97 608 121 l 625 140 b 556 111 607 122 583 111 b 486 140 528 111 504 122 b 417 111 468 122 444 111 b 347 140 389 111 365 122 l 346 139 b 375 69 364 121 375 97 b 278 -28 375 15 332 -28 b 181 69 224 -28 181 15 b 210 139 181 97 192 121 b 181 208 192 157 181 181 b 210 278 181 236 192 260 b 181 347 192 296 181 319 b 210 417 181 375 192 399 l 208 418 b 139 389 190 400 167 389 b 42 486 85 389 42 432 b 139 583 42 540 85 583 b 208 554 167 583 190 572 l 210 556 b 181 625 192 574 181 597 b 278 722 181 679 224 722 b 375 625 332 722 375 679 b 346 556 375 597 364 574 l 347 554 b 417 583 365 572 389 583 b 486 554 444 583 468 572 b 556 583 504 572 528 583 b 625 554 583 583 607 572 l 626 556 b 597 625 608 574 597 597 b 694 722 597 679 640 722 b 792 625 749 722 792 679 b 763 556 792 597 781 574 l 764 554 b 833 583 782 572 806 583 m 486 276 b 556 306 504 294 528 306 b 625 276 583 306 607 294 l 626 278 b 597 347 608 296 597 319 b 626 417 597 375 608 399 l 625 418 b 556 389 607 400 583 389 b 486 418 528 389 504 400 b 417 389 468 400 444 389 b 347 418 389 389 365 400 l 346 417 b 375 347 364 399 375 375 b 346 278 375 319 364 296 l 347 276 b 417 306 365 294 389 306 b 486 276 444 306 468 294 "},"I":{"ha":278,"x_min":0,"x_max":0,"o":"m 236 486 b 207 417 236 458 225 435 b 236 347 225 399 236 375 b 207 278 236 319 225 296 b 236 208 225 260 236 236 b 207 139 236 181 225 157 b 236 69 225 121 236 97 b 139 -28 236 15 193 -28 b 42 69 85 -28 42 15 b 71 139 42 97 53 121 b 42 208 53 157 42 181 b 71 278 42 236 53 260 b 42 347 53 296 42 319 b 71 417 42 375 53 399 b 42 486 53 435 42 458 b 71 556 42 514 53 538 b 42 625 53 574 42 597 b 139 722 42 679 85 722 b 236 625 193 722 236 679 b 207 556 236 597 225 574 b 236 486 225 538 236 514 "},"Í":{"ha":278,"x_min":0,"x_max":0,"o":"m 278 1139 b 375 1042 332 1139 375 1096 b 278 944 375 988 332 944 b 181 1042 224 944 181 988 b 278 1139 181 1096 224 1139 m 139 1000 b 236 903 193 1000 236 957 b 139 806 236 849 193 806 b 42 903 85 806 42 849 b 139 1000 42 957 85 1000 m 236 625 b 207 556 236 597 225 574 b 236 486 225 538 236 514 b 207 417 236 458 225 435 b 236 347 225 399 236 375 b 207 278 236 319 225 296 b 236 208 225 260 236 236 b 207 139 236 181 225 157 b 236 69 225 121 236 97 b 139 -28 236 15 193 -28 b 42 69 85 -28 42 15 b 71 139 42 97 53 121 b 42 208 53 157 42 181 b 71 278 42 236 53 260 b 42 347 53 296 42 319 b 71 417 42 375 53 399 b 42 486 53 435 42 458 b 71 556 42 514 53 538 b 42 625 53 574 42 597 b 139 722 42 679 85 722 b 236 625 193 722 236 679 "},"Î":{"ha":278,"x_min":0,"x_max":0,"o":"m 139 944 b 42 1042 85 944 42 988 b 139 1139 42 1096 85 1139 b 236 1042 193 1139 236 1096 b 139 944 236 988 193 944 m 97 903 b 0 806 97 849 54 806 b -97 903 -54 806 -97 849 b 0 1000 -97 957 -54 1000 b 97 903 54 1000 97 957 m 278 1000 b 375 903 332 1000 375 957 b 278 806 375 849 332 806 b 181 903 224 806 181 849 b 278 1000 181 957 224 1000 m 236 625 b 207 556 236 597 225 574 b 236 486 225 538 236 514 b 207 417 236 458 225 435 b 236 347 225 399 236 375 b 207 278 236 319 225 296 b 236 208 225 260 236 236 b 207 139 236 181 225 157 b 236 69 225 121 236 97 b 139 -28 236 15 193 -28 b 42 69 85 -28 42 15 b 71 139 42 97 53 121 b 42 208 53 157 42 181 b 71 278 42 236 53 260 b 42 347 53 296 42 319 b 71 417 42 375 53 399 b 42 486 53 435 42 458 b 71 556 42 514 53 538 b 42 625 53 574 42 597 b 139 722 42 679 85 722 b 236 625 193 722 236 679 "},"Ï":{"ha":278,"x_min":0,"x_max":0,"o":"m 97 903 b 0 806 97 849 54 806 b -97 903 -54 806 -97 849 b 0 1000 -97 957 -54 1000 b 97 903 54 1000 97 957 m 278 1000 b 375 903 332 1000 375 957 b 278 806 375 849 332 806 b 181 903 224 806 181 849 b 278 1000 181 957 224 1000 m 236 625 b 207 556 236 597 225 574 b 236 486 225 538 236 514 b 207 417 236 458 225 435 b 236 347 225 399 236 375 b 207 278 236 319 225 296 b 236 208 225 260 236 236 b 207 139 236 181 225 157 b 236 69 225 121 236 97 b 139 -28 236 15 193 -28 b 42 69 85 -28 42 15 b 71 139 42 97 53 121 b 42 208 53 157 42 181 b 71 278 42 236 53 260 b 42 347 53 296 42 319 b 71 417 42 375 53 399 b 42 486 53 435 42 458 b 71 556 42 514 53 538 b 42 625 53 574 42 597 b 139 722 42 679 85 722 b 236 625 193 722 236 679 "},"İ":{"ha":278,"x_min":0,"x_max":0,"o":"m 139 806 b 42 903 85 806 42 849 b 139 1000 42 957 85 1000 b 236 903 193 1000 236 957 b 139 806 236 849 193 806 m 236 625 b 207 556 236 597 225 574 b 236 486 225 538 236 514 b 207 417 236 458 225 435 b 236 347 225 399 236 375 b 207 278 236 319 225 296 b 236 208 225 260 236 236 b 207 139 236 181 225 157 b 236 69 225 121 236 97 b 139 -28 236 15 193 -28 b 42 69 85 -28 42 15 b 71 139 42 97 53 121 b 42 208 53 157 42 181 b 71 278 42 236 53 260 b 42 347 53 296 42 319 b 71 417 42 375 53 399 b 42 486 53 435 42 458 b 71 556 42 514 53 538 b 42 625 53 574 42 597 b 139 722 42 679 85 722 b 236 625 193 722 236 679 "},"Ì":{"ha":278,"x_min":0,"x_max":0,"o":"m 97 1042 b 0 944 97 988 54 944 b -97 1042 -54 944 -97 988 b 0 1139 -97 1096 -54 1139 b 97 1042 54 1139 97 1096 m 42 903 b 139 1000 42 957 85 1000 b 236 903 193 1000 236 957 b 139 806 236 849 193 806 b 42 903 85 806 42 849 m 236 625 b 207 556 236 597 225 574 b 236 486 225 538 236 514 b 207 417 236 458 225 435 b 236 347 225 399 236 375 b 207 278 236 319 225 296 b 236 208 225 260 236 236 b 207 139 236 181 225 157 b 236 69 225 121 236 97 b 139 -28 236 15 193 -28 b 42 69 85 -28 42 15 b 71 139 42 97 53 121 b 42 208 53 157 42 181 b 71 278 42 236 53 260 b 42 347 53 296 42 319 b 71 417 42 375 53 399 b 42 486 53 435 42 458 b 71 556 42 514 53 538 b 42 625 53 574 42 597 b 139 722 42 679 85 722 b 236 625 193 722 236 679 "},"Ī":{"ha":278,"x_min":0,"x_max":0,"o":"m 278 1000 b 375 903 332 1000 375 957 b 278 806 375 849 332 806 b 208 835 250 806 226 817 b 139 806 190 817 167 806 b 69 835 111 806 88 817 b 0 806 51 817 28 806 b -97 903 -54 806 -97 849 b 0 1000 -97 957 -54 1000 b 69 971 28 1000 51 989 b 139 1000 88 989 111 1000 b 208 971 167 1000 190 989 b 278 1000 226 989 250 1000 m 236 625 b 207 556 236 597 225 574 b 236 486 225 538 236 514 b 207 417 236 458 225 435 b 236 347 225 399 236 375 b 207 278 236 319 225 296 b 236 208 225 260 236 236 b 207 139 236 181 225 157 b 236 69 225 121 236 97 b 139 -28 236 15 193 -28 b 42 69 85 -28 42 15 b 71 139 42 97 53 121 b 42 208 53 157 42 181 b 71 278 42 236 53 260 b 42 347 53 296 42 319 b 71 417 42 375 53 399 b 42 486 53 435 42 458 b 71 556 42 514 53 538 b 42 625 53 574 42 597 b 139 722 42 679 85 722 b 236 625 193 722 236 679 "},"Į":{"ha":278,"x_min":0,"x_max":0,"o":"m 236 486 b 207 417 236 458 225 435 b 236 347 225 399 236 375 b 207 278 236 319 225 296 b 236 208 225 260 236 236 b 207 139 236 181 225 157 b 236 69 225 121 236 97 b 139 -28 236 15 193 -28 b 42 69 85 -28 42 15 b 71 139 42 97 53 121 b 42 208 53 157 42 181 b 71 278 42 236 53 260 b 42 347 53 296 42 319 b 71 417 42 375 53 399 b 42 486 53 435 42 458 b 71 556 42 514 53 538 b 42 625 53 574 42 597 b 139 722 42 679 85 722 b 236 625 193 722 236 679 b 207 556 236 597 225 574 b 236 486 225 538 236 514 m 139 -111 b 236 -208 193 -111 236 -154 b 139 -306 236 -262 193 -306 b 69 -276 111 -306 88 -294 b 0 -306 51 -294 28 -306 b -97 -208 -54 -306 -97 -262 b -68 -139 -97 -181 -86 -157 b -97 -69 -86 -121 -97 -97 b 0 28 -97 -15 -54 28 b 97 -69 54 28 97 -15 b 68 -139 97 -97 86 -121 l 69 -140 b 139 -111 88 -122 111 -111 "},"J":{"ha":556,"x_min":0,"x_max":0,"o":"m 514 486 b 485 417 514 458 503 435 b 514 347 503 399 514 375 b 485 278 514 319 503 296 b 514 208 503 260 514 236 b 417 111 514 154 471 111 b 319 208 363 111 319 154 b 349 278 319 236 331 260 b 319 347 331 296 319 319 b 349 417 319 375 331 399 b 319 486 331 435 319 458 b 349 556 319 514 331 538 b 319 625 331 574 319 597 b 417 722 319 679 363 722 b 514 625 471 722 514 679 b 485 556 514 597 503 574 b 514 486 503 538 514 514 m 236 208 b 139 111 236 154 193 111 b 42 208 85 111 42 154 b 71 278 42 236 53 260 b 42 347 53 296 42 319 b 139 444 42 401 85 444 b 236 347 193 444 236 401 b 207 278 236 319 225 296 b 236 208 225 260 236 236 m 278 167 b 375 69 332 167 375 124 b 278 -28 375 15 332 -28 b 181 69 224 -28 181 15 b 278 167 181 124 224 167 "},"K":{"ha":556,"x_min":0,"x_max":0,"o":"m 207 139 b 236 69 225 121 236 97 b 139 -28 236 15 193 -28 b 42 69 85 -28 42 15 b 71 139 42 97 53 121 b 42 208 53 157 42 181 b 71 278 42 236 53 260 b 42 347 53 296 42 319 b 71 417 42 375 53 399 b 42 486 53 435 42 458 b 71 556 42 514 53 538 b 42 625 53 574 42 597 b 139 722 42 679 85 722 b 236 625 193 722 236 679 b 207 556 236 597 225 574 l 208 554 b 278 583 226 572 250 583 b 375 486 332 583 375 540 b 278 389 375 432 332 389 b 208 418 250 389 226 400 l 207 417 b 236 347 225 399 236 375 b 207 278 236 319 225 296 l 208 276 b 278 306 226 294 250 306 b 375 208 332 306 375 263 b 278 111 375 154 332 111 b 208 140 250 111 226 122 m 417 528 b 319 625 363 528 319 571 b 417 722 319 679 363 722 b 514 625 471 722 514 679 b 417 528 514 571 471 528 m 417 167 b 514 69 471 167 514 124 b 417 -28 514 15 471 -28 b 319 69 363 -28 319 15 b 417 167 319 124 363 167 "},"Ķ":{"ha":556,"x_min":0,"x_max":0,"o":"m 42 69 b 71 139 42 97 53 121 b 42 208 53 157 42 181 b 71 278 42 236 53 260 b 42 347 53 296 42 319 b 71 417 42 375 53 399 b 42 486 53 435 42 458 b 71 556 42 514 53 538 b 42 625 53 574 42 597 b 139 722 42 679 85 722 b 236 625 193 722 236 679 b 207 556 236 597 225 574 l 208 554 b 278 583 226 572 250 583 b 375 486 332 583 375 540 b 278 389 375 432 332 389 b 208 418 250 389 226 400 l 207 417 b 236 347 225 399 236 375 b 207 278 236 319 225 296 l 208 276 b 278 306 226 294 250 306 b 375 208 332 306 375 263 b 278 111 375 154 332 111 b 208 140 250 111 226 122 l 207 139 b 236 69 225 121 236 97 b 139 -28 236 15 193 -28 b 42 69 85 -28 42 15 m 417 528 b 319 625 363 528 319 571 b 417 722 319 679 363 722 b 514 625 471 722 514 679 b 417 528 514 571 471 528 m 417 167 b 514 69 471 167 514 124 b 417 -28 514 15 471 -28 b 319 69 363 -28 319 15 b 417 167 319 124 363 167 m 375 -208 b 346 -278 375 -236 364 -260 b 375 -347 364 -296 375 -319 b 278 -444 375 -401 332 -444 b 181 -347 224 -444 181 -401 b 210 -278 181 -319 192 -296 l 208 -276 b 139 -306 190 -294 167 -306 b 42 -208 85 -306 42 -262 b 139 -111 42 -154 85 -111 b 208 -140 167 -111 190 -122 b 278 -111 226 -122 250 -111 b 375 -208 332 -111 375 -154 m 139 -389 b 236 -486 193 -389 236 -432 b 139 -583 236 -540 193 -583 b 42 -486 85 -583 42 -540 b 139 -389 42 -432 85 -389 "},"L":{"ha":417,"x_min":0,"x_max":0,"o":"m 278 167 b 375 69 332 167 375 124 b 278 -28 375 15 332 -28 b 208 1 250 -28 226 -17 b 139 -28 190 -17 167 -28 b 42 69 85 -28 42 15 b 71 139 42 97 53 121 b 42 208 53 157 42 181 b 71 278 42 236 53 260 b 42 347 53 296 42 319 b 71 417 42 375 53 399 b 42 486 53 435 42 458 b 71 556 42 514 53 538 b 42 625 53 574 42 597 b 139 722 42 679 85 722 b 236 625 193 722 236 679 b 207 556 236 597 225 574 b 236 486 225 538 236 514 b 207 417 236 458 225 435 b 236 347 225 399 236 375 b 207 278 236 319 225 296 b 236 208 225 260 236 236 b 207 139 236 181 225 157 l 208 138 b 278 167 226 156 250 167 "},"Ĺ":{"ha":417,"x_min":0,"x_max":0,"o":"m 278 944 b 181 1042 224 944 181 988 b 278 1139 181 1096 224 1139 b 375 1042 332 1139 375 1096 b 278 944 375 988 332 944 m 139 806 b 42 903 85 806 42 849 b 139 1000 42 957 85 1000 b 236 903 193 1000 236 957 b 139 806 236 849 193 806 m 278 167 b 375 69 332 167 375 124 b 278 -28 375 15 332 -28 b 208 1 250 -28 226 -17 b 139 -28 190 -17 167 -28 b 42 69 85 -28 42 15 b 71 139 42 97 53 121 b 42 208 53 157 42 181 b 71 278 42 236 53 260 b 42 347 53 296 42 319 b 71 417 42 375 53 399 b 42 486 53 435 42 458 b 71 556 42 514 53 538 b 42 625 53 574 42 597 b 139 722 42 679 85 722 b 236 625 193 722 236 679 b 207 556 236 597 225 574 b 236 486 225 538 236 514 b 207 417 236 458 225 435 b 236 347 225 399 236 375 b 207 278 236 319 225 296 b 236 208 225 260 236 236 b 207 139 236 181 225 157 l 208 138 b 278 167 226 156 250 167 "},"Ľ":{"ha":694,"x_min":0,"x_max":0,"o":"m 278 167 b 375 69 332 167 375 124 b 278 -28 375 15 332 -28 b 208 1 250 -28 226 -17 b 139 -28 190 -17 167 -28 b 42 69 85 -28 42 15 b 71 139 42 97 53 121 b 42 208 53 157 42 181 b 71 278 42 236 53 260 b 42 347 53 296 42 319 b 71 417 42 375 53 399 b 42 486 53 435 42 458 b 71 556 42 514 53 538 b 42 625 53 574 42 597 b 139 722 42 679 85 722 b 236 625 193 722 236 679 b 207 556 236 597 225 574 b 236 486 225 538 236 514 b 207 417 236 458 225 435 b 236 347 225 399 236 375 b 207 278 236 319 225 296 b 236 208 225 260 236 236 b 207 139 236 181 225 157 l 208 138 b 278 167 226 156 250 167 m 624 556 b 653 486 642 538 653 514 b 556 389 653 432 610 389 b 458 486 501 389 458 432 b 488 556 458 514 469 538 l 486 557 b 417 528 468 539 444 528 b 319 625 363 528 319 571 b 417 722 319 679 363 722 b 486 693 444 722 468 711 b 556 722 504 711 528 722 b 653 625 610 722 653 679 b 624 556 653 597 642 574 m 417 444 b 514 347 471 444 514 401 b 417 250 514 293 471 250 b 319 347 363 250 319 293 b 417 444 319 401 363 444 "},"Ļ":{"ha":417,"x_min":0,"x_max":0,"o":"m 42 69 b 71 139 42 97 53 121 b 42 208 53 157 42 181 b 71 278 42 236 53 260 b 42 347 53 296 42 319 b 71 417 42 375 53 399 b 42 486 53 435 42 458 b 71 556 42 514 53 538 b 42 625 53 574 42 597 b 139 722 42 679 85 722 b 236 625 193 722 236 679 b 207 556 236 597 225 574 b 236 486 225 538 236 514 b 207 417 236 458 225 435 b 236 347 225 399 236 375 b 207 278 236 319 225 296 b 236 208 225 260 236 236 b 207 139 236 181 225 157 l 208 138 b 278 167 226 156 250 167 b 375 69 332 167 375 124 b 278 -28 375 15 332 -28 b 208 1 250 -28 226 -17 b 139 -28 190 -17 167 -28 b 42 69 85 -28 42 15 m 375 -208 b 346 -278 375 -236 364 -260 b 375 -347 364 -296 375 -319 b 278 -444 375 -401 332 -444 b 181 -347 224 -444 181 -401 b 210 -278 181 -319 192 -296 l 208 -276 b 139 -306 190 -294 167 -306 b 42 -208 85 -306 42 -262 b 139 -111 42 -154 85 -111 b 208 -140 167 -111 190 -122 b 278 -111 226 -122 250 -111 b 375 -208 332 -111 375 -154 m 139 -389 b 236 -486 193 -389 236 -432 b 139 -583 236 -540 193 -583 b 42 -486 85 -583 42 -540 b 139 -389 42 -432 85 -389 "},"Ł":{"ha":556,"x_min":0,"x_max":0,"o":"m 417 167 b 514 69 471 167 514 124 b 417 -28 514 15 471 -28 b 347 1 389 -28 365 -17 b 278 -28 329 -17 306 -28 b 181 69 224 -28 181 15 b 210 139 181 97 192 121 b 181 208 192 157 181 181 b 210 278 181 236 192 260 l 208 279 b 139 250 190 261 167 250 b 42 347 85 250 42 293 b 139 444 42 401 85 444 b 208 415 167 444 190 433 l 210 417 b 181 486 192 435 181 458 b 210 556 181 514 192 538 b 181 625 192 574 181 597 b 278 722 181 679 224 722 b 375 625 332 722 375 679 b 346 556 375 597 364 574 l 347 554 b 417 583 365 572 389 583 b 514 486 471 583 514 540 b 417 389 514 432 471 389 b 347 418 389 389 365 400 l 346 417 b 375 347 364 399 375 375 b 346 278 375 319 364 296 b 375 208 364 260 375 236 b 346 139 375 181 364 157 l 347 138 b 417 167 365 156 389 167 "},"M":{"ha":833,"x_min":0,"x_max":0,"o":"m 207 417 b 236 347 225 399 236 375 b 207 278 236 319 225 296 b 236 208 225 260 236 236 b 207 139 236 181 225 157 b 236 69 225 121 236 97 b 139 -28 236 15 193 -28 b 42 69 85 -28 42 15 b 71 139 42 97 53 121 b 42 208 53 157 42 181 b 71 278 42 236 53 260 b 42 347 53 296 42 319 b 71 417 42 375 53 399 b 42 486 53 435 42 458 b 71 556 42 514 53 538 b 42 625 53 574 42 597 b 139 722 42 679 85 722 b 236 625 193 722 236 679 b 207 556 236 597 225 574 l 208 554 b 278 583 226 572 250 583 b 375 486 332 583 375 540 b 278 389 375 432 332 389 b 208 418 250 389 226 400 m 792 486 b 763 417 792 458 781 435 b 792 347 781 399 792 375 b 763 278 792 319 781 296 b 792 208 781 260 792 236 b 763 139 792 181 781 157 b 792 69 781 121 792 97 b 694 -28 792 15 749 -28 b 597 69 640 -28 597 15 b 626 139 597 97 608 121 b 597 208 608 157 597 181 b 626 278 597 236 608 260 b 597 347 608 296 597 319 b 626 417 597 375 608 399 l 625 418 b 556 389 607 400 583 389 b 458 486 501 389 458 432 b 556 583 458 540 501 583 b 625 554 583 583 607 572 l 626 556 b 597 625 608 574 597 597 b 694 722 597 679 640 722 b 792 625 749 722 792 679 b 763 556 792 597 781 574 b 792 486 781 538 792 514 m 417 444 b 514 347 471 444 514 401 b 417 250 514 293 471 250 b 319 347 363 250 319 293 b 417 444 319 401 363 444 "},"N":{"ha":556,"x_min":0,"x_max":0,"o":"m 207 556 b 236 486 225 538 236 514 b 207 417 236 458 225 435 b 236 347 225 399 236 375 b 207 278 236 319 225 296 b 236 208 225 260 236 236 b 207 139 236 181 225 157 b 236 69 225 121 236 97 b 139 -28 236 15 193 -28 b 42 69 85 -28 42 15 b 71 139 42 97 53 121 b 42 208 53 157 42 181 b 71 278 42 236 53 260 b 42 347 53 296 42 319 b 71 417 42 375 53 399 b 42 486 53 435 42 458 b 71 556 42 514 53 538 b 42 625 53 574 42 597 b 139 722 42 679 85 722 b 208 693 167 722 190 711 b 278 722 226 711 250 722 b 375 625 332 722 375 679 b 278 528 375 571 332 528 b 208 557 250 528 226 539 m 514 347 b 485 278 514 319 503 296 b 514 208 503 260 514 236 b 485 139 514 181 503 157 b 514 69 503 121 514 97 b 417 -28 514 15 471 -28 b 319 69 363 -28 319 15 b 349 139 319 97 331 121 b 319 208 331 157 319 181 b 349 278 319 236 331 260 b 319 347 331 296 319 319 b 349 417 319 375 331 399 b 319 486 331 435 319 458 b 417 583 319 540 363 583 b 514 486 471 583 514 540 b 485 417 514 458 503 435 b 514 347 503 399 514 375 "},"Ń":{"ha":556,"x_min":0,"x_max":0,"o":"m 417 944 b 319 1042 363 944 319 988 b 417 1139 319 1096 363 1139 b 514 1042 471 1139 514 1096 b 417 944 514 988 471 944 m 278 806 b 181 903 224 806 181 849 b 278 1000 181 957 224 1000 b 375 903 332 1000 375 957 b 278 806 375 849 332 806 m 207 556 b 236 486 225 538 236 514 b 207 417 236 458 225 435 b 236 347 225 399 236 375 b 207 278 236 319 225 296 b 236 208 225 260 236 236 b 207 139 236 181 225 157 b 236 69 225 121 236 97 b 139 -28 236 15 193 -28 b 42 69 85 -28 42 15 b 71 139 42 97 53 121 b 42 208 53 157 42 181 b 71 278 42 236 53 260 b 42 347 53 296 42 319 b 71 417 42 375 53 399 b 42 486 53 435 42 458 b 71 556 42 514 53 538 b 42 625 53 574 42 597 b 139 722 42 679 85 722 b 208 693 167 722 190 711 b 278 722 226 711 250 722 b 375 625 332 722 375 679 b 278 528 375 571 332 528 b 208 557 250 528 226 539 m 514 486 b 485 417 514 458 503 435 b 514 347 503 399 514 375 b 485 278 514 319 503 296 b 514 208 503 260 514 236 b 485 139 514 181 503 157 b 514 69 503 121 514 97 b 417 -28 514 15 471 -28 b 319 69 363 -28 319 15 b 349 139 319 97 331 121 b 319 208 331 157 319 181 b 349 278 319 236 331 260 b 319 347 331 296 319 319 b 349 417 319 375 331 399 b 319 486 331 435 319 458 b 417 583 319 540 363 583 b 514 486 471 583 514 540 "},"Ň":{"ha":556,"x_min":0,"x_max":0,"o":"m 139 944 b 42 1042 85 944 42 988 b 139 1139 42 1096 85 1139 b 236 1042 193 1139 236 1096 b 139 944 236 988 193 944 m 417 944 b 319 1042 363 944 319 988 b 417 1139 319 1096 363 1139 b 514 1042 471 1139 514 1096 b 417 944 514 988 471 944 m 181 903 b 278 1000 181 957 224 1000 b 375 903 332 1000 375 957 b 278 806 375 849 332 806 b 181 903 224 806 181 849 m 207 556 b 236 486 225 538 236 514 b 207 417 236 458 225 435 b 236 347 225 399 236 375 b 207 278 236 319 225 296 b 236 208 225 260 236 236 b 207 139 236 181 225 157 b 236 69 225 121 236 97 b 139 -28 236 15 193 -28 b 42 69 85 -28 42 15 b 71 139 42 97 53 121 b 42 208 53 157 42 181 b 71 278 42 236 53 260 b 42 347 53 296 42 319 b 71 417 42 375 53 399 b 42 486 53 435 42 458 b 71 556 42 514 53 538 b 42 625 53 574 42 597 b 139 722 42 679 85 722 b 208 693 167 722 190 711 b 278 722 226 711 250 722 b 375 625 332 722 375 679 b 278 528 375 571 332 528 b 208 557 250 528 226 539 m 514 486 b 485 417 514 458 503 435 b 514 347 503 399 514 375 b 485 278 514 319 503 296 b 514 208 503 260 514 236 b 485 139 514 181 503 157 b 514 69 503 121 514 97 b 417 -28 514 15 471 -28 b 319 69 363 -28 319 15 b 349 139 319 97 331 121 b 319 208 331 157 319 181 b 349 278 319 236 331 260 b 319 347 331 296 319 319 b 349 417 319 375 331 399 b 319 486 331 435 319 458 b 417 583 319 540 363 583 b 514 486 471 583 514 540 "},"Ņ":{"ha":556,"x_min":0,"x_max":0,"o":"m 42 69 b 71 139 42 97 53 121 b 42 208 53 157 42 181 b 71 278 42 236 53 260 b 42 347 53 296 42 319 b 71 417 42 375 53 399 b 42 486 53 435 42 458 b 71 556 42 514 53 538 b 42 625 53 574 42 597 b 139 722 42 679 85 722 b 208 693 167 722 190 711 b 278 722 226 711 250 722 b 375 625 332 722 375 679 b 278 528 375 571 332 528 b 208 557 250 528 226 539 l 207 556 b 236 486 225 538 236 514 b 207 417 236 458 225 435 b 236 347 225 399 236 375 b 207 278 236 319 225 296 b 236 208 225 260 236 236 b 207 139 236 181 225 157 b 236 69 225 121 236 97 b 139 -28 236 15 193 -28 b 42 69 85 -28 42 15 m 514 347 b 485 278 514 319 503 296 b 514 208 503 260 514 236 b 485 139 514 181 503 157 b 514 69 503 121 514 97 b 417 -28 514 15 471 -28 b 319 69 363 -28 319 15 b 349 139 319 97 331 121 b 319 208 331 157 319 181 b 349 278 319 236 331 260 b 319 347 331 296 319 319 b 349 417 319 375 331 399 b 319 486 331 435 319 458 b 417 583 319 540 363 583 b 514 486 471 583 514 540 b 485 417 514 458 503 435 b 514 347 503 399 514 375 m 375 -208 b 346 -278 375 -236 364 -260 b 375 -347 364 -296 375 -319 b 278 -444 375 -401 332 -444 b 181 -347 224 -444 181 -401 b 210 -278 181 -319 192 -296 l 208 -276 b 139 -306 190 -294 167 -306 b 42 -208 85 -306 42 -262 b 139 -111 42 -154 85 -111 b 208 -140 167 -111 190 -122 b 278 -111 226 -122 250 -111 b 375 -208 332 -111 375 -154 m 139 -389 b 236 -486 193 -389 236 -432 b 139 -583 236 -540 193 -583 b 42 -486 85 -583 42 -540 b 139 -389 42 -432 85 -389 "},"Ŋ":{"ha":556,"x_min":0,"x_max":0,"o":"m 236 69 b 139 -28 236 15 193 -28 b 42 69 85 -28 42 15 b 71 139 42 97 53 121 b 42 208 53 157 42 181 b 71 278 42 236 53 260 b 42 347 53 296 42 319 b 71 417 42 375 53 399 b 42 486 53 435 42 458 b 71 556 42 514 53 538 b 42 625 53 574 42 597 b 139 722 42 679 85 722 b 208 693 167 722 190 711 b 278 722 226 711 250 722 b 375 625 332 722 375 679 b 278 528 375 571 332 528 b 208 557 250 528 226 539 l 207 556 b 236 486 225 538 236 514 b 207 417 236 458 225 435 b 236 347 225 399 236 375 b 207 278 236 319 225 296 b 236 208 225 260 236 236 b 207 139 236 181 225 157 b 236 69 225 121 236 97 m 514 347 b 485 278 514 319 503 296 b 514 208 503 260 514 236 b 485 139 514 181 503 157 b 514 69 503 121 514 97 b 485 0 514 42 503 18 b 514 -69 503 -18 514 -42 b 485 -139 514 -97 503 -121 b 514 -208 503 -157 514 -181 b 417 -306 514 -262 471 -306 b 347 -276 389 -306 365 -294 b 278 -306 329 -294 306 -306 b 181 -208 224 -306 181 -262 b 278 -111 181 -154 224 -111 b 347 -140 306 -111 329 -122 l 349 -139 b 319 -69 331 -121 319 -97 b 349 0 319 -42 331 -18 b 319 69 331 18 319 42 b 349 139 319 97 331 121 b 319 208 331 157 319 181 b 349 278 319 236 331 260 b 319 347 331 296 319 319 b 349 417 319 375 331 399 b 319 486 331 435 319 458 b 417 583 319 540 363 583 b 514 486 471 583 514 540 b 485 417 514 458 503 435 b 514 347 503 399 514 375 "},"Ñ":{"ha":556,"x_min":0,"x_max":0,"o":"m 278 944 b 181 1042 224 944 181 988 b 278 1139 181 1096 224 1139 b 375 1042 332 1139 375 1096 b 278 944 375 988 332 944 m 556 1139 b 653 1042 610 1139 653 1096 b 556 944 653 988 610 944 b 458 1042 501 944 458 988 b 556 1139 458 1096 501 1139 m 139 806 b 42 903 85 806 42 849 b 139 1000 42 957 85 1000 b 236 903 193 1000 236 957 b 139 806 236 849 193 806 m 417 1000 b 514 903 471 1000 514 957 b 417 806 514 849 471 806 b 319 903 363 806 319 849 b 417 1000 319 957 363 1000 m 207 556 b 236 486 225 538 236 514 b 207 417 236 458 225 435 b 236 347 225 399 236 375 b 207 278 236 319 225 296 b 236 208 225 260 236 236 b 207 139 236 181 225 157 b 236 69 225 121 236 97 b 139 -28 236 15 193 -28 b 42 69 85 -28 42 15 b 71 139 42 97 53 121 b 42 208 53 157 42 181 b 71 278 42 236 53 260 b 42 347 53 296 42 319 b 71 417 42 375 53 399 b 42 486 53 435 42 458 b 71 556 42 514 53 538 b 42 625 53 574 42 597 b 139 722 42 679 85 722 b 208 693 167 722 190 711 b 278 722 226 711 250 722 b 375 625 332 722 375 679 b 278 528 375 571 332 528 b 208 557 250 528 226 539 m 514 486 b 485 417 514 458 503 435 b 514 347 503 399 514 375 b 485 278 514 319 503 296 b 514 208 503 260 514 236 b 485 139 514 181 503 157 b 514 69 503 121 514 97 b 417 -28 514 15 471 -28 b 319 69 363 -28 319 15 b 349 139 319 97 331 121 b 319 208 331 157 319 181 b 349 278 319 236 331 260 b 319 347 331 296 319 319 b 349 417 319 375 331 399 b 319 486 331 435 319 458 b 417 583 319 540 363 583 b 514 486 471 583 514 540 "},"O":{"ha":556,"x_min":0,"x_max":0,"o":"m 278 528 b 181 625 224 528 181 571 b 278 722 181 679 224 722 b 375 625 332 722 375 679 b 278 528 375 571 332 528 m 236 208 b 139 111 236 154 193 111 b 42 208 85 111 42 154 b 71 278 42 236 53 260 b 42 347 53 296 42 319 b 71 417 42 375 53 399 b 42 486 53 435 42 458 b 139 583 42 540 85 583 b 236 486 193 583 236 540 b 207 417 236 458 225 435 b 236 347 225 399 236 375 b 207 278 236 319 225 296 b 236 208 225 260 236 236 m 514 347 b 485 278 514 319 503 296 b 514 208 503 260 514 236 b 417 111 514 154 471 111 b 319 208 363 111 319 154 b 349 278 319 236 331 260 b 319 347 331 296 319 319 b 349 417 319 375 331 399 b 319 486 331 435 319 458 b 417 583 319 540 363 583 b 514 486 471 583 514 540 b 485 417 514 458 503 435 b 514 347 503 399 514 375 m 278 167 b 375 69 332 167 375 124 b 278 -28 375 15 332 -28 b 181 69 224 -28 181 15 b 278 167 181 124 224 167 "},"Ó":{"ha":556,"x_min":0,"x_max":0,"o":"m 417 944 b 319 1042 363 944 319 988 b 417 1139 319 1096 363 1139 b 514 1042 471 1139 514 1096 b 417 944 514 988 471 944 m 278 806 b 181 903 224 806 181 849 b 278 1000 181 957 224 1000 b 375 903 332 1000 375 957 b 278 806 375 849 332 806 m 278 528 b 181 625 224 528 181 571 b 278 722 181 679 224 722 b 375 625 332 722 375 679 b 278 528 375 571 332 528 m 236 208 b 139 111 236 154 193 111 b 42 208 85 111 42 154 b 71 278 42 236 53 260 b 42 347 53 296 42 319 b 71 417 42 375 53 399 b 42 486 53 435 42 458 b 139 583 42 540 85 583 b 236 486 193 583 236 540 b 207 417 236 458 225 435 b 236 347 225 399 236 375 b 207 278 236 319 225 296 b 236 208 225 260 236 236 m 514 486 b 485 417 514 458 503 435 b 514 347 503 399 514 375 b 485 278 514 319 503 296 b 514 208 503 260 514 236 b 417 111 514 154 471 111 b 319 208 363 111 319 154 b 349 278 319 236 331 260 b 319 347 331 296 319 319 b 349 417 319 375 331 399 b 319 486 331 435 319 458 b 417 583 319 540 363 583 b 514 486 471 583 514 540 m 278 167 b 375 69 332 167 375 124 b 278 -28 375 15 332 -28 b 181 69 224 -28 181 15 b 278 167 181 124 224 167 "},"Ô":{"ha":556,"x_min":0,"x_max":0,"o":"m 278 944 b 181 1042 224 944 181 988 b 278 1139 181 1096 224 1139 b 375 1042 332 1139 375 1096 b 278 944 375 988 332 944 m 139 806 b 42 903 85 806 42 849 b 139 1000 42 957 85 1000 b 236 903 193 1000 236 957 b 139 806 236 849 193 806 m 319 903 b 417 1000 319 957 363 1000 b 514 903 471 1000 514 957 b 417 806 514 849 471 806 b 319 903 363 806 319 849 m 278 722 b 375 625 332 722 375 679 b 278 528 375 571 332 528 b 181 625 224 528 181 571 b 278 722 181 679 224 722 m 236 208 b 139 111 236 154 193 111 b 42 208 85 111 42 154 b 71 278 42 236 53 260 b 42 347 53 296 42 319 b 71 417 42 375 53 399 b 42 486 53 435 42 458 b 139 583 42 540 85 583 b 236 486 193 583 236 540 b 207 417 236 458 225 435 b 236 347 225 399 236 375 b 207 278 236 319 225 296 b 236 208 225 260 236 236 m 514 486 b 485 417 514 458 503 435 b 514 347 503 399 514 375 b 485 278 514 319 503 296 b 514 208 503 260 514 236 b 417 111 514 154 471 111 b 319 208 363 111 319 154 b 349 278 319 236 331 260 b 319 347 331 296 319 319 b 349 417 319 375 331 399 b 319 486 331 435 319 458 b 417 583 319 540 363 583 b 514 486 471 583 514 540 m 278 167 b 375 69 332 167 375 124 b 278 -28 375 15 332 -28 b 181 69 224 -28 181 15 b 278 167 181 124 224 167 "},"Ö":{"ha":556,"x_min":0,"x_max":0,"o":"m 139 806 b 42 903 85 806 42 849 b 139 1000 42 957 85 1000 b 236 903 193 1000 236 957 b 139 806 236 849 193 806 m 417 806 b 319 903 363 806 319 849 b 417 1000 319 957 363 1000 b 514 903 471 1000 514 957 b 417 806 514 849 471 806 m 181 625 b 278 722 181 679 224 722 b 375 625 332 722 375 679 b 278 528 375 571 332 528 b 181 625 224 528 181 571 m 236 208 b 139 111 236 154 193 111 b 42 208 85 111 42 154 b 71 278 42 236 53 260 b 42 347 53 296 42 319 b 71 417 42 375 53 399 b 42 486 53 435 42 458 b 139 583 42 540 85 583 b 236 486 193 583 236 540 b 207 417 236 458 225 435 b 236 347 225 399 236 375 b 207 278 236 319 225 296 b 236 208 225 260 236 236 m 514 486 b 485 417 514 458 503 435 b 514 347 503 399 514 375 b 485 278 514 319 503 296 b 514 208 503 260 514 236 b 417 111 514 154 471 111 b 319 208 363 111 319 154 b 349 278 319 236 331 260 b 319 347 331 296 319 319 b 349 417 319 375 331 399 b 319 486 331 435 319 458 b 417 583 319 540 363 583 b 514 486 471 583 514 540 m 278 167 b 375 69 332 167 375 124 b 278 -28 375 15 332 -28 b 181 69 224 -28 181 15 b 278 167 181 124 224 167 "},"Ò":{"ha":556,"x_min":0,"x_max":0,"o":"m 139 944 b 42 1042 85 944 42 988 b 139 1139 42 1096 85 1139 b 236 1042 193 1139 236 1096 b 139 944 236 988 193 944 m 181 903 b 278 1000 181 957 224 1000 b 375 903 332 1000 375 957 b 278 806 375 849 332 806 b 181 903 224 806 181 849 m 278 722 b 375 625 332 722 375 679 b 278 528 375 571 332 528 b 181 625 224 528 181 571 b 278 722 181 679 224 722 m 236 208 b 139 111 236 154 193 111 b 42 208 85 111 42 154 b 71 278 42 236 53 260 b 42 347 53 296 42 319 b 71 417 42 375 53 399 b 42 486 53 435 42 458 b 139 583 42 540 85 583 b 236 486 193 583 236 540 b 207 417 236 458 225 435 b 236 347 225 399 236 375 b 207 278 236 319 225 296 b 236 208 225 260 236 236 m 514 347 b 485 278 514 319 503 296 b 514 208 503 260 514 236 b 417 111 514 154 471 111 b 319 208 363 111 319 154 b 349 278 319 236 331 260 b 319 347 331 296 319 319 b 349 417 319 375 331 399 b 319 486 331 435 319 458 b 417 583 319 540 363 583 b 514 486 471 583 514 540 b 485 417 514 458 503 435 b 514 347 503 399 514 375 m 278 167 b 375 69 332 167 375 124 b 278 -28 375 15 332 -28 b 181 69 224 -28 181 15 b 278 167 181 124 224 167 "},"Ő":{"ha":556,"x_min":0,"x_max":0,"o":"m 278 944 b 181 1042 224 944 181 988 b 278 1139 181 1096 224 1139 b 375 1042 332 1139 375 1096 b 278 944 375 988 332 944 m 556 1139 b 653 1042 610 1139 653 1096 b 556 944 653 988 610 944 b 458 1042 501 944 458 988 b 556 1139 458 1096 501 1139 m 139 806 b 42 903 85 806 42 849 b 139 1000 42 957 85 1000 b 236 903 193 1000 236 957 b 139 806 236 849 193 806 m 417 1000 b 514 903 471 1000 514 957 b 417 806 514 849 471 806 b 319 903 363 806 319 849 b 417 1000 319 957 363 1000 m 181 625 b 278 722 181 679 224 722 b 375 625 332 722 375 679 b 278 528 375 571 332 528 b 181 625 224 528 181 571 m 236 208 b 139 111 236 154 193 111 b 42 208 85 111 42 154 b 71 278 42 236 53 260 b 42 347 53 296 42 319 b 71 417 42 375 53 399 b 42 486 53 435 42 458 b 139 583 42 540 85 583 b 236 486 193 583 236 540 b 207 417 236 458 225 435 b 236 347 225 399 236 375 b 207 278 236 319 225 296 b 236 208 225 260 236 236 m 514 486 b 485 417 514 458 503 435 b 514 347 503 399 514 375 b 485 278 514 319 503 296 b 514 208 503 260 514 236 b 417 111 514 154 471 111 b 319 208 363 111 319 154 b 349 278 319 236 331 260 b 319 347 331 296 319 319 b 349 417 319 375 331 399 b 319 486 331 435 319 458 b 417 583 319 540 363 583 b 514 486 471 583 514 540 m 278 167 b 375 69 332 167 375 124 b 278 -28 375 15 332 -28 b 181 69 224 -28 181 15 b 278 167 181 124 224 167 "},"Ō":{"ha":556,"x_min":0,"x_max":0,"o":"m 139 806 b 42 903 85 806 42 849 b 139 1000 42 957 85 1000 b 208 971 167 1000 190 989 b 278 1000 226 989 250 1000 b 347 971 306 1000 329 989 b 417 1000 365 989 389 1000 b 514 903 471 1000 514 957 b 417 806 514 849 471 806 b 347 835 389 806 365 817 b 278 806 329 817 306 806 b 208 835 250 806 226 817 b 139 806 190 817 167 806 m 278 722 b 375 625 332 722 375 679 b 278 528 375 571 332 528 b 181 625 224 528 181 571 b 278 722 181 679 224 722 m 236 208 b 139 111 236 154 193 111 b 42 208 85 111 42 154 b 71 278 42 236 53 260 b 42 347 53 296 42 319 b 71 417 42 375 53 399 b 42 486 53 435 42 458 b 139 583 42 540 85 583 b 236 486 193 583 236 540 b 207 417 236 458 225 435 b 236 347 225 399 236 375 b 207 278 236 319 225 296 b 236 208 225 260 236 236 m 514 486 b 485 417 514 458 503 435 b 514 347 503 399 514 375 b 485 278 514 319 503 296 b 514 208 503 260 514 236 b 417 111 514 154 471 111 b 319 208 363 111 319 154 b 349 278 319 236 331 260 b 319 347 331 296 319 319 b 349 417 319 375 331 399 b 319 486 331 435 319 458 b 417 583 319 540 363 583 b 514 486 471 583 514 540 m 278 167 b 375 69 332 167 375 124 b 278 -28 375 15 332 -28 b 181 69 224 -28 181 15 b 278 167 181 124 224 167 "},"Ø":{"ha":833,"x_min":0,"x_max":0,"o":"m 278 528 b 181 625 224 528 181 571 b 278 722 181 679 224 722 b 347 693 306 722 329 711 b 417 722 365 711 389 722 b 514 625 471 722 514 679 b 417 528 514 571 471 528 b 347 557 389 528 365 539 b 278 528 329 539 306 528 m 694 528 b 597 625 640 528 597 571 b 694 722 597 679 640 722 b 792 625 749 722 792 679 b 694 528 792 571 749 528 m 42 347 b 71 417 42 375 53 399 b 42 486 53 435 42 458 b 139 583 42 540 85 583 b 236 486 193 583 236 540 b 207 417 236 458 225 435 b 236 347 225 399 236 375 b 139 250 236 293 193 250 b 42 347 85 250 42 293 m 458 486 b 556 583 458 540 501 583 b 653 486 610 583 653 540 b 556 389 653 432 610 389 b 458 486 501 389 458 432 m 417 444 b 514 347 471 444 514 401 b 417 250 514 293 471 250 b 319 347 363 250 319 293 b 417 444 319 401 363 444 m 792 347 b 763 278 792 319 781 296 b 792 208 781 260 792 236 b 694 111 792 154 749 111 b 597 208 640 111 597 154 b 626 278 597 236 608 260 b 597 347 608 296 597 319 b 694 444 597 401 640 444 b 792 347 749 444 792 401 m 375 208 b 278 111 375 154 332 111 b 181 208 224 111 181 154 b 278 306 181 263 224 306 b 375 208 332 306 375 263 m 139 167 b 236 69 193 167 236 124 b 139 -28 236 15 193 -28 b 42 69 85 -28 42 15 b 139 167 42 124 85 167 m 556 167 b 653 69 610 167 653 124 b 556 -28 653 15 610 -28 b 486 1 528 -28 504 -17 b 417 -28 468 -17 444 -28 b 319 69 363 -28 319 15 b 417 167 319 124 363 167 b 486 138 444 167 468 156 b 556 167 504 156 528 167 "},"Õ":{"ha":556,"x_min":0,"x_max":0,"o":"m 278 944 b 181 1042 224 944 181 988 b 278 1139 181 1096 224 1139 b 375 1042 332 1139 375 1096 b 278 944 375 988 332 944 m 556 1139 b 653 1042 610 1139 653 1096 b 556 944 653 988 610 944 b 458 1042 501 944 458 988 b 556 1139 458 1096 501 1139 m 139 806 b 42 903 85 806 42 849 b 139 1000 42 957 85 1000 b 236 903 193 1000 236 957 b 139 806 236 849 193 806 m 417 1000 b 514 903 471 1000 514 957 b 417 806 514 849 471 806 b 319 903 363 806 319 849 b 417 1000 319 957 363 1000 m 181 625 b 278 722 181 679 224 722 b 375 625 332 722 375 679 b 278 528 375 571 332 528 b 181 625 224 528 181 571 m 236 208 b 139 111 236 154 193 111 b 42 208 85 111 42 154 b 71 278 42 236 53 260 b 42 347 53 296 42 319 b 71 417 42 375 53 399 b 42 486 53 435 42 458 b 139 583 42 540 85 583 b 236 486 193 583 236 540 b 207 417 236 458 225 435 b 236 347 225 399 236 375 b 207 278 236 319 225 296 b 236 208 225 260 236 236 m 514 486 b 485 417 514 458 503 435 b 514 347 503 399 514 375 b 485 278 514 319 503 296 b 514 208 503 260 514 236 b 417 111 514 154 471 111 b 319 208 363 111 319 154 b 349 278 319 236 331 260 b 319 347 331 296 319 319 b 349 417 319 375 331 399 b 319 486 331 435 319 458 b 417 583 319 540 363 583 b 514 486 471 583 514 540 m 278 167 b 375 69 332 167 375 124 b 278 -28 375 15 332 -28 b 181 69 224 -28 181 15 b 278 167 181 124 224 167 "},"Œ":{"ha":694,"x_min":0,"x_max":0,"o":"m 485 278 b 514 208 503 260 514 236 b 485 139 514 181 503 157 l 486 138 b 556 167 504 156 528 167 b 653 69 610 167 653 124 b 556 -28 653 15 610 -28 b 486 1 528 -28 504 -17 b 417 -28 468 -17 444 -28 b 347 1 389 -28 365 -17 b 278 -28 329 -17 306 -28 b 181 69 224 -28 181 15 b 278 167 181 124 224 167 b 347 138 306 167 329 156 l 349 139 b 319 208 331 157 319 181 b 349 278 319 236 331 260 b 319 347 331 296 319 319 b 349 417 319 375 331 399 b 319 486 331 435 319 458 b 349 556 319 514 331 538 l 347 557 b 278 528 329 539 306 528 b 181 625 224 528 181 571 b 278 722 181 679 224 722 b 347 693 306 722 329 711 b 417 722 365 711 389 722 b 486 693 444 722 468 711 b 556 722 504 711 528 722 b 653 625 610 722 653 679 b 556 528 653 571 610 528 b 486 557 528 528 504 539 l 485 556 b 514 486 503 538 514 514 b 485 417 514 458 503 435 l 486 415 b 556 444 504 433 528 444 b 653 347 610 444 653 401 b 556 250 653 293 610 250 b 486 279 528 250 504 261 m 236 208 b 139 111 236 154 193 111 b 42 208 85 111 42 154 b 71 278 42 236 53 260 b 42 347 53 296 42 319 b 71 417 42 375 53 399 b 42 486 53 435 42 458 b 139 583 42 540 85 583 b 236 486 193 583 236 540 b 207 417 236 458 225 435 b 236 347 225 399 236 375 b 207 278 236 319 225 296 b 236 208 225 260 236 236 "},"P":{"ha":556,"x_min":0,"x_max":0,"o":"m 278 444 b 375 347 332 444 375 401 b 278 250 375 293 332 250 b 208 279 250 250 226 261 l 207 278 b 236 208 225 260 236 236 b 207 139 236 181 225 157 b 236 69 225 121 236 97 b 139 -28 236 15 193 -28 b 42 69 85 -28 42 15 b 71 139 42 97 53 121 b 42 208 53 157 42 181 b 71 278 42 236 53 260 b 42 347 53 296 42 319 b 71 417 42 375 53 399 b 42 486 53 435 42 458 b 71 556 42 514 53 538 b 42 625 53 574 42 597 b 139 722 42 679 85 722 b 208 693 167 722 190 711 b 278 722 226 711 250 722 b 375 625 332 722 375 679 b 278 528 375 571 332 528 b 208 557 250 528 226 539 l 207 556 b 236 486 225 538 236 514 b 207 417 236 458 225 435 l 208 415 b 278 444 226 433 250 444 m 417 583 b 514 486 471 583 514 540 b 417 389 514 432 471 389 b 319 486 363 389 319 432 b 417 583 319 540 363 583 "},"Þ":{"ha":556,"x_min":0,"x_max":0,"o":"m 278 306 b 375 208 332 306 375 263 b 278 111 375 154 332 111 b 208 140 250 111 226 122 l 207 139 b 236 69 225 121 236 97 b 139 -28 236 15 193 -28 b 42 69 85 -28 42 15 b 71 139 42 97 53 121 b 42 208 53 157 42 181 b 71 278 42 236 53 260 b 42 347 53 296 42 319 b 71 417 42 375 53 399 b 42 486 53 435 42 458 b 71 556 42 514 53 538 b 42 625 53 574 42 597 b 139 722 42 679 85 722 b 236 625 193 722 236 679 b 207 556 236 597 225 574 l 208 554 b 278 583 226 572 250 583 b 375 486 332 583 375 540 b 278 389 375 432 332 389 b 208 418 250 389 226 400 l 207 417 b 236 347 225 399 236 375 b 207 278 236 319 225 296 l 208 276 b 278 306 226 294 250 306 m 417 444 b 514 347 471 444 514 401 b 417 250 514 293 471 250 b 319 347 363 250 319 293 b 417 444 319 401 363 444 "},"Q":{"ha":556,"x_min":0,"x_max":0,"o":"m 278 528 b 181 625 224 528 181 571 b 278 722 181 679 224 722 b 375 625 332 722 375 679 b 278 528 375 571 332 528 m 417 167 b 514 69 471 167 514 124 b 417 -28 514 15 471 -28 b 347 1 389 -28 365 -17 b 278 -28 329 -17 306 -28 b 181 69 224 -28 181 15 b 210 139 181 97 192 121 l 208 140 b 139 111 190 122 167 111 b 42 208 85 111 42 154 b 71 278 42 236 53 260 b 42 347 53 296 42 319 b 71 417 42 375 53 399 b 42 486 53 435 42 458 b 139 583 42 540 85 583 b 236 486 193 583 236 540 b 207 417 236 458 225 435 b 236 347 225 399 236 375 b 207 278 236 319 225 296 l 208 276 b 278 306 226 294 250 306 b 375 208 332 306 375 263 b 346 139 375 181 364 157 l 347 138 b 417 167 365 156 389 167 m 485 417 b 514 347 503 399 514 375 b 417 250 514 293 471 250 b 319 347 363 250 319 293 b 349 417 319 375 331 399 b 319 486 331 435 319 458 b 417 583 319 540 363 583 b 514 486 471 583 514 540 b 485 417 514 458 503 435 "},"R":{"ha":556,"x_min":0,"x_max":0,"o":"m 207 278 b 236 208 225 260 236 236 b 207 139 236 181 225 157 b 236 69 225 121 236 97 b 139 -28 236 15 193 -28 b 42 69 85 -28 42 15 b 71 139 42 97 53 121 b 42 208 53 157 42 181 b 71 278 42 236 53 260 b 42 347 53 296 42 319 b 71 417 42 375 53 399 b 42 486 53 435 42 458 b 71 556 42 514 53 538 b 42 625 53 574 42 597 b 139 722 42 679 85 722 b 208 693 167 722 190 711 b 278 722 226 711 250 722 b 375 625 332 722 375 679 b 278 528 375 571 332 528 b 208 557 250 528 226 539 l 207 556 b 236 486 225 538 236 514 b 207 417 236 458 225 435 l 208 415 b 278 444 226 433 250 444 b 375 347 332 444 375 401 b 278 250 375 293 332 250 b 208 279 250 250 226 261 m 319 486 b 417 583 319 540 363 583 b 514 486 471 583 514 540 b 417 389 514 432 471 389 b 319 486 363 389 319 432 m 514 208 b 485 139 514 181 503 157 b 514 69 503 121 514 97 b 417 -28 514 15 471 -28 b 319 69 363 -28 319 15 b 349 139 319 97 331 121 b 319 208 331 157 319 181 b 417 306 319 263 363 306 b 514 208 471 306 514 263 "},"Ŕ":{"ha":556,"x_min":0,"x_max":0,"o":"m 417 944 b 319 1042 363 944 319 988 b 417 1139 319 1096 363 1139 b 514 1042 471 1139 514 1096 b 417 944 514 988 471 944 m 278 806 b 181 903 224 806 181 849 b 278 1000 181 957 224 1000 b 375 903 332 1000 375 957 b 278 806 375 849 332 806 m 207 278 b 236 208 225 260 236 236 b 207 139 236 181 225 157 b 236 69 225 121 236 97 b 139 -28 236 15 193 -28 b 42 69 85 -28 42 15 b 71 139 42 97 53 121 b 42 208 53 157 42 181 b 71 278 42 236 53 260 b 42 347 53 296 42 319 b 71 417 42 375 53 399 b 42 486 53 435 42 458 b 71 556 42 514 53 538 b 42 625 53 574 42 597 b 139 722 42 679 85 722 b 208 693 167 722 190 711 b 278 722 226 711 250 722 b 375 625 332 722 375 679 b 278 528 375 571 332 528 b 208 557 250 528 226 539 l 207 556 b 236 486 225 538 236 514 b 207 417 236 458 225 435 l 208 415 b 278 444 226 433 250 444 b 375 347 332 444 375 401 b 278 250 375 293 332 250 b 208 279 250 250 226 261 m 417 583 b 514 486 471 583 514 540 b 417 389 514 432 471 389 b 319 486 363 389 319 432 b 417 583 319 540 363 583 m 514 208 b 485 139 514 181 503 157 b 514 69 503 121 514 97 b 417 -28 514 15 471 -28 b 319 69 363 -28 319 15 b 349 139 319 97 331 121 b 319 208 331 157 319 181 b 417 306 319 263 363 306 b 514 208 471 306 514 263 "},"Ř":{"ha":556,"x_min":0,"x_max":0,"o":"m 139 944 b 42 1042 85 944 42 988 b 139 1139 42 1096 85 1139 b 236 1042 193 1139 236 1096 b 139 944 236 988 193 944 m 417 944 b 319 1042 363 944 319 988 b 417 1139 319 1096 363 1139 b 514 1042 471 1139 514 1096 b 417 944 514 988 471 944 m 181 903 b 278 1000 181 957 224 1000 b 375 903 332 1000 375 957 b 278 806 375 849 332 806 b 181 903 224 806 181 849 m 207 278 b 236 208 225 260 236 236 b 207 139 236 181 225 157 b 236 69 225 121 236 97 b 139 -28 236 15 193 -28 b 42 69 85 -28 42 15 b 71 139 42 97 53 121 b 42 208 53 157 42 181 b 71 278 42 236 53 260 b 42 347 53 296 42 319 b 71 417 42 375 53 399 b 42 486 53 435 42 458 b 71 556 42 514 53 538 b 42 625 53 574 42 597 b 139 722 42 679 85 722 b 208 693 167 722 190 711 b 278 722 226 711 250 722 b 375 625 332 722 375 679 b 278 528 375 571 332 528 b 208 557 250 528 226 539 l 207 556 b 236 486 225 538 236 514 b 207 417 236 458 225 435 l 208 415 b 278 444 226 433 250 444 b 375 347 332 444 375 401 b 278 250 375 293 332 250 b 208 279 250 250 226 261 m 417 583 b 514 486 471 583 514 540 b 417 389 514 432 471 389 b 319 486 363 389 319 432 b 417 583 319 540 363 583 m 514 208 b 485 139 514 181 503 157 b 514 69 503 121 514 97 b 417 -28 514 15 471 -28 b 319 69 363 -28 319 15 b 349 139 319 97 331 121 b 319 208 331 157 319 181 b 417 306 319 263 363 306 b 514 208 471 306 514 263 "},"Ŗ":{"ha":556,"x_min":0,"x_max":0,"o":"m 42 69 b 71 139 42 97 53 121 b 42 208 53 157 42 181 b 71 278 42 236 53 260 b 42 347 53 296 42 319 b 71 417 42 375 53 399 b 42 486 53 435 42 458 b 71 556 42 514 53 538 b 42 625 53 574 42 597 b 139 722 42 679 85 722 b 208 693 167 722 190 711 b 278 722 226 711 250 722 b 375 625 332 722 375 679 b 278 528 375 571 332 528 b 208 557 250 528 226 539 l 207 556 b 236 486 225 538 236 514 b 207 417 236 458 225 435 l 208 415 b 278 444 226 433 250 444 b 375 347 332 444 375 401 b 278 250 375 293 332 250 b 208 279 250 250 226 261 l 207 278 b 236 208 225 260 236 236 b 207 139 236 181 225 157 b 236 69 225 121 236 97 b 139 -28 236 15 193 -28 b 42 69 85 -28 42 15 m 319 486 b 417 583 319 540 363 583 b 514 486 471 583 514 540 b 417 389 514 432 471 389 b 319 486 363 389 319 432 m 514 208 b 485 139 514 181 503 157 b 514 69 503 121 514 97 b 417 -28 514 15 471 -28 b 319 69 363 -28 319 15 b 349 139 319 97 331 121 b 319 208 331 157 319 181 b 417 306 319 263 363 306 b 514 208 471 306 514 263 m 375 -208 b 346 -278 375 -236 364 -260 b 375 -347 364 -296 375 -319 b 278 -444 375 -401 332 -444 b 181 -347 224 -444 181 -401 b 210 -278 181 -319 192 -296 l 208 -276 b 139 -306 190 -294 167 -306 b 42 -208 85 -306 42 -262 b 139 -111 42 -154 85 -111 b 208 -140 167 -111 190 -122 b 278 -111 226 -122 250 -111 b 375 -208 332 -111 375 -154 m 139 -389 b 236 -486 193 -389 236 -432 b 139 -583 236 -540 193 -583 b 42 -486 85 -583 42 -540 b 139 -389 42 -432 85 -389 "},"S":{"ha":556,"x_min":0,"x_max":0,"o":"m 278 528 b 181 625 224 528 181 571 b 278 722 181 679 224 722 b 347 693 306 722 329 711 b 417 722 365 711 389 722 b 514 625 471 722 514 679 b 417 528 514 571 471 528 b 347 557 389 528 365 539 b 278 528 329 539 306 528 m 139 389 b 42 486 85 389 42 432 b 139 583 42 540 85 583 b 236 486 193 583 236 540 b 139 389 236 432 193 389 m 278 444 b 375 347 332 444 375 401 b 278 250 375 293 332 250 b 181 347 224 250 181 293 b 278 444 181 401 224 444 m 417 306 b 514 208 471 306 514 263 b 417 111 514 154 471 111 b 319 208 363 111 319 154 b 417 306 319 263 363 306 m 278 167 b 375 69 332 167 375 124 b 278 -28 375 15 332 -28 b 208 1 250 -28 226 -17 b 139 -28 190 -17 167 -28 b 42 69 85 -28 42 15 b 139 167 42 124 85 167 b 208 138 167 167 190 156 b 278 167 226 156 250 167 "},"Ś":{"ha":556,"x_min":0,"x_max":0,"o":"m 417 944 b 319 1042 363 944 319 988 b 417 1139 319 1096 363 1139 b 514 1042 471 1139 514 1096 b 417 944 514 988 471 944 m 278 806 b 181 903 224 806 181 849 b 278 1000 181 957 224 1000 b 375 903 332 1000 375 957 b 278 806 375 849 332 806 m 417 722 b 514 625 471 722 514 679 b 417 528 514 571 471 528 b 347 557 389 528 365 539 b 278 528 329 539 306 528 b 181 625 224 528 181 571 b 278 722 181 679 224 722 b 347 693 306 722 329 711 b 417 722 365 711 389 722 m 139 389 b 42 486 85 389 42 432 b 139 583 42 540 85 583 b 236 486 193 583 236 540 b 139 389 236 432 193 389 m 278 250 b 181 347 224 250 181 293 b 278 444 181 401 224 444 b 375 347 332 444 375 401 b 278 250 375 293 332 250 m 417 306 b 514 208 471 306 514 263 b 417 111 514 154 471 111 b 319 208 363 111 319 154 b 417 306 319 263 363 306 m 278 167 b 375 69 332 167 375 124 b 278 -28 375 15 332 -28 b 208 1 250 -28 226 -17 b 139 -28 190 -17 167 -28 b 42 69 85 -28 42 15 b 139 167 42 124 85 167 b 208 138 167 167 190 156 b 278 167 226 156 250 167 "},"Š":{"ha":556,"x_min":0,"x_max":0,"o":"m 139 944 b 42 1042 85 944 42 988 b 139 1139 42 1096 85 1139 b 236 1042 193 1139 236 1096 b 139 944 236 988 193 944 m 417 944 b 319 1042 363 944 319 988 b 417 1139 319 1096 363 1139 b 514 1042 471 1139 514 1096 b 417 944 514 988 471 944 m 181 903 b 278 1000 181 957 224 1000 b 375 903 332 1000 375 957 b 278 806 375 849 332 806 b 181 903 224 806 181 849 m 417 722 b 514 625 471 722 514 679 b 417 528 514 571 471 528 b 347 557 389 528 365 539 b 278 528 329 539 306 528 b 181 625 224 528 181 571 b 278 722 181 679 224 722 b 347 693 306 722 329 711 b 417 722 365 711 389 722 m 139 389 b 42 486 85 389 42 432 b 139 583 42 540 85 583 b 236 486 193 583 236 540 b 139 389 236 432 193 389 m 278 250 b 181 347 224 250 181 293 b 278 444 181 401 224 444 b 375 347 332 444 375 401 b 278 250 375 293 332 250 m 417 306 b 514 208 471 306 514 263 b 417 111 514 154 471 111 b 319 208 363 111 319 154 b 417 306 319 263 363 306 m 278 167 b 375 69 332 167 375 124 b 278 -28 375 15 332 -28 b 208 1 250 -28 226 -17 b 139 -28 190 -17 167 -28 b 42 69 85 -28 42 15 b 139 167 42 124 85 167 b 208 138 167 167 190 156 b 278 167 226 156 250 167 "},"Ş":{"ha":556,"x_min":0,"x_max":0,"o":"m 278 528 b 181 625 224 528 181 571 b 278 722 181 679 224 722 b 347 693 306 722 329 711 b 417 722 365 711 389 722 b 514 625 471 722 514 679 b 417 528 514 571 471 528 b 347 557 389 528 365 539 b 278 528 329 539 306 528 m 139 389 b 42 486 85 389 42 432 b 139 583 42 540 85 583 b 236 486 193 583 236 540 b 139 389 236 432 193 389 m 278 444 b 375 347 332 444 375 401 b 278 250 375 293 332 250 b 181 347 224 250 181 293 b 278 444 181 401 224 444 m 417 306 b 514 208 471 306 514 263 b 417 111 514 154 471 111 b 319 208 363 111 319 154 b 417 306 319 263 363 306 m 375 69 b 346 0 375 42 364 18 b 375 -69 364 -18 375 -42 b 346 -139 375 -97 364 -121 b 375 -208 364 -157 375 -181 b 278 -306 375 -262 332 -306 b 208 -276 250 -306 226 -294 b 139 -306 190 -294 167 -306 b 42 -208 85 -306 42 -262 b 139 -111 42 -154 85 -111 b 208 -140 167 -111 190 -122 l 210 -139 b 181 -69 192 -121 181 -97 b 210 0 181 -42 192 -18 l 208 1 b 139 -28 190 -17 167 -28 b 42 69 85 -28 42 15 b 139 167 42 124 85 167 b 208 138 167 167 190 156 b 278 167 226 156 250 167 b 375 69 332 167 375 124 "},"Ș":{"ha":556,"x_min":0,"x_max":0,"o":"m 278 528 b 181 625 224 528 181 571 b 278 722 181 679 224 722 b 347 693 306 722 329 711 b 417 722 365 711 389 722 b 514 625 471 722 514 679 b 417 528 514 571 471 528 b 347 557 389 528 365 539 b 278 528 329 539 306 528 m 139 389 b 42 486 85 389 42 432 b 139 583 42 540 85 583 b 236 486 193 583 236 540 b 139 389 236 432 193 389 m 278 444 b 375 347 332 444 375 401 b 278 250 375 293 332 250 b 181 347 224 250 181 293 b 278 444 181 401 224 444 m 417 306 b 514 208 471 306 514 263 b 417 111 514 154 471 111 b 319 208 363 111 319 154 b 417 306 319 263 363 306 m 278 167 b 375 69 332 167 375 124 b 278 -28 375 15 332 -28 b 208 1 250 -28 226 -17 b 139 -28 190 -17 167 -28 b 42 69 85 -28 42 15 b 139 167 42 124 85 167 b 208 138 167 167 190 156 b 278 167 226 156 250 167 m 375 -208 b 346 -278 375 -236 364 -260 b 375 -347 364 -296 375 -319 b 278 -444 375 -401 332 -444 b 181 -347 224 -444 181 -401 b 210 -278 181 -319 192 -296 l 208 -276 b 139 -306 190 -294 167 -306 b 42 -208 85 -306 42 -262 b 139 -111 42 -154 85 -111 b 208 -140 167 -111 190 -122 b 278 -111 226 -122 250 -111 b 375 -208 332 -111 375 -154 m 139 -389 b 236 -486 193 -389 236 -432 b 139 -583 236 -540 193 -583 b 42 -486 85 -583 42 -540 b 139 -389 42 -432 85 -389 "},"ẞ":{"ha":694,"x_min":0,"x_max":0,"o":"m 624 556 b 653 486 642 538 653 514 b 556 389 653 432 610 389 b 458 486 501 389 458 432 b 488 556 458 514 469 538 l 486 557 b 417 528 468 539 444 528 b 347 557 389 528 365 539 b 278 528 329 539 306 528 b 181 625 224 528 181 571 b 278 722 181 679 224 722 b 347 693 306 722 329 711 b 417 722 365 711 389 722 b 486 693 444 722 468 711 b 556 722 504 711 528 722 b 653 625 610 722 653 679 b 624 556 653 597 642 574 m 236 486 b 207 417 236 458 225 435 b 236 347 225 399 236 375 b 207 278 236 319 225 296 b 236 208 225 260 236 236 b 207 139 236 181 225 157 b 236 69 225 121 236 97 b 139 -28 236 15 193 -28 b 42 69 85 -28 42 15 b 71 139 42 97 53 121 b 42 208 53 157 42 181 b 71 278 42 236 53 260 b 42 347 53 296 42 319 b 71 417 42 375 53 399 b 42 486 53 435 42 458 b 139 583 42 540 85 583 b 236 486 193 583 236 540 m 417 250 b 319 347 363 250 319 293 b 417 444 319 401 363 444 b 514 347 471 444 514 401 b 417 250 514 293 471 250 m 556 306 b 653 208 610 306 653 263 b 556 111 653 154 610 111 b 458 208 501 111 458 154 b 556 306 458 263 501 306 m 417 167 b 514 69 471 167 514 124 b 417 -28 514 15 471 -28 b 319 69 363 -28 319 15 b 417 167 319 124 363 167 "},"T":{"ha":556,"x_min":0,"x_max":0,"o":"m 417 722 b 514 625 471 722 514 679 b 417 528 514 571 471 528 b 347 557 389 528 365 539 l 346 556 b 375 486 364 538 375 514 b 346 417 375 458 364 435 b 375 347 364 399 375 375 b 346 278 375 319 364 296 b 375 208 364 260 375 236 b 346 139 375 181 364 157 b 375 69 364 121 375 97 b 278 -28 375 15 332 -28 b 181 69 224 -28 181 15 b 210 139 181 97 192 121 b 181 208 192 157 181 181 b 210 278 181 236 192 260 b 181 347 192 296 181 319 b 210 417 181 375 192 399 b 181 486 192 435 181 458 b 210 556 181 514 192 538 l 208 557 b 139 528 190 539 167 528 b 42 625 85 528 42 571 b 139 722 42 679 85 722 b 208 693 167 722 190 711 b 278 722 226 711 250 722 b 347 693 306 722 329 711 b 417 722 365 711 389 722 "},"Ŧ":{"ha":556,"x_min":0,"x_max":0,"o":"m 417 444 b 514 347 471 444 514 401 b 417 250 514 293 471 250 b 347 279 389 250 365 261 l 346 278 b 375 208 364 260 375 236 b 346 139 375 181 364 157 b 375 69 364 121 375 97 b 278 -28 375 15 332 -28 b 181 69 224 -28 181 15 b 210 139 181 97 192 121 b 181 208 192 157 181 181 b 210 278 181 236 192 260 l 208 279 b 139 250 190 261 167 250 b 42 347 85 250 42 293 b 139 444 42 401 85 444 b 208 415 167 444 190 433 l 210 417 b 181 486 192 435 181 458 b 210 556 181 514 192 538 l 208 557 b 139 528 190 539 167 528 b 42 625 85 528 42 571 b 139 722 42 679 85 722 b 208 693 167 722 190 711 b 278 722 226 711 250 722 b 347 693 306 722 329 711 b 417 722 365 711 389 722 b 514 625 471 722 514 679 b 417 528 514 571 471 528 b 347 557 389 528 365 539 l 346 556 b 375 486 364 538 375 514 b 346 417 375 458 364 435 l 347 415 b 417 444 365 433 389 444 "},"Ť":{"ha":556,"x_min":0,"x_max":0,"o":"m 139 944 b 42 1042 85 944 42 988 b 139 1139 42 1096 85 1139 b 236 1042 193 1139 236 1096 b 139 944 236 988 193 944 m 417 944 b 319 1042 363 944 319 988 b 417 1139 319 1096 363 1139 b 514 1042 471 1139 514 1096 b 417 944 514 988 471 944 m 181 903 b 278 1000 181 957 224 1000 b 375 903 332 1000 375 957 b 278 806 375 849 332 806 b 181 903 224 806 181 849 m 417 722 b 514 625 471 722 514 679 b 417 528 514 571 471 528 b 347 557 389 528 365 539 l 346 556 b 375 486 364 538 375 514 b 346 417 375 458 364 435 b 375 347 364 399 375 375 b 346 278 375 319 364 296 b 375 208 364 260 375 236 b 346 139 375 181 364 157 b 375 69 364 121 375 97 b 278 -28 375 15 332 -28 b 181 69 224 -28 181 15 b 210 139 181 97 192 121 b 181 208 192 157 181 181 b 210 278 181 236 192 260 b 181 347 192 296 181 319 b 210 417 181 375 192 399 b 181 486 192 435 181 458 b 210 556 181 514 192 538 l 208 557 b 139 528 190 539 167 528 b 42 625 85 528 42 571 b 139 722 42 679 85 722 b 208 693 167 722 190 711 b 278 722 226 711 250 722 b 347 693 306 722 329 711 b 417 722 365 711 389 722 "},"Ţ":{"ha":556,"x_min":0,"x_max":0,"o":"m 208 557 b 139 528 190 539 167 528 b 42 625 85 528 42 571 b 139 722 42 679 85 722 b 208 693 167 722 190 711 b 278 722 226 711 250 722 b 347 693 306 722 329 711 b 417 722 365 711 389 722 b 514 625 471 722 514 679 b 417 528 514 571 471 528 b 347 557 389 528 365 539 l 346 556 b 375 486 364 538 375 514 b 346 417 375 458 364 435 b 375 347 364 399 375 375 b 346 278 375 319 364 296 b 375 208 364 260 375 236 b 346 139 375 181 364 157 b 375 69 364 121 375 97 b 278 -28 375 15 332 -28 b 181 69 224 -28 181 15 b 210 139 181 97 192 121 b 181 208 192 157 181 181 b 210 278 181 236 192 260 b 181 347 192 296 181 319 b 210 417 181 375 192 399 b 181 486 192 435 181 458 b 210 556 181 514 192 538 l 208 557 m 514 -69 b 485 -139 514 -97 503 -121 b 514 -208 503 -157 514 -181 b 417 -306 514 -262 471 -306 b 347 -276 389 -306 365 -294 b 278 -306 329 -294 306 -306 b 181 -208 224 -306 181 -262 b 278 -111 181 -154 224 -111 b 347 -140 306 -111 329 -122 l 349 -139 b 319 -69 331 -121 319 -97 b 417 28 319 -15 363 28 b 514 -69 471 28 514 -15 "},"Ț":{"ha":556,"x_min":0,"x_max":0,"o":"m 417 722 b 514 625 471 722 514 679 b 417 528 514 571 471 528 b 347 557 389 528 365 539 l 346 556 b 375 486 364 538 375 514 b 346 417 375 458 364 435 b 375 347 364 399 375 375 b 346 278 375 319 364 296 b 375 208 364 260 375 236 b 346 139 375 181 364 157 b 375 69 364 121 375 97 b 278 -28 375 15 332 -28 b 181 69 224 -28 181 15 b 210 139 181 97 192 121 b 181 208 192 157 181 181 b 210 278 181 236 192 260 b 181 347 192 296 181 319 b 210 417 181 375 192 399 b 181 486 192 435 181 458 b 210 556 181 514 192 538 l 208 557 b 139 528 190 539 167 528 b 42 625 85 528 42 571 b 139 722 42 679 85 722 b 208 693 167 722 190 711 b 278 722 226 711 250 722 b 347 693 306 722 329 711 b 417 722 365 711 389 722 m 375 -208 b 346 -278 375 -236 364 -260 b 375 -347 364 -296 375 -319 b 278 -444 375 -401 332 -444 b 181 -347 224 -444 181 -401 b 210 -278 181 -319 192 -296 l 208 -276 b 139 -306 190 -294 167 -306 b 42 -208 85 -306 42 -262 b 139 -111 42 -154 85 -111 b 208 -140 167 -111 190 -122 b 278 -111 226 -122 250 -111 b 375 -208 332 -111 375 -154 m 139 -389 b 236 -486 193 -389 236 -432 b 139 -583 236 -540 193 -583 b 42 -486 85 -583 42 -540 b 139 -389 42 -432 85 -389 "},"U":{"ha":556,"x_min":0,"x_max":0,"o":"m 236 208 b 139 111 236 154 193 111 b 42 208 85 111 42 154 b 71 278 42 236 53 260 b 42 347 53 296 42 319 b 71 417 42 375 53 399 b 42 486 53 435 42 458 b 71 556 42 514 53 538 b 42 625 53 574 42 597 b 139 722 42 679 85 722 b 236 625 193 722 236 679 b 207 556 236 597 225 574 b 236 486 225 538 236 514 b 207 417 236 458 225 435 b 236 347 225 399 236 375 b 207 278 236 319 225 296 b 236 208 225 260 236 236 m 514 486 b 485 417 514 458 503 435 b 514 347 503 399 514 375 b 485 278 514 319 503 296 b 514 208 503 260 514 236 b 485 139 514 181 503 157 b 514 69 503 121 514 97 b 417 -28 514 15 471 -28 b 347 1 389 -28 365 -17 b 278 -28 329 -17 306 -28 b 181 69 224 -28 181 15 b 278 167 181 124 224 167 b 347 138 306 167 329 156 l 349 139 b 319 208 331 157 319 181 b 349 278 319 236 331 260 b 319 347 331 296 319 319 b 349 417 319 375 331 399 b 319 486 331 435 319 458 b 349 556 319 514 331 538 b 319 625 331 574 319 597 b 417 722 319 679 363 722 b 514 625 471 722 514 679 b 485 556 514 597 503 574 b 514 486 503 538 514 514 "},"Ú":{"ha":556,"x_min":0,"x_max":0,"o":"m 417 944 b 319 1042 363 944 319 988 b 417 1139 319 1096 363 1139 b 514 1042 471 1139 514 1096 b 417 944 514 988 471 944 m 278 806 b 181 903 224 806 181 849 b 278 1000 181 957 224 1000 b 375 903 332 1000 375 957 b 278 806 375 849 332 806 m 236 208 b 139 111 236 154 193 111 b 42 208 85 111 42 154 b 71 278 42 236 53 260 b 42 347 53 296 42 319 b 71 417 42 375 53 399 b 42 486 53 435 42 458 b 71 556 42 514 53 538 b 42 625 53 574 42 597 b 139 722 42 679 85 722 b 236 625 193 722 236 679 b 207 556 236 597 225 574 b 236 486 225 538 236 514 b 207 417 236 458 225 435 b 236 347 225 399 236 375 b 207 278 236 319 225 296 b 236 208 225 260 236 236 m 514 625 b 485 556 514 597 503 574 b 514 486 503 538 514 514 b 485 417 514 458 503 435 b 514 347 503 399 514 375 b 485 278 514 319 503 296 b 514 208 503 260 514 236 b 485 139 514 181 503 157 b 514 69 503 121 514 97 b 417 -28 514 15 471 -28 b 347 1 389 -28 365 -17 b 278 -28 329 -17 306 -28 b 181 69 224 -28 181 15 b 278 167 181 124 224 167 b 347 138 306 167 329 156 l 349 139 b 319 208 331 157 319 181 b 349 278 319 236 331 260 b 319 347 331 296 319 319 b 349 417 319 375 331 399 b 319 486 331 435 319 458 b 349 556 319 514 331 538 b 319 625 331 574 319 597 b 417 722 319 679 363 722 b 514 625 471 722 514 679 "},"Û":{"ha":556,"x_min":0,"x_max":0,"o":"m 278 944 b 181 1042 224 944 181 988 b 278 1139 181 1096 224 1139 b 375 1042 332 1139 375 1096 b 278 944 375 988 332 944 m 139 806 b 42 903 85 806 42 849 b 139 1000 42 957 85 1000 b 236 903 193 1000 236 957 b 139 806 236 849 193 806 m 319 903 b 417 1000 319 957 363 1000 b 514 903 471 1000 514 957 b 417 806 514 849 471 806 b 319 903 363 806 319 849 m 236 208 b 139 111 236 154 193 111 b 42 208 85 111 42 154 b 71 278 42 236 53 260 b 42 347 53 296 42 319 b 71 417 42 375 53 399 b 42 486 53 435 42 458 b 71 556 42 514 53 538 b 42 625 53 574 42 597 b 139 722 42 679 85 722 b 236 625 193 722 236 679 b 207 556 236 597 225 574 b 236 486 225 538 236 514 b 207 417 236 458 225 435 b 236 347 225 399 236 375 b 207 278 236 319 225 296 b 236 208 225 260 236 236 m 514 625 b 485 556 514 597 503 574 b 514 486 503 538 514 514 b 485 417 514 458 503 435 b 514 347 503 399 514 375 b 485 278 514 319 503 296 b 514 208 503 260 514 236 b 485 139 514 181 503 157 b 514 69 503 121 514 97 b 417 -28 514 15 471 -28 b 347 1 389 -28 365 -17 b 278 -28 329 -17 306 -28 b 181 69 224 -28 181 15 b 278 167 181 124 224 167 b 347 138 306 167 329 156 l 349 139 b 319 208 331 157 319 181 b 349 278 319 236 331 260 b 319 347 331 296 319 319 b 349 417 319 375 331 399 b 319 486 331 435 319 458 b 349 556 319 514 331 538 b 319 625 331 574 319 597 b 417 722 319 679 363 722 b 514 625 471 722 514 679 "},"Ü":{"ha":556,"x_min":0,"x_max":0,"o":"m 139 806 b 42 903 85 806 42 849 b 139 1000 42 957 85 1000 b 236 903 193 1000 236 957 b 139 806 236 849 193 806 m 417 806 b 319 903 363 806 319 849 b 417 1000 319 957 363 1000 b 514 903 471 1000 514 957 b 417 806 514 849 471 806 m 236 208 b 139 111 236 154 193 111 b 42 208 85 111 42 154 b 71 278 42 236 53 260 b 42 347 53 296 42 319 b 71 417 42 375 53 399 b 42 486 53 435 42 458 b 71 556 42 514 53 538 b 42 625 53 574 42 597 b 139 722 42 679 85 722 b 236 625 193 722 236 679 b 207 556 236 597 225 574 b 236 486 225 538 236 514 b 207 417 236 458 225 435 b 236 347 225 399 236 375 b 207 278 236 319 225 296 b 236 208 225 260 236 236 m 514 625 b 485 556 514 597 503 574 b 514 486 503 538 514 514 b 485 417 514 458 503 435 b 514 347 503 399 514 375 b 485 278 514 319 503 296 b 514 208 503 260 514 236 b 485 139 514 181 503 157 b 514 69 503 121 514 97 b 417 -28 514 15 471 -28 b 347 1 389 -28 365 -17 b 278 -28 329 -17 306 -28 b 181 69 224 -28 181 15 b 278 167 181 124 224 167 b 347 138 306 167 329 156 l 349 139 b 319 208 331 157 319 181 b 349 278 319 236 331 260 b 319 347 331 296 319 319 b 349 417 319 375 331 399 b 319 486 331 435 319 458 b 349 556 319 514 331 538 b 319 625 331 574 319 597 b 417 722 319 679 363 722 b 514 625 471 722 514 679 "},"Ù":{"ha":556,"x_min":0,"x_max":0,"o":"m 139 944 b 42 1042 85 944 42 988 b 139 1139 42 1096 85 1139 b 236 1042 193 1139 236 1096 b 139 944 236 988 193 944 m 181 903 b 278 1000 181 957 224 1000 b 375 903 332 1000 375 957 b 278 806 375 849 332 806 b 181 903 224 806 181 849 m 236 208 b 139 111 236 154 193 111 b 42 208 85 111 42 154 b 71 278 42 236 53 260 b 42 347 53 296 42 319 b 71 417 42 375 53 399 b 42 486 53 435 42 458 b 71 556 42 514 53 538 b 42 625 53 574 42 597 b 139 722 42 679 85 722 b 236 625 193 722 236 679 b 207 556 236 597 225 574 b 236 486 225 538 236 514 b 207 417 236 458 225 435 b 236 347 225 399 236 375 b 207 278 236 319 225 296 b 236 208 225 260 236 236 m 514 486 b 485 417 514 458 503 435 b 514 347 503 399 514 375 b 485 278 514 319 503 296 b 514 208 503 260 514 236 b 485 139 514 181 503 157 b 514 69 503 121 514 97 b 417 -28 514 15 471 -28 b 347 1 389 -28 365 -17 b 278 -28 329 -17 306 -28 b 181 69 224 -28 181 15 b 278 167 181 124 224 167 b 347 138 306 167 329 156 l 349 139 b 319 208 331 157 319 181 b 349 278 319 236 331 260 b 319 347 331 296 319 319 b 349 417 319 375 331 399 b 319 486 331 435 319 458 b 349 556 319 514 331 538 b 319 625 331 574 319 597 b 417 722 319 679 363 722 b 514 625 471 722 514 679 b 485 556 514 597 503 574 b 514 486 503 538 514 514 "},"Ű":{"ha":556,"x_min":0,"x_max":0,"o":"m 278 944 b 181 1042 224 944 181 988 b 278 1139 181 1096 224 1139 b 375 1042 332 1139 375 1096 b 278 944 375 988 332 944 m 556 1139 b 653 1042 610 1139 653 1096 b 556 944 653 988 610 944 b 458 1042 501 944 458 988 b 556 1139 458 1096 501 1139 m 139 806 b 42 903 85 806 42 849 b 139 1000 42 957 85 1000 b 236 903 193 1000 236 957 b 139 806 236 849 193 806 m 417 1000 b 514 903 471 1000 514 957 b 417 806 514 849 471 806 b 319 903 363 806 319 849 b 417 1000 319 957 363 1000 m 236 208 b 139 111 236 154 193 111 b 42 208 85 111 42 154 b 71 278 42 236 53 260 b 42 347 53 296 42 319 b 71 417 42 375 53 399 b 42 486 53 435 42 458 b 71 556 42 514 53 538 b 42 625 53 574 42 597 b 139 722 42 679 85 722 b 236 625 193 722 236 679 b 207 556 236 597 225 574 b 236 486 225 538 236 514 b 207 417 236 458 225 435 b 236 347 225 399 236 375 b 207 278 236 319 225 296 b 236 208 225 260 236 236 m 514 625 b 485 556 514 597 503 574 b 514 486 503 538 514 514 b 485 417 514 458 503 435 b 514 347 503 399 514 375 b 485 278 514 319 503 296 b 514 208 503 260 514 236 b 485 139 514 181 503 157 b 514 69 503 121 514 97 b 417 -28 514 15 471 -28 b 347 1 389 -28 365 -17 b 278 -28 329 -17 306 -28 b 181 69 224 -28 181 15 b 278 167 181 124 224 167 b 347 138 306 167 329 156 l 349 139 b 319 208 331 157 319 181 b 349 278 319 236 331 260 b 319 347 331 296 319 319 b 349 417 319 375 331 399 b 319 486 331 435 319 458 b 349 556 319 514 331 538 b 319 625 331 574 319 597 b 417 722 319 679 363 722 b 514 625 471 722 514 679 "},"Ū":{"ha":556,"x_min":0,"x_max":0,"o":"m 139 806 b 42 903 85 806 42 849 b 139 1000 42 957 85 1000 b 208 971 167 1000 190 989 b 278 1000 226 989 250 1000 b 347 971 306 1000 329 989 b 417 1000 365 989 389 1000 b 514 903 471 1000 514 957 b 417 806 514 849 471 806 b 347 835 389 806 365 817 b 278 806 329 817 306 806 b 208 835 250 806 226 817 b 139 806 190 817 167 806 m 236 208 b 139 111 236 154 193 111 b 42 208 85 111 42 154 b 71 278 42 236 53 260 b 42 347 53 296 42 319 b 71 417 42 375 53 399 b 42 486 53 435 42 458 b 71 556 42 514 53 538 b 42 625 53 574 42 597 b 139 722 42 679 85 722 b 236 625 193 722 236 679 b 207 556 236 597 225 574 b 236 486 225 538 236 514 b 207 417 236 458 225 435 b 236 347 225 399 236 375 b 207 278 236 319 225 296 b 236 208 225 260 236 236 m 514 625 b 485 556 514 597 503 574 b 514 486 503 538 514 514 b 485 417 514 458 503 435 b 514 347 503 399 514 375 b 485 278 514 319 503 296 b 514 208 503 260 514 236 b 485 139 514 181 503 157 b 514 69 503 121 514 97 b 417 -28 514 15 471 -28 b 347 1 389 -28 365 -17 b 278 -28 329 -17 306 -28 b 181 69 224 -28 181 15 b 278 167 181 124 224 167 b 347 138 306 167 329 156 l 349 139 b 319 208 331 157 319 181 b 349 278 319 236 331 260 b 319 347 331 296 319 319 b 349 417 319 375 331 399 b 319 486 331 435 319 458 b 349 556 319 514 331 538 b 319 625 331 574 319 597 b 417 722 319 679 363 722 b 514 625 471 722 514 679 "},"Ų":{"ha":556,"x_min":0,"x_max":0,"o":"m 236 208 b 139 111 236 154 193 111 b 42 208 85 111 42 154 b 71 278 42 236 53 260 b 42 347 53 296 42 319 b 71 417 42 375 53 399 b 42 486 53 435 42 458 b 71 556 42 514 53 538 b 42 625 53 574 42 597 b 139 722 42 679 85 722 b 236 625 193 722 236 679 b 207 556 236 597 225 574 b 236 486 225 538 236 514 b 207 417 236 458 225 435 b 236 347 225 399 236 375 b 207 278 236 319 225 296 b 236 208 225 260 236 236 m 514 486 b 485 417 514 458 503 435 b 514 347 503 399 514 375 b 485 278 514 319 503 296 b 514 208 503 260 514 236 b 485 139 514 181 503 157 b 514 69 503 121 514 97 b 417 -28 514 15 471 -28 b 347 1 389 -28 365 -17 l 346 0 b 375 -69 364 -18 375 -42 b 346 -139 375 -97 364 -121 l 347 -140 b 417 -111 365 -122 389 -111 b 514 -208 471 -111 514 -154 b 417 -306 514 -262 471 -306 b 347 -276 389 -306 365 -294 b 278 -306 329 -294 306 -306 b 181 -208 224 -306 181 -262 b 210 -139 181 -181 192 -157 b 181 -69 192 -121 181 -97 b 210 0 181 -42 192 -18 b 181 69 192 18 181 42 b 278 167 181 124 224 167 b 347 138 306 167 329 156 l 349 139 b 319 208 331 157 319 181 b 349 278 319 236 331 260 b 319 347 331 296 319 319 b 349 417 319 375 331 399 b 319 486 331 435 319 458 b 349 556 319 514 331 538 b 319 625 331 574 319 597 b 417 722 319 679 363 722 b 514 625 471 722 514 679 b 485 556 514 597 503 574 b 514 486 503 538 514 514 "},"Ů":{"ha":556,"x_min":0,"x_max":0,"o":"m 278 944 b 181 1042 224 944 181 988 b 278 1139 181 1096 224 1139 b 375 1042 332 1139 375 1096 b 278 944 375 988 332 944 m 139 806 b 42 903 85 806 42 849 b 139 1000 42 957 85 1000 b 236 903 193 1000 236 957 b 139 806 236 849 193 806 m 319 903 b 417 1000 319 957 363 1000 b 514 903 471 1000 514 957 b 417 806 514 849 471 806 b 319 903 363 806 319 849 m 278 861 b 375 764 332 861 375 818 b 278 667 375 710 332 667 b 181 764 224 667 181 710 b 278 861 181 818 224 861 m 236 208 b 139 111 236 154 193 111 b 42 208 85 111 42 154 b 71 278 42 236 53 260 b 42 347 53 296 42 319 b 71 417 42 375 53 399 b 42 486 53 435 42 458 b 71 556 42 514 53 538 b 42 625 53 574 42 597 b 139 722 42 679 85 722 b 236 625 193 722 236 679 b 207 556 236 597 225 574 b 236 486 225 538 236 514 b 207 417 236 458 225 435 b 236 347 225 399 236 375 b 207 278 236 319 225 296 b 236 208 225 260 236 236 m 514 625 b 485 556 514 597 503 574 b 514 486 503 538 514 514 b 485 417 514 458 503 435 b 514 347 503 399 514 375 b 485 278 514 319 503 296 b 514 208 503 260 514 236 b 485 139 514 181 503 157 b 514 69 503 121 514 97 b 417 -28 514 15 471 -28 b 347 1 389 -28 365 -17 b 278 -28 329 -17 306 -28 b 181 69 224 -28 181 15 b 278 167 181 124 224 167 b 347 138 306 167 329 156 l 349 139 b 319 208 331 157 319 181 b 349 278 319 236 331 260 b 319 347 331 296 319 319 b 349 417 319 375 331 399 b 319 486 331 435 319 458 b 349 556 319 514 331 538 b 319 625 331 574 319 597 b 417 722 319 679 363 722 b 514 625 471 722 514 679 "},"V":{"ha":556,"x_min":0,"x_max":0,"o":"m 236 208 b 139 111 236 154 193 111 b 42 208 85 111 42 154 b 71 278 42 236 53 260 b 42 347 53 296 42 319 b 71 417 42 375 53 399 b 42 486 53 435 42 458 b 71 556 42 514 53 538 b 42 625 53 574 42 597 b 139 722 42 679 85 722 b 236 625 193 722 236 679 b 207 556 236 597 225 574 b 236 486 225 538 236 514 b 207 417 236 458 225 435 b 236 347 225 399 236 375 b 207 278 236 319 225 296 b 236 208 225 260 236 236 m 514 486 b 485 417 514 458 503 435 b 514 347 503 399 514 375 b 485 278 514 319 503 296 b 514 208 503 260 514 236 b 417 111 514 154 471 111 b 319 208 363 111 319 154 b 349 278 319 236 331 260 b 319 347 331 296 319 319 b 349 417 319 375 331 399 b 319 486 331 435 319 458 b 349 556 319 514 331 538 b 319 625 331 574 319 597 b 417 722 319 679 363 722 b 514 625 471 722 514 679 b 485 556 514 597 503 574 b 514 486 503 538 514 514 m 278 167 b 375 69 332 167 375 124 b 278 -28 375 15 332 -28 b 181 69 224 -28 181 15 b 278 167 181 124 224 167 "},"W":{"ha":833,"x_min":0,"x_max":0,"o":"m 236 208 b 139 111 236 154 193 111 b 42 208 85 111 42 154 b 71 278 42 236 53 260 b 42 347 53 296 42 319 b 71 417 42 375 53 399 b 42 486 53 435 42 458 b 71 556 42 514 53 538 b 42 625 53 574 42 597 b 139 722 42 679 85 722 b 236 625 193 722 236 679 b 207 556 236 597 225 574 b 236 486 225 538 236 514 b 207 417 236 458 225 435 b 236 347 225 399 236 375 b 207 278 236 319 225 296 b 236 208 225 260 236 236 m 514 208 b 417 111 514 154 471 111 b 319 208 363 111 319 154 b 349 278 319 236 331 260 b 319 347 331 296 319 319 b 349 417 319 375 331 399 b 319 486 331 435 319 458 b 349 556 319 514 331 538 b 319 625 331 574 319 597 b 417 722 319 679 363 722 b 514 625 471 722 514 679 b 485 556 514 597 503 574 b 514 486 503 538 514 514 b 485 417 514 458 503 435 b 514 347 503 399 514 375 b 485 278 514 319 503 296 b 514 208 503 260 514 236 m 792 486 b 763 417 792 458 781 435 b 792 347 781 399 792 375 b 763 278 792 319 781 296 b 792 208 781 260 792 236 b 694 111 792 154 749 111 b 597 208 640 111 597 154 b 626 278 597 236 608 260 b 597 347 608 296 597 319 b 626 417 597 375 608 399 b 597 486 608 435 597 458 b 626 556 597 514 608 538 b 597 625 608 574 597 597 b 694 722 597 679 640 722 b 792 625 749 722 792 679 b 763 556 792 597 781 574 b 792 486 781 538 792 514 m 278 167 b 375 69 332 167 375 124 b 278 -28 375 15 332 -28 b 181 69 224 -28 181 15 b 278 167 181 124 224 167 m 556 167 b 653 69 610 167 653 124 b 556 -28 653 15 610 -28 b 458 69 501 -28 458 15 b 556 167 458 124 501 167 "},"Ẃ":{"ha":833,"x_min":0,"x_max":0,"o":"m 556 944 b 458 1042 501 944 458 988 b 556 1139 458 1096 501 1139 b 653 1042 610 1139 653 1096 b 556 944 653 988 610 944 m 417 806 b 319 903 363 806 319 849 b 417 1000 319 957 363 1000 b 514 903 471 1000 514 957 b 417 806 514 849 471 806 m 236 208 b 139 111 236 154 193 111 b 42 208 85 111 42 154 b 71 278 42 236 53 260 b 42 347 53 296 42 319 b 71 417 42 375 53 399 b 42 486 53 435 42 458 b 71 556 42 514 53 538 b 42 625 53 574 42 597 b 139 722 42 679 85 722 b 236 625 193 722 236 679 b 207 556 236 597 225 574 b 236 486 225 538 236 514 b 207 417 236 458 225 435 b 236 347 225 399 236 375 b 207 278 236 319 225 296 b 236 208 225 260 236 236 m 514 208 b 417 111 514 154 471 111 b 319 208 363 111 319 154 b 349 278 319 236 331 260 b 319 347 331 296 319 319 b 349 417 319 375 331 399 b 319 486 331 435 319 458 b 349 556 319 514 331 538 b 319 625 331 574 319 597 b 417 722 319 679 363 722 b 514 625 471 722 514 679 b 485 556 514 597 503 574 b 514 486 503 538 514 514 b 485 417 514 458 503 435 b 514 347 503 399 514 375 b 485 278 514 319 503 296 b 514 208 503 260 514 236 m 792 486 b 763 417 792 458 781 435 b 792 347 781 399 792 375 b 763 278 792 319 781 296 b 792 208 781 260 792 236 b 694 111 792 154 749 111 b 597 208 640 111 597 154 b 626 278 597 236 608 260 b 597 347 608 296 597 319 b 626 417 597 375 608 399 b 597 486 608 435 597 458 b 626 556 597 514 608 538 b 597 625 608 574 597 597 b 694 722 597 679 640 722 b 792 625 749 722 792 679 b 763 556 792 597 781 574 b 792 486 781 538 792 514 m 278 167 b 375 69 332 167 375 124 b 278 -28 375 15 332 -28 b 181 69 224 -28 181 15 b 278 167 181 124 224 167 m 556 167 b 653 69 610 167 653 124 b 556 -28 653 15 610 -28 b 458 69 501 -28 458 15 b 556 167 458 124 501 167 "},"Ŵ":{"ha":833,"x_min":0,"x_max":0,"o":"m 417 944 b 319 1042 363 944 319 988 b 417 1139 319 1096 363 1139 b 514 1042 471 1139 514 1096 b 417 944 514 988 471 944 m 278 806 b 181 903 224 806 181 849 b 278 1000 181 957 224 1000 b 375 903 332 1000 375 957 b 278 806 375 849 332 806 m 458 903 b 556 1000 458 957 501 1000 b 653 903 610 1000 653 957 b 556 806 653 849 610 806 b 458 903 501 806 458 849 m 236 208 b 139 111 236 154 193 111 b 42 208 85 111 42 154 b 71 278 42 236 53 260 b 42 347 53 296 42 319 b 71 417 42 375 53 399 b 42 486 53 435 42 458 b 71 556 42 514 53 538 b 42 625 53 574 42 597 b 139 722 42 679 85 722 b 236 625 193 722 236 679 b 207 556 236 597 225 574 b 236 486 225 538 236 514 b 207 417 236 458 225 435 b 236 347 225 399 236 375 b 207 278 236 319 225 296 b 236 208 225 260 236 236 m 514 208 b 417 111 514 154 471 111 b 319 208 363 111 319 154 b 349 278 319 236 331 260 b 319 347 331 296 319 319 b 349 417 319 375 331 399 b 319 486 331 435 319 458 b 349 556 319 514 331 538 b 319 625 331 574 319 597 b 417 722 319 679 363 722 b 514 625 471 722 514 679 b 485 556 514 597 503 574 b 514 486 503 538 514 514 b 485 417 514 458 503 435 b 514 347 503 399 514 375 b 485 278 514 319 503 296 b 514 208 503 260 514 236 m 792 486 b 763 417 792 458 781 435 b 792 347 781 399 792 375 b 763 278 792 319 781 296 b 792 208 781 260 792 236 b 694 111 792 154 749 111 b 597 208 640 111 597 154 b 626 278 597 236 608 260 b 597 347 608 296 597 319 b 626 417 597 375 608 399 b 597 486 608 435 597 458 b 626 556 597 514 608 538 b 597 625 608 574 597 597 b 694 722 597 679 640 722 b 792 625 749 722 792 679 b 763 556 792 597 781 574 b 792 486 781 538 792 514 m 278 167 b 375 69 332 167 375 124 b 278 -28 375 15 332 -28 b 181 69 224 -28 181 15 b 278 167 181 124 224 167 m 556 167 b 653 69 610 167 653 124 b 556 -28 653 15 610 -28 b 458 69 501 -28 458 15 b 556 167 458 124 501 167 "},"Ẅ":{"ha":833,"x_min":0,"x_max":0,"o":"m 278 806 b 181 903 224 806 181 849 b 278 1000 181 957 224 1000 b 375 903 332 1000 375 957 b 278 806 375 849 332 806 m 556 806 b 458 903 501 806 458 849 b 556 1000 458 957 501 1000 b 653 903 610 1000 653 957 b 556 806 653 849 610 806 m 236 208 b 139 111 236 154 193 111 b 42 208 85 111 42 154 b 71 278 42 236 53 260 b 42 347 53 296 42 319 b 71 417 42 375 53 399 b 42 486 53 435 42 458 b 71 556 42 514 53 538 b 42 625 53 574 42 597 b 139 722 42 679 85 722 b 236 625 193 722 236 679 b 207 556 236 597 225 574 b 236 486 225 538 236 514 b 207 417 236 458 225 435 b 236 347 225 399 236 375 b 207 278 236 319 225 296 b 236 208 225 260 236 236 m 514 208 b 417 111 514 154 471 111 b 319 208 363 111 319 154 b 349 278 319 236 331 260 b 319 347 331 296 319 319 b 349 417 319 375 331 399 b 319 486 331 435 319 458 b 349 556 319 514 331 538 b 319 625 331 574 319 597 b 417 722 319 679 363 722 b 514 625 471 722 514 679 b 485 556 514 597 503 574 b 514 486 503 538 514 514 b 485 417 514 458 503 435 b 514 347 503 399 514 375 b 485 278 514 319 503 296 b 514 208 503 260 514 236 m 792 486 b 763 417 792 458 781 435 b 792 347 781 399 792 375 b 763 278 792 319 781 296 b 792 208 781 260 792 236 b 694 111 792 154 749 111 b 597 208 640 111 597 154 b 626 278 597 236 608 260 b 597 347 608 296 597 319 b 626 417 597 375 608 399 b 597 486 608 435 597 458 b 626 556 597 514 608 538 b 597 625 608 574 597 597 b 694 722 597 679 640 722 b 792 625 749 722 792 679 b 763 556 792 597 781 574 b 792 486 781 538 792 514 m 278 167 b 375 69 332 167 375 124 b 278 -28 375 15 332 -28 b 181 69 224 -28 181 15 b 278 167 181 124 224 167 m 556 167 b 653 69 610 167 653 124 b 556 -28 653 15 610 -28 b 458 69 501 -28 458 15 b 556 167 458 124 501 167 "},"Ẁ":{"ha":833,"x_min":0,"x_max":0,"o":"m 278 944 b 181 1042 224 944 181 988 b 278 1139 181 1096 224 1139 b 375 1042 332 1139 375 1096 b 278 944 375 988 332 944 m 319 903 b 417 1000 319 957 363 1000 b 514 903 471 1000 514 957 b 417 806 514 849 471 806 b 319 903 363 806 319 849 m 236 208 b 139 111 236 154 193 111 b 42 208 85 111 42 154 b 71 278 42 236 53 260 b 42 347 53 296 42 319 b 71 417 42 375 53 399 b 42 486 53 435 42 458 b 71 556 42 514 53 538 b 42 625 53 574 42 597 b 139 722 42 679 85 722 b 236 625 193 722 236 679 b 207 556 236 597 225 574 b 236 486 225 538 236 514 b 207 417 236 458 225 435 b 236 347 225 399 236 375 b 207 278 236 319 225 296 b 236 208 225 260 236 236 m 514 208 b 417 111 514 154 471 111 b 319 208 363 111 319 154 b 349 278 319 236 331 260 b 319 347 331 296 319 319 b 349 417 319 375 331 399 b 319 486 331 435 319 458 b 349 556 319 514 331 538 b 319 625 331 574 319 597 b 417 722 319 679 363 722 b 514 625 471 722 514 679 b 485 556 514 597 503 574 b 514 486 503 538 514 514 b 485 417 514 458 503 435 b 514 347 503 399 514 375 b 485 278 514 319 503 296 b 514 208 503 260 514 236 m 792 486 b 763 417 792 458 781 435 b 792 347 781 399 792 375 b 763 278 792 319 781 296 b 792 208 781 260 792 236 b 694 111 792 154 749 111 b 597 208 640 111 597 154 b 626 278 597 236 608 260 b 597 347 608 296 597 319 b 626 417 597 375 608 399 b 597 486 608 435 597 458 b 626 556 597 514 608 538 b 597 625 608 574 597 597 b 694 722 597 679 640 722 b 792 625 749 722 792 679 b 763 556 792 597 781 574 b 792 486 781 538 792 514 m 278 167 b 375 69 332 167 375 124 b 278 -28 375 15 332 -28 b 181 69 224 -28 181 15 b 278 167 181 124 224 167 m 556 167 b 653 69 610 167 653 124 b 556 -28 653 15 610 -28 b 458 69 501 -28 458 15 b 556 167 458 124 501 167 "},"X":{"ha":556,"x_min":0,"x_max":0,"o":"m 42 486 b 71 556 42 514 53 538 b 42 625 53 574 42 597 b 139 722 42 679 85 722 b 236 625 193 722 236 679 b 207 556 236 597 225 574 b 236 486 225 538 236 514 b 139 389 236 432 193 389 b 42 486 85 389 42 432 m 485 556 b 514 486 503 538 514 514 b 417 389 514 432 471 389 b 319 486 363 389 319 432 b 349 556 319 514 331 538 b 319 625 331 574 319 597 b 417 722 319 679 363 722 b 514 625 471 722 514 679 b 485 556 514 597 503 574 m 375 347 b 278 250 375 293 332 250 b 181 347 224 250 181 293 b 278 444 181 401 224 444 b 375 347 332 444 375 401 m 236 208 b 207 139 236 181 225 157 b 236 69 225 121 236 97 b 139 -28 236 15 193 -28 b 42 69 85 -28 42 15 b 71 139 42 97 53 121 b 42 208 53 157 42 181 b 139 306 42 263 85 306 b 236 208 193 306 236 263 m 514 208 b 485 139 514 181 503 157 b 514 69 503 121 514 97 b 417 -28 514 15 471 -28 b 319 69 363 -28 319 15 b 349 139 319 97 331 121 b 319 208 331 157 319 181 b 417 306 319 263 363 306 b 514 208 471 306 514 263 "},"Y":{"ha":556,"x_min":0,"x_max":0,"o":"m 236 486 b 139 389 236 432 193 389 b 42 486 85 389 42 432 b 71 556 42 514 53 538 b 42 625 53 574 42 597 b 139 722 42 679 85 722 b 236 625 193 722 236 679 b 207 556 236 597 225 574 b 236 486 225 538 236 514 m 485 556 b 514 486 503 538 514 514 b 417 389 514 432 471 389 b 319 486 363 389 319 432 b 349 556 319 514 331 538 b 319 625 331 574 319 597 b 417 722 319 679 363 722 b 514 625 471 722 514 679 b 485 556 514 597 503 574 m 375 347 b 346 278 375 319 364 296 b 375 208 364 260 375 236 b 346 139 375 181 364 157 b 375 69 364 121 375 97 b 278 -28 375 15 332 -28 b 181 69 224 -28 181 15 b 210 139 181 97 192 121 b 181 208 192 157 181 181 b 210 278 181 236 192 260 b 181 347 192 296 181 319 b 278 444 181 401 224 444 b 375 347 332 444 375 401 "},"Ý":{"ha":556,"x_min":0,"x_max":0,"o":"m 417 944 b 319 1042 363 944 319 988 b 417 1139 319 1096 363 1139 b 514 1042 471 1139 514 1096 b 417 944 514 988 471 944 m 278 806 b 181 903 224 806 181 849 b 278 1000 181 957 224 1000 b 375 903 332 1000 375 957 b 278 806 375 849 332 806 m 236 486 b 139 389 236 432 193 389 b 42 486 85 389 42 432 b 71 556 42 514 53 538 b 42 625 53 574 42 597 b 139 722 42 679 85 722 b 236 625 193 722 236 679 b 207 556 236 597 225 574 b 236 486 225 538 236 514 m 514 625 b 485 556 514 597 503 574 b 514 486 503 538 514 514 b 417 389 514 432 471 389 b 319 486 363 389 319 432 b 349 556 319 514 331 538 b 319 625 331 574 319 597 b 417 722 319 679 363 722 b 514 625 471 722 514 679 m 375 347 b 346 278 375 319 364 296 b 375 208 364 260 375 236 b 346 139 375 181 364 157 b 375 69 364 121 375 97 b 278 -28 375 15 332 -28 b 181 69 224 -28 181 15 b 210 139 181 97 192 121 b 181 208 192 157 181 181 b 210 278 181 236 192 260 b 181 347 192 296 181 319 b 278 444 181 401 224 444 b 375 347 332 444 375 401 "},"Ŷ":{"ha":556,"x_min":0,"x_max":0,"o":"m 278 944 b 181 1042 224 944 181 988 b 278 1139 181 1096 224 1139 b 375 1042 332 1139 375 1096 b 278 944 375 988 332 944 m 139 806 b 42 903 85 806 42 849 b 139 1000 42 957 85 1000 b 236 903 193 1000 236 957 b 139 806 236 849 193 806 m 319 903 b 417 1000 319 957 363 1000 b 514 903 471 1000 514 957 b 417 806 514 849 471 806 b 319 903 363 806 319 849 m 236 486 b 139 389 236 432 193 389 b 42 486 85 389 42 432 b 71 556 42 514 53 538 b 42 625 53 574 42 597 b 139 722 42 679 85 722 b 236 625 193 722 236 679 b 207 556 236 597 225 574 b 236 486 225 538 236 514 m 514 625 b 485 556 514 597 503 574 b 514 486 503 538 514 514 b 417 389 514 432 471 389 b 319 486 363 389 319 432 b 349 556 319 514 331 538 b 319 625 331 574 319 597 b 417 722 319 679 363 722 b 514 625 471 722 514 679 m 375 347 b 346 278 375 319 364 296 b 375 208 364 260 375 236 b 346 139 375 181 364 157 b 375 69 364 121 375 97 b 278 -28 375 15 332 -28 b 181 69 224 -28 181 15 b 210 139 181 97 192 121 b 181 208 192 157 181 181 b 210 278 181 236 192 260 b 181 347 192 296 181 319 b 278 444 181 401 224 444 b 375 347 332 444 375 401 "},"Ÿ":{"ha":556,"x_min":0,"x_max":0,"o":"m 139 806 b 42 903 85 806 42 849 b 139 1000 42 957 85 1000 b 236 903 193 1000 236 957 b 139 806 236 849 193 806 m 417 806 b 319 903 363 806 319 849 b 417 1000 319 957 363 1000 b 514 903 471 1000 514 957 b 417 806 514 849 471 806 m 236 486 b 139 389 236 432 193 389 b 42 486 85 389 42 432 b 71 556 42 514 53 538 b 42 625 53 574 42 597 b 139 722 42 679 85 722 b 236 625 193 722 236 679 b 207 556 236 597 225 574 b 236 486 225 538 236 514 m 514 625 b 485 556 514 597 503 574 b 514 486 503 538 514 514 b 417 389 514 432 471 389 b 319 486 363 389 319 432 b 349 556 319 514 331 538 b 319 625 331 574 319 597 b 417 722 319 679 363 722 b 514 625 471 722 514 679 m 375 347 b 346 278 375 319 364 296 b 375 208 364 260 375 236 b 346 139 375 181 364 157 b 375 69 364 121 375 97 b 278 -28 375 15 332 -28 b 181 69 224 -28 181 15 b 210 139 181 97 192 121 b 181 208 192 157 181 181 b 210 278 181 236 192 260 b 181 347 192 296 181 319 b 278 444 181 401 224 444 b 375 347 332 444 375 401 "},"Ỳ":{"ha":556,"x_min":0,"x_max":0,"o":"m 139 944 b 42 1042 85 944 42 988 b 139 1139 42 1096 85 1139 b 236 1042 193 1139 236 1096 b 139 944 236 988 193 944 m 181 903 b 278 1000 181 957 224 1000 b 375 903 332 1000 375 957 b 278 806 375 849 332 806 b 181 903 224 806 181 849 m 236 486 b 139 389 236 432 193 389 b 42 486 85 389 42 432 b 71 556 42 514 53 538 b 42 625 53 574 42 597 b 139 722 42 679 85 722 b 236 625 193 722 236 679 b 207 556 236 597 225 574 b 236 486 225 538 236 514 m 485 556 b 514 486 503 538 514 514 b 417 389 514 432 471 389 b 319 486 363 389 319 432 b 349 556 319 514 331 538 b 319 625 331 574 319 597 b 417 722 319 679 363 722 b 514 625 471 722 514 679 b 485 556 514 597 503 574 m 375 347 b 346 278 375 319 364 296 b 375 208 364 260 375 236 b 346 139 375 181 364 157 b 375 69 364 121 375 97 b 278 -28 375 15 332 -28 b 181 69 224 -28 181 15 b 210 139 181 97 192 121 b 181 208 192 157 181 181 b 210 278 181 236 192 260 b 181 347 192 296 181 319 b 278 444 181 401 224 444 b 375 347 332 444 375 401 "},"Z":{"ha":556,"x_min":0,"x_max":0,"o":"m 485 556 b 514 486 503 538 514 514 b 417 389 514 432 471 389 b 319 486 363 389 319 432 b 349 556 319 514 331 538 l 347 557 b 278 528 329 539 306 528 b 208 557 250 528 226 539 b 139 528 190 539 167 528 b 42 625 85 528 42 571 b 139 722 42 679 85 722 b 208 693 167 722 190 711 b 278 722 226 711 250 722 b 347 693 306 722 329 711 b 417 722 365 711 389 722 b 514 625 471 722 514 679 b 485 556 514 597 503 574 m 278 250 b 181 347 224 250 181 293 b 278 444 181 401 224 444 b 375 347 332 444 375 401 b 278 250 375 293 332 250 m 417 167 b 514 69 471 167 514 124 b 417 -28 514 15 471 -28 b 347 1 389 -28 365 -17 b 278 -28 329 -17 306 -28 b 208 1 250 -28 226 -17 b 139 -28 190 -17 167 -28 b 42 69 85 -28 42 15 b 71 139 42 97 53 121 b 42 208 53 157 42 181 b 139 306 42 263 85 306 b 236 208 193 306 236 263 b 207 139 236 181 225 157 l 208 138 b 278 167 226 156 250 167 b 347 138 306 167 329 156 b 417 167 365 156 389 167 "},"Ź":{"ha":556,"x_min":0,"x_max":0,"o":"m 417 944 b 319 1042 363 944 319 988 b 417 1139 319 1096 363 1139 b 514 1042 471 1139 514 1096 b 417 944 514 988 471 944 m 278 806 b 181 903 224 806 181 849 b 278 1000 181 957 224 1000 b 375 903 332 1000 375 957 b 278 806 375 849 332 806 m 514 625 b 485 556 514 597 503 574 b 514 486 503 538 514 514 b 417 389 514 432 471 389 b 319 486 363 389 319 432 b 349 556 319 514 331 538 l 347 557 b 278 528 329 539 306 528 b 208 557 250 528 226 539 b 139 528 190 539 167 528 b 42 625 85 528 42 571 b 139 722 42 679 85 722 b 208 693 167 722 190 711 b 278 722 226 711 250 722 b 347 693 306 722 329 711 b 417 722 365 711 389 722 b 514 625 471 722 514 679 m 278 250 b 181 347 224 250 181 293 b 278 444 181 401 224 444 b 375 347 332 444 375 401 b 278 250 375 293 332 250 m 417 167 b 514 69 471 167 514 124 b 417 -28 514 15 471 -28 b 347 1 389 -28 365 -17 b 278 -28 329 -17 306 -28 b 208 1 250 -28 226 -17 b 139 -28 190 -17 167 -28 b 42 69 85 -28 42 15 b 71 139 42 97 53 121 b 42 208 53 157 42 181 b 139 306 42 263 85 306 b 236 208 193 306 236 263 b 207 139 236 181 225 157 l 208 138 b 278 167 226 156 250 167 b 347 138 306 167 329 156 b 417 167 365 156 389 167 "},"Ž":{"ha":556,"x_min":0,"x_max":0,"o":"m 139 944 b 42 1042 85 944 42 988 b 139 1139 42 1096 85 1139 b 236 1042 193 1139 236 1096 b 139 944 236 988 193 944 m 417 944 b 319 1042 363 944 319 988 b 417 1139 319 1096 363 1139 b 514 1042 471 1139 514 1096 b 417 944 514 988 471 944 m 181 903 b 278 1000 181 957 224 1000 b 375 903 332 1000 375 957 b 278 806 375 849 332 806 b 181 903 224 806 181 849 m 514 625 b 485 556 514 597 503 574 b 514 486 503 538 514 514 b 417 389 514 432 471 389 b 319 486 363 389 319 432 b 349 556 319 514 331 538 l 347 557 b 278 528 329 539 306 528 b 208 557 250 528 226 539 b 139 528 190 539 167 528 b 42 625 85 528 42 571 b 139 722 42 679 85 722 b 208 693 167 722 190 711 b 278 722 226 711 250 722 b 347 693 306 722 329 711 b 417 722 365 711 389 722 b 514 625 471 722 514 679 m 278 250 b 181 347 224 250 181 293 b 278 444 181 401 224 444 b 375 347 332 444 375 401 b 278 250 375 293 332 250 m 417 167 b 514 69 471 167 514 124 b 417 -28 514 15 471 -28 b 347 1 389 -28 365 -17 b 278 -28 329 -17 306 -28 b 208 1 250 -28 226 -17 b 139 -28 190 -17 167 -28 b 42 69 85 -28 42 15 b 71 139 42 97 53 121 b 42 208 53 157 42 181 b 139 306 42 263 85 306 b 236 208 193 306 236 263 b 207 139 236 181 225 157 l 208 138 b 278 167 226 156 250 167 b 347 138 306 167 329 156 b 417 167 365 156 389 167 "},"Ż":{"ha":556,"x_min":0,"x_max":0,"o":"m 278 806 b 181 903 224 806 181 849 b 278 1000 181 957 224 1000 b 375 903 332 1000 375 957 b 278 806 375 849 332 806 m 485 556 b 514 486 503 538 514 514 b 417 389 514 432 471 389 b 319 486 363 389 319 432 b 349 556 319 514 331 538 l 347 557 b 278 528 329 539 306 528 b 208 557 250 528 226 539 b 139 528 190 539 167 528 b 42 625 85 528 42 571 b 139 722 42 679 85 722 b 208 693 167 722 190 711 b 278 722 226 711 250 722 b 347 693 306 722 329 711 b 417 722 365 711 389 722 b 514 625 471 722 514 679 b 485 556 514 597 503 574 m 278 250 b 181 347 224 250 181 293 b 278 444 181 401 224 444 b 375 347 332 444 375 401 b 278 250 375 293 332 250 m 417 167 b 514 69 471 167 514 124 b 417 -28 514 15 471 -28 b 347 1 389 -28 365 -17 b 278 -28 329 -17 306 -28 b 208 1 250 -28 226 -17 b 139 -28 190 -17 167 -28 b 42 69 85 -28 42 15 b 71 139 42 97 53 121 b 42 208 53 157 42 181 b 139 306 42 263 85 306 b 236 208 193 306 236 263 b 207 139 236 181 225 157 l 208 138 b 278 167 226 156 250 167 b 347 138 306 167 329 156 b 417 167 365 156 389 167 "},"a":{"ha":556,"x_min":0,"x_max":0,"o":"m 139 389 b 42 486 85 389 42 432 b 139 583 42 540 85 583 b 208 554 167 583 190 572 b 278 583 226 572 250 583 b 375 486 332 583 375 540 b 278 389 375 432 332 389 b 208 418 250 389 226 400 b 139 389 190 400 167 389 m 514 208 b 485 139 514 181 503 157 b 514 69 503 121 514 97 b 417 -28 514 15 471 -28 b 319 69 363 -28 319 15 b 349 139 319 97 331 121 l 347 140 b 278 111 329 122 306 111 b 208 140 250 111 226 122 l 207 139 b 236 69 225 121 236 97 b 139 -28 236 15 193 -28 b 42 69 85 -28 42 15 b 71 139 42 97 53 121 b 42 208 53 157 42 181 b 139 306 42 263 85 306 b 208 276 167 306 190 294 b 278 306 226 294 250 306 b 347 276 306 306 329 294 l 349 278 b 319 347 331 296 319 319 b 417 444 319 401 363 444 b 514 347 471 444 514 401 b 485 278 514 319 503 296 b 514 208 503 260 514 236 "},"á":{"ha":556,"x_min":0,"x_max":0,"o":"m 417 806 b 319 903 363 806 319 849 b 417 1000 319 957 363 1000 b 514 903 471 1000 514 957 b 417 806 514 849 471 806 m 278 667 b 181 764 224 667 181 710 b 278 861 181 818 224 861 b 375 764 332 861 375 818 b 278 667 375 710 332 667 m 139 389 b 42 486 85 389 42 432 b 139 583 42 540 85 583 b 208 554 167 583 190 572 b 278 583 226 572 250 583 b 375 486 332 583 375 540 b 278 389 375 432 332 389 b 208 418 250 389 226 400 b 139 389 190 400 167 389 m 514 347 b 485 278 514 319 503 296 b 514 208 503 260 514 236 b 485 139 514 181 503 157 b 514 69 503 121 514 97 b 417 -28 514 15 471 -28 b 319 69 363 -28 319 15 b 349 139 319 97 331 121 l 347 140 b 278 111 329 122 306 111 b 208 140 250 111 226 122 l 207 139 b 236 69 225 121 236 97 b 139 -28 236 15 193 -28 b 42 69 85 -28 42 15 b 71 139 42 97 53 121 b 42 208 53 157 42 181 b 139 306 42 263 85 306 b 208 276 167 306 190 294 b 278 306 226 294 250 306 b 347 276 306 306 329 294 l 349 278 b 319 347 331 296 319 319 b 417 444 319 401 363 444 b 514 347 471 444 514 401 "},"ă":{"ha":556,"x_min":0,"x_max":0,"o":"m 485 833 b 514 764 503 815 514 792 b 417 667 514 710 471 667 b 347 696 389 667 365 678 b 278 667 329 678 306 667 b 208 696 250 667 226 678 b 139 667 190 678 167 667 b 42 764 85 667 42 710 b 71 833 42 792 53 815 b 42 903 53 851 42 875 b 139 1000 42 957 85 1000 b 236 903 193 1000 236 957 b 207 833 236 875 225 851 l 208 832 b 278 861 226 850 250 861 b 347 832 306 861 329 850 l 349 833 b 319 903 331 851 319 875 b 417 1000 319 957 363 1000 b 514 903 471 1000 514 957 b 485 833 514 875 503 851 m 139 389 b 42 486 85 389 42 432 b 139 583 42 540 85 583 b 208 554 167 583 190 572 b 278 583 226 572 250 583 b 375 486 332 583 375 540 b 278 389 375 432 332 389 b 208 418 250 389 226 400 b 139 389 190 400 167 389 m 514 347 b 485 278 514 319 503 296 b 514 208 503 260 514 236 b 485 139 514 181 503 157 b 514 69 503 121 514 97 b 417 -28 514 15 471 -28 b 319 69 363 -28 319 15 b 349 139 319 97 331 121 l 347 140 b 278 111 329 122 306 111 b 208 140 250 111 226 122 l 207 139 b 236 69 225 121 236 97 b 139 -28 236 15 193 -28 b 42 69 85 -28 42 15 b 71 139 42 97 53 121 b 42 208 53 157 42 181 b 139 306 42 263 85 306 b 208 276 167 306 190 294 b 278 306 226 294 250 306 b 347 276 306 306 329 294 l 349 278 b 319 347 331 296 319 319 b 417 444 319 401 363 444 b 514 347 471 444 514 401 "},"â":{"ha":556,"x_min":0,"x_max":0,"o":"m 278 806 b 181 903 224 806 181 849 b 278 1000 181 957 224 1000 b 375 903 332 1000 375 957 b 278 806 375 849 332 806 m 139 667 b 42 764 85 667 42 710 b 139 861 42 818 85 861 b 236 764 193 861 236 818 b 139 667 236 710 193 667 m 319 764 b 417 861 319 818 363 861 b 514 764 471 861 514 818 b 417 667 514 710 471 667 b 319 764 363 667 319 710 m 139 389 b 42 486 85 389 42 432 b 139 583 42 540 85 583 b 208 554 167 583 190 572 b 278 583 226 572 250 583 b 375 486 332 583 375 540 b 278 389 375 432 332 389 b 208 418 250 389 226 400 b 139 389 190 400 167 389 m 514 347 b 485 278 514 319 503 296 b 514 208 503 260 514 236 b 485 139 514 181 503 157 b 514 69 503 121 514 97 b 417 -28 514 15 471 -28 b 319 69 363 -28 319 15 b 349 139 319 97 331 121 l 347 140 b 278 111 329 122 306 111 b 208 140 250 111 226 122 l 207 139 b 236 69 225 121 236 97 b 139 -28 236 15 193 -28 b 42 69 85 -28 42 15 b 71 139 42 97 53 121 b 42 208 53 157 42 181 b 139 306 42 263 85 306 b 208 276 167 306 190 294 b 278 306 226 294 250 306 b 347 276 306 306 329 294 l 349 278 b 319 347 331 296 319 319 b 417 444 319 401 363 444 b 514 347 471 444 514 401 "},"ä":{"ha":556,"x_min":0,"x_max":0,"o":"m 139 667 b 42 764 85 667 42 710 b 139 861 42 818 85 861 b 236 764 193 861 236 818 b 139 667 236 710 193 667 m 417 667 b 319 764 363 667 319 710 b 417 861 319 818 363 861 b 514 764 471 861 514 818 b 417 667 514 710 471 667 m 139 389 b 42 486 85 389 42 432 b 139 583 42 540 85 583 b 208 554 167 583 190 572 b 278 583 226 572 250 583 b 375 486 332 583 375 540 b 278 389 375 432 332 389 b 208 418 250 389 226 400 b 139 389 190 400 167 389 m 514 347 b 485 278 514 319 503 296 b 514 208 503 260 514 236 b 485 139 514 181 503 157 b 514 69 503 121 514 97 b 417 -28 514 15 471 -28 b 319 69 363 -28 319 15 b 349 139 319 97 331 121 l 347 140 b 278 111 329 122 306 111 b 208 140 250 111 226 122 l 207 139 b 236 69 225 121 236 97 b 139 -28 236 15 193 -28 b 42 69 85 -28 42 15 b 71 139 42 97 53 121 b 42 208 53 157 42 181 b 139 306 42 263 85 306 b 208 276 167 306 190 294 b 278 306 226 294 250 306 b 347 276 306 306 329 294 l 349 278 b 319 347 331 296 319 319 b 417 444 319 401 363 444 b 514 347 471 444 514 401 "},"à":{"ha":556,"x_min":0,"x_max":0,"o":"m 139 806 b 42 903 85 806 42 849 b 139 1000 42 957 85 1000 b 236 903 193 1000 236 957 b 139 806 236 849 193 806 m 181 764 b 278 861 181 818 224 861 b 375 764 332 861 375 818 b 278 667 375 710 332 667 b 181 764 224 667 181 710 m 139 389 b 42 486 85 389 42 432 b 139 583 42 540 85 583 b 208 554 167 583 190 572 b 278 583 226 572 250 583 b 375 486 332 583 375 540 b 278 389 375 432 332 389 b 208 418 250 389 226 400 b 139 389 190 400 167 389 m 514 208 b 485 139 514 181 503 157 b 514 69 503 121 514 97 b 417 -28 514 15 471 -28 b 319 69 363 -28 319 15 b 349 139 319 97 331 121 l 347 140 b 278 111 329 122 306 111 b 208 140 250 111 226 122 l 207 139 b 236 69 225 121 236 97 b 139 -28 236 15 193 -28 b 42 69 85 -28 42 15 b 71 139 42 97 53 121 b 42 208 53 157 42 181 b 139 306 42 263 85 306 b 208 276 167 306 190 294 b 278 306 226 294 250 306 b 347 276 306 306 329 294 l 349 278 b 319 347 331 296 319 319 b 417 444 319 401 363 444 b 514 347 471 444 514 401 b 485 278 514 319 503 296 b 514 208 503 260 514 236 "},"ā":{"ha":556,"x_min":0,"x_max":0,"o":"m 139 667 b 42 764 85 667 42 710 b 139 861 42 818 85 861 b 208 832 167 861 190 850 b 278 861 226 850 250 861 b 347 832 306 861 329 850 b 417 861 365 850 389 861 b 514 764 471 861 514 818 b 417 667 514 710 471 667 b 347 696 389 667 365 678 b 278 667 329 678 306 667 b 208 696 250 667 226 678 b 139 667 190 678 167 667 m 139 389 b 42 486 85 389 42 432 b 139 583 42 540 85 583 b 208 554 167 583 190 572 b 278 583 226 572 250 583 b 375 486 332 583 375 540 b 278 389 375 432 332 389 b 208 418 250 389 226 400 b 139 389 190 400 167 389 m 514 347 b 485 278 514 319 503 296 b 514 208 503 260 514 236 b 485 139 514 181 503 157 b 514 69 503 121 514 97 b 417 -28 514 15 471 -28 b 319 69 363 -28 319 15 b 349 139 319 97 331 121 l 347 140 b 278 111 329 122 306 111 b 208 140 250 111 226 122 l 207 139 b 236 69 225 121 236 97 b 139 -28 236 15 193 -28 b 42 69 85 -28 42 15 b 71 139 42 97 53 121 b 42 208 53 157 42 181 b 139 306 42 263 85 306 b 208 276 167 306 190 294 b 278 306 226 294 250 306 b 347 276 306 306 329 294 l 349 278 b 319 347 331 296 319 319 b 417 444 319 401 363 444 b 514 347 471 444 514 401 "},"ą":{"ha":556,"x_min":0,"x_max":0,"o":"m 139 389 b 42 486 85 389 42 432 b 139 583 42 540 85 583 b 208 554 167 583 190 572 b 278 583 226 572 250 583 b 375 486 332 583 375 540 b 278 389 375 432 332 389 b 208 418 250 389 226 400 b 139 389 190 400 167 389 m 514 208 b 485 139 514 181 503 157 b 514 69 503 121 514 97 b 417 -28 514 15 471 -28 b 319 69 363 -28 319 15 b 349 139 319 97 331 121 l 347 140 b 278 111 329 122 306 111 b 208 140 250 111 226 122 l 207 139 b 236 69 225 121 236 97 b 139 -28 236 15 193 -28 b 42 69 85 -28 42 15 b 71 139 42 97 53 121 b 42 208 53 157 42 181 b 139 306 42 263 85 306 b 208 276 167 306 190 294 b 278 306 226 294 250 306 b 347 276 306 306 329 294 l 349 278 b 319 347 331 296 319 319 b 417 444 319 401 363 444 b 514 347 471 444 514 401 b 485 278 514 319 503 296 b 514 208 503 260 514 236 m 417 -111 b 514 -208 471 -111 514 -154 b 417 -306 514 -262 471 -306 b 347 -276 389 -306 365 -294 b 278 -306 329 -294 306 -306 b 181 -208 224 -306 181 -262 b 210 -139 181 -181 192 -157 b 181 -69 192 -121 181 -97 b 278 28 181 -15 224 28 b 375 -69 332 28 375 -15 b 346 -139 375 -97 364 -121 l 347 -140 b 417 -111 365 -122 389 -111 "},"å":{"ha":556,"x_min":0,"x_max":0,"o":"m 278 806 b 181 903 224 806 181 849 b 278 1000 181 957 224 1000 b 375 903 332 1000 375 957 b 278 806 375 849 332 806 m 139 667 b 42 764 85 667 42 710 b 139 861 42 818 85 861 b 236 764 193 861 236 818 b 139 667 236 710 193 667 m 319 764 b 417 861 319 818 363 861 b 514 764 471 861 514 818 b 417 667 514 710 471 667 b 319 764 363 667 319 710 m 139 389 b 42 486 85 389 42 432 b 139 583 42 540 85 583 b 208 554 167 583 190 572 l 210 556 b 181 625 192 574 181 597 b 278 722 181 679 224 722 b 375 625 332 722 375 679 b 346 556 375 597 364 574 b 375 486 364 538 375 514 b 278 389 375 432 332 389 b 208 418 250 389 226 400 b 139 389 190 400 167 389 m 514 347 b 485 278 514 319 503 296 b 514 208 503 260 514 236 b 485 139 514 181 503 157 b 514 69 503 121 514 97 b 417 -28 514 15 471 -28 b 319 69 363 -28 319 15 b 349 139 319 97 331 121 l 347 140 b 278 111 329 122 306 111 b 208 140 250 111 226 122 l 207 139 b 236 69 225 121 236 97 b 139 -28 236 15 193 -28 b 42 69 85 -28 42 15 b 71 139 42 97 53 121 b 42 208 53 157 42 181 b 139 306 42 263 85 306 b 208 276 167 306 190 294 b 278 306 226 294 250 306 b 347 276 306 306 329 294 l 349 278 b 319 347 331 296 319 319 b 417 444 319 401 363 444 b 514 347 471 444 514 401 "},"ã":{"ha":556,"x_min":0,"x_max":0,"o":"m 278 806 b 181 903 224 806 181 849 b 278 1000 181 957 224 1000 b 375 903 332 1000 375 957 b 278 806 375 849 332 806 m 556 1000 b 653 903 610 1000 653 957 b 556 806 653 849 610 806 b 458 903 501 806 458 849 b 556 1000 458 957 501 1000 m 139 667 b 42 764 85 667 42 710 b 139 861 42 818 85 861 b 236 764 193 861 236 818 b 139 667 236 710 193 667 m 417 861 b 514 764 471 861 514 818 b 417 667 514 710 471 667 b 319 764 363 667 319 710 b 417 861 319 818 363 861 m 139 389 b 42 486 85 389 42 432 b 139 583 42 540 85 583 b 208 554 167 583 190 572 b 278 583 226 572 250 583 b 375 486 332 583 375 540 b 278 389 375 432 332 389 b 208 418 250 389 226 400 b 139 389 190 400 167 389 m 514 347 b 485 278 514 319 503 296 b 514 208 503 260 514 236 b 485 139 514 181 503 157 b 514 69 503 121 514 97 b 417 -28 514 15 471 -28 b 319 69 363 -28 319 15 b 349 139 319 97 331 121 l 347 140 b 278 111 329 122 306 111 b 208 140 250 111 226 122 l 207 139 b 236 69 225 121 236 97 b 139 -28 236 15 193 -28 b 42 69 85 -28 42 15 b 71 139 42 97 53 121 b 42 208 53 157 42 181 b 139 306 42 263 85 306 b 208 276 167 306 190 294 b 278 306 226 294 250 306 b 347 276 306 306 329 294 l 349 278 b 319 347 331 296 319 319 b 417 444 319 401 363 444 b 514 347 471 444 514 401 "},"æ":{"ha":833,"x_min":0,"x_max":0,"o":"m 694 167 b 792 69 749 167 792 124 b 694 -28 792 15 749 -28 b 625 1 667 -28 643 -17 b 556 -28 607 -17 583 -28 b 486 1 528 -28 504 -17 b 417 -28 468 -17 444 -28 b 319 69 363 -28 319 15 b 349 139 319 97 331 121 l 347 140 b 278 111 329 122 306 111 b 208 140 250 111 226 122 l 207 139 b 236 69 225 121 236 97 b 139 -28 236 15 193 -28 b 42 69 85 -28 42 15 b 71 139 42 97 53 121 b 42 208 53 157 42 181 b 139 306 42 263 85 306 b 208 276 167 306 190 294 b 278 306 226 294 250 306 b 347 276 306 306 329 294 l 349 278 b 319 347 331 296 319 319 b 417 444 319 401 363 444 b 486 415 444 444 468 433 l 488 417 b 458 486 469 435 458 458 b 556 583 458 540 501 583 b 653 486 610 583 653 540 b 624 417 653 458 642 435 l 625 415 b 694 444 643 433 667 444 b 792 347 749 444 792 401 b 694 250 792 293 749 250 b 625 279 667 250 643 261 b 556 250 607 261 583 250 b 486 279 528 250 504 261 l 485 278 b 514 208 503 260 514 236 b 485 139 514 181 503 157 l 486 138 b 556 167 504 156 528 167 b 625 138 583 167 607 156 b 694 167 643 156 667 167 m 139 389 b 42 486 85 389 42 432 b 139 583 42 540 85 583 b 208 554 167 583 190 572 b 278 583 226 572 250 583 b 375 486 332 583 375 540 b 278 389 375 432 332 389 b 208 418 250 389 226 400 b 139 389 190 400 167 389 "},"b":{"ha":556,"x_min":0,"x_max":0,"o":"m 278 167 b 375 69 332 167 375 124 b 278 -28 375 15 332 -28 b 208 1 250 -28 226 -17 b 139 -28 190 -17 167 -28 b 42 69 85 -28 42 15 b 71 139 42 97 53 121 b 42 208 53 157 42 181 b 71 278 42 236 53 260 b 42 347 53 296 42 319 b 71 417 42 375 53 399 b 42 486 53 435 42 458 b 71 556 42 514 53 538 b 42 625 53 574 42 597 b 139 722 42 679 85 722 b 236 625 193 722 236 679 b 207 556 236 597 225 574 l 208 554 b 278 583 226 572 250 583 b 375 486 332 583 375 540 b 278 389 375 432 332 389 b 208 418 250 389 226 400 l 207 417 b 236 347 225 399 236 375 b 207 278 236 319 225 296 b 236 208 225 260 236 236 b 207 139 236 181 225 157 l 208 138 b 278 167 226 156 250 167 m 485 278 b 514 208 503 260 514 236 b 417 111 514 154 471 111 b 319 208 363 111 319 154 b 349 278 319 236 331 260 b 319 347 331 296 319 319 b 417 444 319 401 363 444 b 514 347 471 444 514 401 b 485 278 514 319 503 296 "},"c":{"ha":556,"x_min":0,"x_max":0,"o":"m 278 389 b 181 486 224 389 181 432 b 278 583 181 540 224 583 b 375 486 332 583 375 540 b 278 389 375 432 332 389 m 236 208 b 139 111 236 154 193 111 b 42 208 85 111 42 154 b 71 278 42 236 53 260 b 42 347 53 296 42 319 b 139 444 42 401 85 444 b 236 347 193 444 236 401 b 207 278 236 319 225 296 b 236 208 225 260 236 236 m 319 347 b 417 444 319 401 363 444 b 514 347 471 444 514 401 b 417 250 514 293 471 250 b 319 347 363 250 319 293 m 417 167 b 514 69 471 167 514 124 b 417 -28 514 15 471 -28 b 347 1 389 -28 365 -17 b 278 -28 329 -17 306 -28 b 181 69 224 -28 181 15 b 278 167 181 124 224 167 b 347 138 306 167 329 156 b 417 167 365 156 389 167 "},"ć":{"ha":556,"x_min":0,"x_max":0,"o":"m 417 806 b 319 903 363 806 319 849 b 417 1000 319 957 363 1000 b 514 903 471 1000 514 957 b 417 806 514 849 471 806 m 278 667 b 181 764 224 667 181 710 b 278 861 181 818 224 861 b 375 764 332 861 375 818 b 278 667 375 710 332 667 m 278 389 b 181 486 224 389 181 432 b 278 583 181 540 224 583 b 375 486 332 583 375 540 b 278 389 375 432 332 389 m 236 208 b 139 111 236 154 193 111 b 42 208 85 111 42 154 b 71 278 42 236 53 260 b 42 347 53 296 42 319 b 139 444 42 401 85 444 b 236 347 193 444 236 401 b 207 278 236 319 225 296 b 236 208 225 260 236 236 m 417 444 b 514 347 471 444 514 401 b 417 250 514 293 471 250 b 319 347 363 250 319 293 b 417 444 319 401 363 444 m 417 167 b 514 69 471 167 514 124 b 417 -28 514 15 471 -28 b 347 1 389 -28 365 -17 b 278 -28 329 -17 306 -28 b 181 69 224 -28 181 15 b 278 167 181 124 224 167 b 347 138 306 167 329 156 b 417 167 365 156 389 167 "},"č":{"ha":556,"x_min":0,"x_max":0,"o":"m 139 806 b 42 903 85 806 42 849 b 139 1000 42 957 85 1000 b 236 903 193 1000 236 957 b 139 806 236 849 193 806 m 417 806 b 319 903 363 806 319 849 b 417 1000 319 957 363 1000 b 514 903 471 1000 514 957 b 417 806 514 849 471 806 m 181 764 b 278 861 181 818 224 861 b 375 764 332 861 375 818 b 278 667 375 710 332 667 b 181 764 224 667 181 710 m 278 583 b 375 486 332 583 375 540 b 278 389 375 432 332 389 b 181 486 224 389 181 432 b 278 583 181 540 224 583 m 236 208 b 139 111 236 154 193 111 b 42 208 85 111 42 154 b 71 278 42 236 53 260 b 42 347 53 296 42 319 b 139 444 42 401 85 444 b 236 347 193 444 236 401 b 207 278 236 319 225 296 b 236 208 225 260 236 236 m 417 444 b 514 347 471 444 514 401 b 417 250 514 293 471 250 b 319 347 363 250 319 293 b 417 444 319 401 363 444 m 417 167 b 514 69 471 167 514 124 b 417 -28 514 15 471 -28 b 347 1 389 -28 365 -17 b 278 -28 329 -17 306 -28 b 181 69 224 -28 181 15 b 278 167 181 124 224 167 b 347 138 306 167 329 156 b 417 167 365 156 389 167 "},"ç":{"ha":556,"x_min":0,"x_max":0,"o":"m 278 389 b 181 486 224 389 181 432 b 278 583 181 540 224 583 b 375 486 332 583 375 540 b 278 389 375 432 332 389 m 42 208 b 71 278 42 236 53 260 b 42 347 53 296 42 319 b 139 444 42 401 85 444 b 236 347 193 444 236 401 b 207 278 236 319 225 296 b 236 208 225 260 236 236 b 139 111 236 154 193 111 b 42 208 85 111 42 154 m 319 347 b 417 444 319 401 363 444 b 514 347 471 444 514 401 b 417 250 514 293 471 250 b 319 347 363 250 319 293 m 417 167 b 514 69 471 167 514 124 b 417 -28 514 15 471 -28 b 347 1 389 -28 365 -17 l 346 0 b 375 -69 364 -18 375 -42 b 346 -139 375 -97 364 -121 b 375 -208 364 -157 375 -181 b 278 -306 375 -262 332 -306 b 208 -276 250 -306 226 -294 b 139 -306 190 -294 167 -306 b 42 -208 85 -306 42 -262 b 139 -111 42 -154 85 -111 b 208 -140 167 -111 190 -122 l 210 -139 b 181 -69 192 -121 181 -97 b 210 0 181 -42 192 -18 b 181 69 192 18 181 42 b 278 167 181 124 224 167 b 347 138 306 167 329 156 b 417 167 365 156 389 167 "},"ċ":{"ha":556,"x_min":0,"x_max":0,"o":"m 278 667 b 181 764 224 667 181 710 b 278 861 181 818 224 861 b 375 764 332 861 375 818 b 278 667 375 710 332 667 m 278 389 b 181 486 224 389 181 432 b 278 583 181 540 224 583 b 375 486 332 583 375 540 b 278 389 375 432 332 389 m 236 208 b 139 111 236 154 193 111 b 42 208 85 111 42 154 b 71 278 42 236 53 260 b 42 347 53 296 42 319 b 139 444 42 401 85 444 b 236 347 193 444 236 401 b 207 278 236 319 225 296 b 236 208 225 260 236 236 m 319 347 b 417 444 319 401 363 444 b 514 347 471 444 514 401 b 417 250 514 293 471 250 b 319 347 363 250 319 293 m 417 167 b 514 69 471 167 514 124 b 417 -28 514 15 471 -28 b 347 1 389 -28 365 -17 b 278 -28 329 -17 306 -28 b 181 69 224 -28 181 15 b 278 167 181 124 224 167 b 347 138 306 167 329 156 b 417 167 365 156 389 167 "},"d":{"ha":556,"x_min":0,"x_max":0,"o":"m 514 486 b 485 417 514 458 503 435 b 514 347 503 399 514 375 b 485 278 514 319 503 296 b 514 208 503 260 514 236 b 485 139 514 181 503 157 b 514 69 503 121 514 97 b 417 -28 514 15 471 -28 b 347 1 389 -28 365 -17 b 278 -28 329 -17 306 -28 b 181 69 224 -28 181 15 b 278 167 181 124 224 167 b 347 138 306 167 329 156 l 349 139 b 319 208 331 157 319 181 b 349 278 319 236 331 260 b 319 347 331 296 319 319 b 349 417 319 375 331 399 l 347 418 b 278 389 329 400 306 389 b 181 486 224 389 181 432 b 278 583 181 540 224 583 b 347 554 306 583 329 572 l 349 556 b 319 625 331 574 319 597 b 417 722 319 679 363 722 b 514 625 471 722 514 679 b 485 556 514 597 503 574 b 514 486 503 538 514 514 m 236 208 b 139 111 236 154 193 111 b 42 208 85 111 42 154 b 71 278 42 236 53 260 b 42 347 53 296 42 319 b 139 444 42 401 85 444 b 236 347 193 444 236 401 b 207 278 236 319 225 296 b 236 208 225 260 236 236 "},"ð":{"ha":556,"x_min":0,"x_max":0,"o":"m 139 806 b 42 903 85 806 42 849 b 139 1000 42 957 85 1000 b 236 903 193 1000 236 957 b 139 806 236 849 193 806 m 417 806 b 319 903 363 806 319 849 b 417 1000 319 957 363 1000 b 514 903 471 1000 514 957 b 417 806 514 849 471 806 m 181 764 b 278 861 181 818 224 861 b 375 764 332 861 375 818 b 278 667 375 710 332 667 b 181 764 224 667 181 710 m 139 528 b 42 625 85 528 42 571 b 139 722 42 679 85 722 b 236 625 193 722 236 679 b 139 528 236 571 193 528 m 514 625 b 485 556 514 597 503 574 b 514 486 503 538 514 514 b 485 417 514 458 503 435 b 514 347 503 399 514 375 b 485 278 514 319 503 296 b 514 208 503 260 514 236 b 485 139 514 181 503 157 b 514 69 503 121 514 97 b 417 -28 514 15 471 -28 b 347 1 389 -28 365 -17 b 278 -28 329 -17 306 -28 b 181 69 224 -28 181 15 b 278 167 181 124 224 167 b 347 138 306 167 329 156 l 349 139 b 319 208 331 157 319 181 b 349 278 319 236 331 260 l 347 279 b 278 250 329 261 306 250 b 181 347 224 250 181 293 b 278 444 181 401 224 444 b 347 415 306 444 329 433 l 349 417 b 319 486 331 435 319 458 b 349 556 319 514 331 538 b 319 625 331 574 319 597 b 417 722 319 679 363 722 b 514 625 471 722 514 679 m 236 208 b 139 111 236 154 193 111 b 42 208 85 111 42 154 b 139 306 42 263 85 306 b 236 208 193 306 236 263 "},"ď":{"ha":972,"x_min":0,"x_max":0,"o":"m 514 625 b 485 556 514 597 503 574 b 514 486 503 538 514 514 b 485 417 514 458 503 435 b 514 347 503 399 514 375 b 485 278 514 319 503 296 b 514 208 503 260 514 236 b 485 139 514 181 503 157 b 514 69 503 121 514 97 b 417 -28 514 15 471 -28 b 347 1 389 -28 365 -17 b 278 -28 329 -17 306 -28 b 181 69 224 -28 181 15 b 278 167 181 124 224 167 b 347 138 306 167 329 156 l 349 139 b 319 208 331 157 319 181 b 349 278 319 236 331 260 b 319 347 331 296 319 319 b 349 417 319 375 331 399 l 347 418 b 278 389 329 400 306 389 b 181 486 224 389 181 432 b 278 583 181 540 224 583 b 347 554 306 583 329 572 l 349 556 b 319 625 331 574 319 597 b 417 722 319 679 363 722 b 514 625 471 722 514 679 m 901 556 b 931 486 919 538 931 514 b 833 389 931 432 888 389 b 736 486 779 389 736 432 b 765 556 736 514 747 538 l 764 557 b 694 528 746 539 722 528 b 597 625 640 528 597 571 b 694 722 597 679 640 722 b 764 693 722 722 746 711 b 833 722 782 711 806 722 b 931 625 888 722 931 679 b 901 556 931 597 919 574 m 236 208 b 139 111 236 154 193 111 b 42 208 85 111 42 154 b 71 278 42 236 53 260 b 42 347 53 296 42 319 b 139 444 42 401 85 444 b 236 347 193 444 236 401 b 207 278 236 319 225 296 b 236 208 225 260 236 236 m 694 444 b 792 347 749 444 792 401 b 694 250 792 293 749 250 b 597 347 640 250 597 293 b 694 444 597 401 640 444 "},"đ":{"ha":694,"x_min":0,"x_max":0,"o":"m 556 583 b 653 486 610 583 653 540 b 556 389 653 432 610 389 b 486 418 528 389 504 400 l 485 417 b 514 347 503 399 514 375 b 485 278 514 319 503 296 b 514 208 503 260 514 236 b 485 139 514 181 503 157 b 514 69 503 121 514 97 b 417 -28 514 15 471 -28 b 347 1 389 -28 365 -17 b 278 -28 329 -17 306 -28 b 181 69 224 -28 181 15 b 278 167 181 124 224 167 b 347 138 306 167 329 156 l 349 139 b 319 208 331 157 319 181 b 349 278 319 236 331 260 l 347 279 b 278 250 329 261 306 250 b 181 347 224 250 181 293 b 278 444 181 401 224 444 b 347 415 306 444 329 433 l 349 417 b 319 486 331 435 319 458 b 349 556 319 514 331 538 l 347 557 b 278 528 329 539 306 528 b 181 625 224 528 181 571 b 278 722 181 679 224 722 b 347 693 306 722 329 711 b 417 722 365 711 389 722 b 514 625 471 722 514 679 b 485 556 514 597 503 574 l 486 554 b 556 583 504 572 528 583 m 236 208 b 139 111 236 154 193 111 b 42 208 85 111 42 154 b 139 306 42 263 85 306 b 236 208 193 306 236 263 "},"e":{"ha":556,"x_min":0,"x_max":0,"o":"m 236 208 b 139 111 236 154 193 111 b 42 208 85 111 42 154 b 71 278 42 236 53 260 b 42 347 53 296 42 319 b 139 444 42 401 85 444 b 208 415 167 444 190 433 l 210 417 b 181 486 192 435 181 458 b 278 583 181 540 224 583 b 375 486 332 583 375 540 b 346 417 375 458 364 435 l 347 415 b 417 444 365 433 389 444 b 514 347 471 444 514 401 b 417 250 514 293 471 250 b 347 279 389 250 365 261 b 278 250 329 261 306 250 b 208 279 250 250 226 261 l 207 278 b 236 208 225 260 236 236 m 417 167 b 514 69 471 167 514 124 b 417 -28 514 15 471 -28 b 347 1 389 -28 365 -17 b 278 -28 329 -17 306 -28 b 181 69 224 -28 181 15 b 278 167 181 124 224 167 b 347 138 306 167 329 156 b 417 167 365 156 389 167 "},"é":{"ha":556,"x_min":0,"x_max":0,"o":"m 417 806 b 319 903 363 806 319 849 b 417 1000 319 957 363 1000 b 514 903 471 1000 514 957 b 417 806 514 849 471 806 m 278 667 b 181 764 224 667 181 710 b 278 861 181 818 224 861 b 375 764 332 861 375 818 b 278 667 375 710 332 667 m 417 444 b 514 347 471 444 514 401 b 417 250 514 293 471 250 b 347 279 389 250 365 261 b 278 250 329 261 306 250 b 208 279 250 250 226 261 l 207 278 b 236 208 225 260 236 236 b 139 111 236 154 193 111 b 42 208 85 111 42 154 b 71 278 42 236 53 260 b 42 347 53 296 42 319 b 139 444 42 401 85 444 b 208 415 167 444 190 433 l 210 417 b 181 486 192 435 181 458 b 278 583 181 540 224 583 b 375 486 332 583 375 540 b 346 417 375 458 364 435 l 347 415 b 417 444 365 433 389 444 m 417 167 b 514 69 471 167 514 124 b 417 -28 514 15 471 -28 b 347 1 389 -28 365 -17 b 278 -28 329 -17 306 -28 b 181 69 224 -28 181 15 b 278 167 181 124 224 167 b 347 138 306 167 329 156 b 417 167 365 156 389 167 "},"ě":{"ha":556,"x_min":0,"x_max":0,"o":"m 139 806 b 42 903 85 806 42 849 b 139 1000 42 957 85 1000 b 236 903 193 1000 236 957 b 139 806 236 849 193 806 m 417 806 b 319 903 363 806 319 849 b 417 1000 319 957 363 1000 b 514 903 471 1000 514 957 b 417 806 514 849 471 806 m 181 764 b 278 861 181 818 224 861 b 375 764 332 861 375 818 b 278 667 375 710 332 667 b 181 764 224 667 181 710 m 417 444 b 514 347 471 444 514 401 b 417 250 514 293 471 250 b 347 279 389 250 365 261 b 278 250 329 261 306 250 b 208 279 250 250 226 261 l 207 278 b 236 208 225 260 236 236 b 139 111 236 154 193 111 b 42 208 85 111 42 154 b 71 278 42 236 53 260 b 42 347 53 296 42 319 b 139 444 42 401 85 444 b 208 415 167 444 190 433 l 210 417 b 181 486 192 435 181 458 b 278 583 181 540 224 583 b 375 486 332 583 375 540 b 346 417 375 458 364 435 l 347 415 b 417 444 365 433 389 444 m 417 167 b 514 69 471 167 514 124 b 417 -28 514 15 471 -28 b 347 1 389 -28 365 -17 b 278 -28 329 -17 306 -28 b 181 69 224 -28 181 15 b 278 167 181 124 224 167 b 347 138 306 167 329 156 b 417 167 365 156 389 167 "},"ê":{"ha":556,"x_min":0,"x_max":0,"o":"m 278 806 b 181 903 224 806 181 849 b 278 1000 181 957 224 1000 b 375 903 332 1000 375 957 b 278 806 375 849 332 806 m 139 667 b 42 764 85 667 42 710 b 139 861 42 818 85 861 b 236 764 193 861 236 818 b 139 667 236 710 193 667 m 319 764 b 417 861 319 818 363 861 b 514 764 471 861 514 818 b 417 667 514 710 471 667 b 319 764 363 667 319 710 m 417 444 b 514 347 471 444 514 401 b 417 250 514 293 471 250 b 347 279 389 250 365 261 b 278 250 329 261 306 250 b 208 279 250 250 226 261 l 207 278 b 236 208 225 260 236 236 b 139 111 236 154 193 111 b 42 208 85 111 42 154 b 71 278 42 236 53 260 b 42 347 53 296 42 319 b 139 444 42 401 85 444 b 208 415 167 444 190 433 l 210 417 b 181 486 192 435 181 458 b 278 583 181 540 224 583 b 375 486 332 583 375 540 b 346 417 375 458 364 435 l 347 415 b 417 444 365 433 389 444 m 417 167 b 514 69 471 167 514 124 b 417 -28 514 15 471 -28 b 347 1 389 -28 365 -17 b 278 -28 329 -17 306 -28 b 181 69 224 -28 181 15 b 278 167 181 124 224 167 b 347 138 306 167 329 156 b 417 167 365 156 389 167 "},"ë":{"ha":556,"x_min":0,"x_max":0,"o":"m 139 667 b 42 764 85 667 42 710 b 139 861 42 818 85 861 b 236 764 193 861 236 818 b 139 667 236 710 193 667 m 417 667 b 319 764 363 667 319 710 b 417 861 319 818 363 861 b 514 764 471 861 514 818 b 417 667 514 710 471 667 m 417 444 b 514 347 471 444 514 401 b 417 250 514 293 471 250 b 347 279 389 250 365 261 b 278 250 329 261 306 250 b 208 279 250 250 226 261 l 207 278 b 236 208 225 260 236 236 b 139 111 236 154 193 111 b 42 208 85 111 42 154 b 71 278 42 236 53 260 b 42 347 53 296 42 319 b 139 444 42 401 85 444 b 208 415 167 444 190 433 l 210 417 b 181 486 192 435 181 458 b 278 583 181 540 224 583 b 375 486 332 583 375 540 b 346 417 375 458 364 435 l 347 415 b 417 444 365 433 389 444 m 417 167 b 514 69 471 167 514 124 b 417 -28 514 15 471 -28 b 347 1 389 -28 365 -17 b 278 -28 329 -17 306 -28 b 181 69 224 -28 181 15 b 278 167 181 124 224 167 b 347 138 306 167 329 156 b 417 167 365 156 389 167 "},"ė":{"ha":556,"x_min":0,"x_max":0,"o":"m 278 667 b 181 764 224 667 181 710 b 278 861 181 818 224 861 b 375 764 332 861 375 818 b 278 667 375 710 332 667 m 236 208 b 139 111 236 154 193 111 b 42 208 85 111 42 154 b 71 278 42 236 53 260 b 42 347 53 296 42 319 b 139 444 42 401 85 444 b 208 415 167 444 190 433 l 210 417 b 181 486 192 435 181 458 b 278 583 181 540 224 583 b 375 486 332 583 375 540 b 346 417 375 458 364 435 l 347 415 b 417 444 365 433 389 444 b 514 347 471 444 514 401 b 417 250 514 293 471 250 b 347 279 389 250 365 261 b 278 250 329 261 306 250 b 208 279 250 250 226 261 l 207 278 b 236 208 225 260 236 236 m 417 167 b 514 69 471 167 514 124 b 417 -28 514 15 471 -28 b 347 1 389 -28 365 -17 b 278 -28 329 -17 306 -28 b 181 69 224 -28 181 15 b 278 167 181 124 224 167 b 347 138 306 167 329 156 b 417 167 365 156 389 167 "},"è":{"ha":556,"x_min":0,"x_max":0,"o":"m 139 806 b 42 903 85 806 42 849 b 139 1000 42 957 85 1000 b 236 903 193 1000 236 957 b 139 806 236 849 193 806 m 181 764 b 278 861 181 818 224 861 b 375 764 332 861 375 818 b 278 667 375 710 332 667 b 181 764 224 667 181 710 m 236 208 b 139 111 236 154 193 111 b 42 208 85 111 42 154 b 71 278 42 236 53 260 b 42 347 53 296 42 319 b 139 444 42 401 85 444 b 208 415 167 444 190 433 l 210 417 b 181 486 192 435 181 458 b 278 583 181 540 224 583 b 375 486 332 583 375 540 b 346 417 375 458 364 435 l 347 415 b 417 444 365 433 389 444 b 514 347 471 444 514 401 b 417 250 514 293 471 250 b 347 279 389 250 365 261 b 278 250 329 261 306 250 b 208 279 250 250 226 261 l 207 278 b 236 208 225 260 236 236 m 417 167 b 514 69 471 167 514 124 b 417 -28 514 15 471 -28 b 347 1 389 -28 365 -17 b 278 -28 329 -17 306 -28 b 181 69 224 -28 181 15 b 278 167 181 124 224 167 b 347 138 306 167 329 156 b 417 167 365 156 389 167 "},"ē":{"ha":556,"x_min":0,"x_max":0,"o":"m 139 667 b 42 764 85 667 42 710 b 139 861 42 818 85 861 b 208 832 167 861 190 850 b 278 861 226 850 250 861 b 347 832 306 861 329 850 b 417 861 365 850 389 861 b 514 764 471 861 514 818 b 417 667 514 710 471 667 b 347 696 389 667 365 678 b 278 667 329 678 306 667 b 208 696 250 667 226 678 b 139 667 190 678 167 667 m 417 444 b 514 347 471 444 514 401 b 417 250 514 293 471 250 b 347 279 389 250 365 261 b 278 250 329 261 306 250 b 208 279 250 250 226 261 l 207 278 b 236 208 225 260 236 236 b 139 111 236 154 193 111 b 42 208 85 111 42 154 b 71 278 42 236 53 260 b 42 347 53 296 42 319 b 139 444 42 401 85 444 b 208 415 167 444 190 433 l 210 417 b 181 486 192 435 181 458 b 278 583 181 540 224 583 b 375 486 332 583 375 540 b 346 417 375 458 364 435 l 347 415 b 417 444 365 433 389 444 m 417 167 b 514 69 471 167 514 124 b 417 -28 514 15 471 -28 b 347 1 389 -28 365 -17 b 278 -28 329 -17 306 -28 b 181 69 224 -28 181 15 b 278 167 181 124 224 167 b 347 138 306 167 329 156 b 417 167 365 156 389 167 "},"ę":{"ha":556,"x_min":0,"x_max":0,"o":"m 236 208 b 139 111 236 154 193 111 b 42 208 85 111 42 154 b 71 278 42 236 53 260 b 42 347 53 296 42 319 b 139 444 42 401 85 444 b 208 415 167 444 190 433 l 210 417 b 181 486 192 435 181 458 b 278 583 181 540 224 583 b 375 486 332 583 375 540 b 346 417 375 458 364 435 l 347 415 b 417 444 365 433 389 444 b 514 347 471 444 514 401 b 417 250 514 293 471 250 b 347 279 389 250 365 261 b 278 250 329 261 306 250 b 208 279 250 250 226 261 l 207 278 b 236 208 225 260 236 236 m 346 0 b 375 -69 364 -18 375 -42 b 346 -139 375 -97 364 -121 l 347 -140 b 417 -111 365 -122 389 -111 b 514 -208 471 -111 514 -154 b 417 -306 514 -262 471 -306 b 347 -276 389 -306 365 -294 b 278 -306 329 -294 306 -306 b 181 -208 224 -306 181 -262 b 210 -139 181 -181 192 -157 b 181 -69 192 -121 181 -97 b 210 0 181 -42 192 -18 b 181 69 192 18 181 42 b 278 167 181 124 224 167 b 347 138 306 167 329 156 b 417 167 365 156 389 167 b 514 69 471 167 514 124 b 417 -28 514 15 471 -28 b 347 1 389 -28 365 -17 "},"f":{"ha":417,"x_min":0,"x_max":0,"o":"m 278 528 b 181 625 224 528 181 571 b 278 722 181 679 224 722 b 375 625 332 722 375 679 b 278 528 375 571 332 528 m 278 444 b 375 347 332 444 375 401 b 278 250 375 293 332 250 b 208 279 250 250 226 261 l 207 278 b 236 208 225 260 236 236 b 207 139 236 181 225 157 b 236 69 225 121 236 97 b 139 -28 236 15 193 -28 b 42 69 85 -28 42 15 b 71 139 42 97 53 121 b 42 208 53 157 42 181 b 71 278 42 236 53 260 b 42 347 53 296 42 319 b 71 417 42 375 53 399 b 42 486 53 435 42 458 b 139 583 42 540 85 583 b 236 486 193 583 236 540 b 207 417 236 458 225 435 l 208 415 b 278 444 226 433 250 444 "},"g":{"ha":556,"x_min":0,"x_max":0,"o":"m 485 278 b 514 208 503 260 514 236 b 417 111 514 154 471 111 b 319 208 363 111 319 154 b 349 278 319 236 331 260 l 347 279 b 278 250 329 261 306 250 b 208 279 250 250 226 261 b 139 250 190 261 167 250 b 42 347 85 250 42 293 b 71 417 42 375 53 399 b 42 486 53 435 42 458 b 139 583 42 540 85 583 b 208 554 167 583 190 572 b 278 583 226 572 250 583 b 375 486 332 583 375 540 b 346 417 375 458 364 435 l 347 415 b 417 444 365 433 389 444 b 514 347 471 444 514 401 b 485 278 514 319 503 296 m 210 417 b 208 418 210 417 208 418 l 207 417 b 208 415 207 417 208 415 m 278 167 b 375 69 332 167 375 124 b 278 -28 375 15 332 -28 b 208 1 250 -28 226 -17 b 139 -28 190 -17 167 -28 b 42 69 85 -28 42 15 b 139 167 42 124 85 167 b 208 138 167 167 190 156 b 278 167 226 156 250 167 "},"ğ":{"ha":556,"x_min":0,"x_max":0,"o":"m 485 833 b 514 764 503 815 514 792 b 417 667 514 710 471 667 b 347 696 389 667 365 678 b 278 667 329 678 306 667 b 208 696 250 667 226 678 b 139 667 190 678 167 667 b 42 764 85 667 42 710 b 71 833 42 792 53 815 b 42 903 53 851 42 875 b 139 1000 42 957 85 1000 b 236 903 193 1000 236 957 b 207 833 236 875 225 851 l 208 832 b 278 861 226 850 250 861 b 347 832 306 861 329 850 l 349 833 b 319 903 331 851 319 875 b 417 1000 319 957 363 1000 b 514 903 471 1000 514 957 b 485 833 514 875 503 851 m 514 347 b 485 278 514 319 503 296 b 514 208 503 260 514 236 b 417 111 514 154 471 111 b 319 208 363 111 319 154 b 349 278 319 236 331 260 l 347 279 b 278 250 329 261 306 250 b 208 279 250 250 226 261 b 139 250 190 261 167 250 b 42 347 85 250 42 293 b 71 417 42 375 53 399 b 42 486 53 435 42 458 b 139 583 42 540 85 583 b 208 554 167 583 190 572 b 278 583 226 572 250 583 b 375 486 332 583 375 540 b 346 417 375 458 364 435 l 347 415 b 417 444 365 433 389 444 b 514 347 471 444 514 401 m 210 417 b 208 418 210 417 208 418 l 207 417 b 208 415 207 417 208 415 m 278 167 b 375 69 332 167 375 124 b 278 -28 375 15 332 -28 b 208 1 250 -28 226 -17 b 139 -28 190 -17 167 -28 b 42 69 85 -28 42 15 b 139 167 42 124 85 167 b 208 138 167 167 190 156 b 278 167 226 156 250 167 "},"ģ":{"ha":556,"x_min":0,"x_max":0,"o":"m 417 944 b 319 1042 363 944 319 988 b 417 1139 319 1096 363 1139 b 514 1042 471 1139 514 1096 b 417 944 514 988 471 944 m 417 861 b 514 764 471 861 514 818 b 417 667 514 710 471 667 b 347 696 389 667 365 678 b 278 667 329 678 306 667 b 181 764 224 667 181 710 b 210 833 181 792 192 815 b 181 903 192 851 181 875 b 278 1000 181 957 224 1000 b 375 903 332 1000 375 957 b 346 833 375 875 364 851 l 347 832 b 417 861 365 850 389 861 m 514 347 b 485 278 514 319 503 296 b 514 208 503 260 514 236 b 417 111 514 154 471 111 b 319 208 363 111 319 154 b 349 278 319 236 331 260 l 347 279 b 278 250 329 261 306 250 b 208 279 250 250 226 261 b 139 250 190 261 167 250 b 42 347 85 250 42 293 b 71 417 42 375 53 399 b 42 486 53 435 42 458 b 139 583 42 540 85 583 b 208 554 167 583 190 572 b 278 583 226 572 250 583 b 375 486 332 583 375 540 b 346 417 375 458 364 435 l 347 415 b 417 444 365 433 389 444 b 514 347 471 444 514 401 m 210 417 b 208 418 210 417 208 418 l 207 417 b 208 415 207 417 208 415 m 278 167 b 375 69 332 167 375 124 b 278 -28 375 15 332 -28 b 208 1 250 -28 226 -17 b 139 -28 190 -17 167 -28 b 42 69 85 -28 42 15 b 139 167 42 124 85 167 b 208 138 167 167 190 156 b 278 167 226 156 250 167 "},"ġ":{"ha":556,"x_min":0,"x_max":0,"o":"m 278 667 b 181 764 224 667 181 710 b 278 861 181 818 224 861 b 375 764 332 861 375 818 b 278 667 375 710 332 667 m 485 278 b 514 208 503 260 514 236 b 417 111 514 154 471 111 b 319 208 363 111 319 154 b 349 278 319 236 331 260 l 347 279 b 278 250 329 261 306 250 b 208 279 250 250 226 261 b 139 250 190 261 167 250 b 42 347 85 250 42 293 b 71 417 42 375 53 399 b 42 486 53 435 42 458 b 139 583 42 540 85 583 b 208 554 167 583 190 572 b 278 583 226 572 250 583 b 375 486 332 583 375 540 b 346 417 375 458 364 435 l 347 415 b 417 444 365 433 389 444 b 514 347 471 444 514 401 b 485 278 514 319 503 296 m 210 417 b 208 418 210 417 208 418 l 207 417 b 208 415 207 417 208 415 m 278 167 b 375 69 332 167 375 124 b 278 -28 375 15 332 -28 b 208 1 250 -28 226 -17 b 139 -28 190 -17 167 -28 b 42 69 85 -28 42 15 b 139 167 42 124 85 167 b 208 138 167 167 190 156 b 278 167 226 156 250 167 "},"h":{"ha":556,"x_min":0,"x_max":0,"o":"m 207 417 b 236 347 225 399 236 375 b 207 278 236 319 225 296 b 236 208 225 260 236 236 b 207 139 236 181 225 157 b 236 69 225 121 236 97 b 139 -28 236 15 193 -28 b 42 69 85 -28 42 15 b 71 139 42 97 53 121 b 42 208 53 157 42 181 b 71 278 42 236 53 260 b 42 347 53 296 42 319 b 71 417 42 375 53 399 b 42 486 53 435 42 458 b 71 556 42 514 53 538 b 42 625 53 574 42 597 b 139 722 42 679 85 722 b 236 625 193 722 236 679 b 207 556 236 597 225 574 l 208 554 b 278 583 226 572 250 583 b 375 486 332 583 375 540 b 278 389 375 432 332 389 b 208 418 250 389 226 400 m 514 208 b 485 139 514 181 503 157 b 514 69 503 121 514 97 b 417 -28 514 15 471 -28 b 319 69 363 -28 319 15 b 349 139 319 97 331 121 b 319 208 331 157 319 181 b 349 278 319 236 331 260 b 319 347 331 296 319 319 b 417 444 319 401 363 444 b 514 347 471 444 514 401 b 485 278 514 319 503 296 b 514 208 503 260 514 236 "},"ħ":{"ha":694,"x_min":0,"x_max":0,"o":"m 346 278 b 375 208 364 260 375 236 b 346 139 375 181 364 157 b 375 69 364 121 375 97 b 278 -28 375 15 332 -28 b 181 69 224 -28 181 15 b 210 139 181 97 192 121 b 181 208 192 157 181 181 b 210 278 181 236 192 260 b 181 347 192 296 181 319 b 210 417 181 375 192 399 l 208 418 b 139 389 190 400 167 389 b 42 486 85 389 42 432 b 139 583 42 540 85 583 b 208 554 167 583 190 572 l 210 556 b 181 625 192 574 181 597 b 278 722 181 679 224 722 b 347 693 306 722 329 711 b 417 722 365 711 389 722 b 514 625 471 722 514 679 b 417 528 514 571 471 528 b 347 557 389 528 365 539 l 346 556 b 375 486 364 538 375 514 b 346 417 375 458 364 435 l 347 415 b 417 444 365 433 389 444 b 514 347 471 444 514 401 b 417 250 514 293 471 250 b 347 279 389 250 365 261 m 624 139 b 653 69 642 121 653 97 b 556 -28 653 15 610 -28 b 458 69 501 -28 458 15 b 488 139 458 97 469 121 b 458 208 469 157 458 181 b 556 306 458 263 501 306 b 653 208 610 306 653 263 b 624 139 653 181 642 157 "},"i":{"ha":278,"x_min":0,"x_max":0,"o":"m 139 528 b 42 625 85 528 42 571 b 139 722 42 679 85 722 b 236 625 193 722 236 679 b 139 528 236 571 193 528 m 236 347 b 207 278 236 319 225 296 b 236 208 225 260 236 236 b 207 139 236 181 225 157 b 236 69 225 121 236 97 b 139 -28 236 15 193 -28 b 42 69 85 -28 42 15 b 71 139 42 97 53 121 b 42 208 53 157 42 181 b 71 278 42 236 53 260 b 42 347 53 296 42 319 b 139 444 42 401 85 444 b 236 347 193 444 236 401 "},"ı":{"ha":278,"x_min":0,"x_max":0,"o":"m 236 347 b 207 278 236 319 225 296 b 236 208 225 260 236 236 b 207 139 236 181 225 157 b 236 69 225 121 236 97 b 139 -28 236 15 193 -28 b 42 69 85 -28 42 15 b 71 139 42 97 53 121 b 42 208 53 157 42 181 b 71 278 42 236 53 260 b 42 347 53 296 42 319 b 71 417 42 375 53 399 b 42 486 53 435 42 458 b 139 583 42 540 85 583 b 236 486 193 583 236 540 b 207 417 236 458 225 435 b 236 347 225 399 236 375 "},"í":{"ha":278,"x_min":0,"x_max":0,"o":"m 278 1000 b 375 903 332 1000 375 957 b 278 806 375 849 332 806 b 181 903 224 806 181 849 b 278 1000 181 957 224 1000 m 139 861 b 236 764 193 861 236 818 b 139 667 236 710 193 667 b 42 764 85 667 42 710 b 139 861 42 818 85 861 m 236 486 b 207 417 236 458 225 435 b 236 347 225 399 236 375 b 207 278 236 319 225 296 b 236 208 225 260 236 236 b 207 139 236 181 225 157 b 236 69 225 121 236 97 b 139 -28 236 15 193 -28 b 42 69 85 -28 42 15 b 71 139 42 97 53 121 b 42 208 53 157 42 181 b 71 278 42 236 53 260 b 42 347 53 296 42 319 b 71 417 42 375 53 399 b 42 486 53 435 42 458 b 139 583 42 540 85 583 b 236 486 193 583 236 540 "},"î":{"ha":278,"x_min":0,"x_max":0,"o":"m 139 806 b 42 903 85 806 42 849 b 139 1000 42 957 85 1000 b 236 903 193 1000 236 957 b 139 806 236 849 193 806 m 97 764 b 0 667 97 710 54 667 b -97 764 -54 667 -97 710 b 0 861 -97 818 -54 861 b 97 764 54 861 97 818 m 278 861 b 375 764 332 861 375 818 b 278 667 375 710 332 667 b 181 764 224 667 181 710 b 278 861 181 818 224 861 m 236 486 b 207 417 236 458 225 435 b 236 347 225 399 236 375 b 207 278 236 319 225 296 b 236 208 225 260 236 236 b 207 139 236 181 225 157 b 236 69 225 121 236 97 b 139 -28 236 15 193 -28 b 42 69 85 -28 42 15 b 71 139 42 97 53 121 b 42 208 53 157 42 181 b 71 278 42 236 53 260 b 42 347 53 296 42 319 b 71 417 42 375 53 399 b 42 486 53 435 42 458 b 139 583 42 540 85 583 b 236 486 193 583 236 540 "},"ï":{"ha":278,"x_min":0,"x_max":0,"o":"m 97 764 b 0 667 97 710 54 667 b -97 764 -54 667 -97 710 b 0 861 -97 818 -54 861 b 97 764 54 861 97 818 m 278 861 b 375 764 332 861 375 818 b 278 667 375 710 332 667 b 181 764 224 667 181 710 b 278 861 181 818 224 861 m 236 486 b 207 417 236 458 225 435 b 236 347 225 399 236 375 b 207 278 236 319 225 296 b 236 208 225 260 236 236 b 207 139 236 181 225 157 b 236 69 225 121 236 97 b 139 -28 236 15 193 -28 b 42 69 85 -28 42 15 b 71 139 42 97 53 121 b 42 208 53 157 42 181 b 71 278 42 236 53 260 b 42 347 53 296 42 319 b 71 417 42 375 53 399 b 42 486 53 435 42 458 b 139 583 42 540 85 583 b 236 486 193 583 236 540 "},"ì":{"ha":278,"x_min":0,"x_max":0,"o":"m 97 903 b 0 806 97 849 54 806 b -97 903 -54 806 -97 849 b 0 1000 -97 957 -54 1000 b 97 903 54 1000 97 957 m 42 764 b 139 861 42 818 85 861 b 236 764 193 861 236 818 b 139 667 236 710 193 667 b 42 764 85 667 42 710 m 236 486 b 207 417 236 458 225 435 b 236 347 225 399 236 375 b 207 278 236 319 225 296 b 236 208 225 260 236 236 b 207 139 236 181 225 157 b 236 69 225 121 236 97 b 139 -28 236 15 193 -28 b 42 69 85 -28 42 15 b 71 139 42 97 53 121 b 42 208 53 157 42 181 b 71 278 42 236 53 260 b 42 347 53 296 42 319 b 71 417 42 375 53 399 b 42 486 53 435 42 458 b 139 583 42 540 85 583 b 236 486 193 583 236 540 "},"ī":{"ha":278,"x_min":0,"x_max":0,"o":"m 278 861 b 375 764 332 861 375 818 b 278 667 375 710 332 667 b 208 696 250 667 226 678 b 139 667 190 678 167 667 b 69 696 111 667 88 678 b 0 667 51 678 28 667 b -97 764 -54 667 -97 710 b 0 861 -97 818 -54 861 b 69 832 28 861 51 850 b 139 861 88 850 111 861 b 208 832 167 861 190 850 b 278 861 226 850 250 861 m 236 486 b 207 417 236 458 225 435 b 236 347 225 399 236 375 b 207 278 236 319 225 296 b 236 208 225 260 236 236 b 207 139 236 181 225 157 b 236 69 225 121 236 97 b 139 -28 236 15 193 -28 b 42 69 85 -28 42 15 b 71 139 42 97 53 121 b 42 208 53 157 42 181 b 71 278 42 236 53 260 b 42 347 53 296 42 319 b 71 417 42 375 53 399 b 42 486 53 435 42 458 b 139 583 42 540 85 583 b 236 486 193 583 236 540 "},"į":{"ha":278,"x_min":0,"x_max":0,"o":"m 139 667 b 42 764 85 667 42 710 b 139 861 42 818 85 861 b 236 764 193 861 236 818 b 139 667 236 710 193 667 m 236 486 b 207 417 236 458 225 435 b 236 347 225 399 236 375 b 207 278 236 319 225 296 b 236 208 225 260 236 236 b 207 139 236 181 225 157 b 236 69 225 121 236 97 b 139 -28 236 15 193 -28 b 42 69 85 -28 42 15 b 71 139 42 97 53 121 b 42 208 53 157 42 181 b 71 278 42 236 53 260 b 42 347 53 296 42 319 b 71 417 42 375 53 399 b 42 486 53 435 42 458 b 139 583 42 540 85 583 b 236 486 193 583 236 540 m 139 -111 b 236 -208 193 -111 236 -154 b 139 -306 236 -262 193 -306 b 69 -276 111 -306 88 -294 b 0 -306 51 -294 28 -306 b -97 -208 -54 -306 -97 -262 b -68 -139 -97 -181 -86 -157 b -97 -69 -86 -121 -97 -97 b 0 28 -97 -15 -54 28 b 97 -69 54 28 97 -15 b 68 -139 97 -97 86 -121 l 69 -140 b 139 -111 88 -122 111 -111 "},"j":{"ha":556,"x_min":0,"x_max":0,"o":"m 514 347 b 485 278 514 319 503 296 b 514 208 503 260 514 236 b 417 111 514 154 471 111 b 319 208 363 111 319 154 b 349 278 319 236 331 260 b 319 347 331 296 319 319 b 349 417 319 375 331 399 l 347 418 b 278 389 329 400 306 389 b 181 486 224 389 181 432 b 278 583 181 540 224 583 b 347 554 306 583 329 572 b 417 583 365 572 389 583 b 514 486 471 583 514 540 b 485 417 514 458 503 435 b 514 347 503 399 514 375 m 236 208 b 139 111 236 154 193 111 b 42 208 85 111 42 154 b 139 306 42 263 85 306 b 236 208 193 306 236 263 m 278 167 b 375 69 332 167 375 124 b 278 -28 375 15 332 -28 b 181 69 224 -28 181 15 b 278 167 181 124 224 167 "},"k":{"ha":556,"x_min":0,"x_max":0,"o":"m 207 139 b 236 69 225 121 236 97 b 139 -28 236 15 193 -28 b 42 69 85 -28 42 15 b 71 139 42 97 53 121 b 42 208 53 157 42 181 b 71 278 42 236 53 260 b 42 347 53 296 42 319 b 71 417 42 375 53 399 b 42 486 53 435 42 458 b 71 556 42 514 53 538 b 42 625 53 574 42 597 b 139 722 42 679 85 722 b 236 625 193 722 236 679 b 207 556 236 597 225 574 b 236 486 225 538 236 514 b 207 417 236 458 225 435 l 208 415 b 278 444 226 433 250 444 b 375 347 332 444 375 401 b 346 278 375 319 364 296 b 375 208 364 260 375 236 b 278 111 375 154 332 111 b 208 140 250 111 226 122 m 417 389 b 319 486 363 389 319 432 b 417 583 319 540 363 583 b 514 486 471 583 514 540 b 417 389 514 432 471 389 m 207 278 b 208 276 207 278 208 276 l 210 278 b 208 279 210 278 208 279 m 417 167 b 514 69 471 167 514 124 b 417 -28 514 15 471 -28 b 319 69 363 -28 319 15 b 417 167 319 124 363 167 "},"ķ":{"ha":556,"x_min":0,"x_max":0,"o":"m 42 69 b 71 139 42 97 53 121 b 42 208 53 157 42 181 b 71 278 42 236 53 260 b 42 347 53 296 42 319 b 71 417 42 375 53 399 b 42 486 53 435 42 458 b 71 556 42 514 53 538 b 42 625 53 574 42 597 b 139 722 42 679 85 722 b 236 625 193 722 236 679 b 207 556 236 597 225 574 b 236 486 225 538 236 514 b 207 417 236 458 225 435 l 208 415 b 278 444 226 433 250 444 b 375 347 332 444 375 401 b 346 278 375 319 364 296 b 375 208 364 260 375 236 b 278 111 375 154 332 111 b 208 140 250 111 226 122 l 207 139 b 236 69 225 121 236 97 b 139 -28 236 15 193 -28 b 42 69 85 -28 42 15 m 417 389 b 319 486 363 389 319 432 b 417 583 319 540 363 583 b 514 486 471 583 514 540 b 417 389 514 432 471 389 m 207 278 b 208 276 207 278 208 276 l 210 278 b 208 279 210 278 208 279 m 417 167 b 514 69 471 167 514 124 b 417 -28 514 15 471 -28 b 319 69 363 -28 319 15 b 417 167 319 124 363 167 m 375 -208 b 346 -278 375 -236 364 -260 b 375 -347 364 -296 375 -319 b 278 -444 375 -401 332 -444 b 181 -347 224 -444 181 -401 b 210 -278 181 -319 192 -296 l 208 -276 b 139 -306 190 -294 167 -306 b 42 -208 85 -306 42 -262 b 139 -111 42 -154 85 -111 b 208 -140 167 -111 190 -122 b 278 -111 226 -122 250 -111 b 375 -208 332 -111 375 -154 m 139 -389 b 236 -486 193 -389 236 -432 b 139 -583 236 -540 193 -583 b 42 -486 85 -583 42 -540 b 139 -389 42 -432 85 -389 "},"l":{"ha":278,"x_min":0,"x_max":0,"o":"m 236 486 b 207 417 236 458 225 435 b 236 347 225 399 236 375 b 207 278 236 319 225 296 b 236 208 225 260 236 236 b 207 139 236 181 225 157 b 236 69 225 121 236 97 b 139 -28 236 15 193 -28 b 42 69 85 -28 42 15 b 71 139 42 97 53 121 b 42 208 53 157 42 181 b 71 278 42 236 53 260 b 42 347 53 296 42 319 b 71 417 42 375 53 399 b 42 486 53 435 42 458 b 71 556 42 514 53 538 b 42 625 53 574 42 597 b 139 722 42 679 85 722 b 236 625 193 722 236 679 b 207 556 236 597 225 574 b 236 486 225 538 236 514 "},"ĺ":{"ha":278,"x_min":0,"x_max":0,"o":"m 278 1139 b 375 1042 332 1139 375 1096 b 278 944 375 988 332 944 b 181 1042 224 944 181 988 b 278 1139 181 1096 224 1139 m 139 1000 b 236 903 193 1000 236 957 b 139 806 236 849 193 806 b 42 903 85 806 42 849 b 139 1000 42 957 85 1000 m 236 625 b 207 556 236 597 225 574 b 236 486 225 538 236 514 b 207 417 236 458 225 435 b 236 347 225 399 236 375 b 207 278 236 319 225 296 b 236 208 225 260 236 236 b 207 139 236 181 225 157 b 236 69 225 121 236 97 b 139 -28 236 15 193 -28 b 42 69 85 -28 42 15 b 71 139 42 97 53 121 b 42 208 53 157 42 181 b 71 278 42 236 53 260 b 42 347 53 296 42 319 b 71 417 42 375 53 399 b 42 486 53 435 42 458 b 71 556 42 514 53 538 b 42 625 53 574 42 597 b 139 722 42 679 85 722 b 236 625 193 722 236 679 "},"ľ":{"ha":694,"x_min":0,"x_max":0,"o":"m 236 625 b 207 556 236 597 225 574 b 236 486 225 538 236 514 b 207 417 236 458 225 435 b 236 347 225 399 236 375 b 207 278 236 319 225 296 b 236 208 225 260 236 236 b 207 139 236 181 225 157 b 236 69 225 121 236 97 b 139 -28 236 15 193 -28 b 42 69 85 -28 42 15 b 71 139 42 97 53 121 b 42 208 53 157 42 181 b 71 278 42 236 53 260 b 42 347 53 296 42 319 b 71 417 42 375 53 399 b 42 486 53 435 42 458 b 71 556 42 514 53 538 b 42 625 53 574 42 597 b 139 722 42 679 85 722 b 236 625 193 722 236 679 m 624 556 b 653 486 642 538 653 514 b 556 389 653 432 610 389 b 458 486 501 389 458 432 b 488 556 458 514 469 538 l 486 557 b 417 528 468 539 444 528 b 319 625 363 528 319 571 b 417 722 319 679 363 722 b 486 693 444 722 468 711 b 556 722 504 711 528 722 b 653 625 610 722 653 679 b 624 556 653 597 642 574 m 417 444 b 514 347 471 444 514 401 b 417 250 514 293 471 250 b 319 347 363 250 319 293 b 417 444 319 401 363 444 "},"ļ":{"ha":278,"x_min":0,"x_max":0,"o":"m 236 486 b 207 417 236 458 225 435 b 236 347 225 399 236 375 b 207 278 236 319 225 296 b 236 208 225 260 236 236 b 207 139 236 181 225 157 b 236 69 225 121 236 97 b 139 -28 236 15 193 -28 b 42 69 85 -28 42 15 b 71 139 42 97 53 121 b 42 208 53 157 42 181 b 71 278 42 236 53 260 b 42 347 53 296 42 319 b 71 417 42 375 53 399 b 42 486 53 435 42 458 b 71 556 42 514 53 538 b 42 625 53 574 42 597 b 139 722 42 679 85 722 b 236 625 193 722 236 679 b 207 556 236 597 225 574 b 236 486 225 538 236 514 m 236 -208 b 207 -278 236 -236 225 -260 b 236 -347 225 -296 236 -319 b 139 -444 236 -401 193 -444 b 42 -347 85 -444 42 -401 b 71 -278 42 -319 53 -296 l 69 -276 b 0 -306 51 -294 28 -306 b -97 -208 -54 -306 -97 -262 b 0 -111 -97 -154 -54 -111 b 69 -140 28 -111 51 -122 b 139 -111 88 -122 111 -111 b 236 -208 193 -111 236 -154 m 0 -389 b 97 -486 54 -389 97 -432 b 0 -583 97 -540 54 -583 b -97 -486 -54 -583 -97 -540 b 0 -389 -97 -432 -54 -389 "},"ł":{"ha":556,"x_min":0,"x_max":0,"o":"m 417 583 b 514 486 471 583 514 540 b 417 389 514 432 471 389 b 347 418 389 389 365 400 l 346 417 b 375 347 364 399 375 375 b 346 278 375 319 364 296 b 375 208 364 260 375 236 b 346 139 375 181 364 157 b 375 69 364 121 375 97 b 278 -28 375 15 332 -28 b 181 69 224 -28 181 15 b 210 139 181 97 192 121 b 181 208 192 157 181 181 b 210 278 181 236 192 260 l 208 279 b 139 250 190 261 167 250 b 42 347 85 250 42 293 b 139 444 42 401 85 444 b 208 415 167 444 190 433 l 210 417 b 181 486 192 435 181 458 b 210 556 181 514 192 538 b 181 625 192 574 181 597 b 278 722 181 679 224 722 b 375 625 332 722 375 679 b 346 556 375 597 364 574 l 347 554 b 417 583 365 572 389 583 "},"m":{"ha":833,"x_min":0,"x_max":0,"o":"m 207 417 b 236 347 225 399 236 375 b 207 278 236 319 225 296 b 236 208 225 260 236 236 b 207 139 236 181 225 157 b 236 69 225 121 236 97 b 139 -28 236 15 193 -28 b 42 69 85 -28 42 15 b 71 139 42 97 53 121 b 42 208 53 157 42 181 b 71 278 42 236 53 260 b 42 347 53 296 42 319 b 71 417 42 375 53 399 b 42 486 53 435 42 458 b 139 583 42 540 85 583 b 208 554 167 583 190 572 b 278 583 226 572 250 583 b 375 486 332 583 375 540 b 278 389 375 432 332 389 b 208 418 250 389 226 400 m 653 486 b 556 389 653 432 610 389 b 458 486 501 389 458 432 b 556 583 458 540 501 583 b 653 486 610 583 653 540 m 514 347 b 485 278 514 319 503 296 b 514 208 503 260 514 236 b 485 139 514 181 503 157 b 514 69 503 121 514 97 b 417 -28 514 15 471 -28 b 319 69 363 -28 319 15 b 349 139 319 97 331 121 b 319 208 331 157 319 181 b 349 278 319 236 331 260 b 319 347 331 296 319 319 b 417 444 319 401 363 444 b 514 347 471 444 514 401 m 792 208 b 763 139 792 181 781 157 b 792 69 781 121 792 97 b 694 -28 792 15 749 -28 b 597 69 640 -28 597 15 b 626 139 597 97 608 121 b 597 208 608 157 597 181 b 626 278 597 236 608 260 b 597 347 608 296 597 319 b 694 444 597 401 640 444 b 792 347 749 444 792 401 b 763 278 792 319 781 296 b 792 208 781 260 792 236 "},"n":{"ha":556,"x_min":0,"x_max":0,"o":"m 207 417 b 236 347 225 399 236 375 b 207 278 236 319 225 296 b 236 208 225 260 236 236 b 207 139 236 181 225 157 b 236 69 225 121 236 97 b 139 -28 236 15 193 -28 b 42 69 85 -28 42 15 b 71 139 42 97 53 121 b 42 208 53 157 42 181 b 71 278 42 236 53 260 b 42 347 53 296 42 319 b 71 417 42 375 53 399 b 42 486 53 435 42 458 b 139 583 42 540 85 583 b 208 554 167 583 190 572 b 278 583 226 572 250 583 b 375 486 332 583 375 540 b 278 389 375 432 332 389 b 208 418 250 389 226 400 m 514 208 b 485 139 514 181 503 157 b 514 69 503 121 514 97 b 417 -28 514 15 471 -28 b 319 69 363 -28 319 15 b 349 139 319 97 331 121 b 319 208 331 157 319 181 b 349 278 319 236 331 260 b 319 347 331 296 319 319 b 417 444 319 401 363 444 b 514 347 471 444 514 401 b 485 278 514 319 503 296 b 514 208 503 260 514 236 "},"ń":{"ha":556,"x_min":0,"x_max":0,"o":"m 417 806 b 319 903 363 806 319 849 b 417 1000 319 957 363 1000 b 514 903 471 1000 514 957 b 417 806 514 849 471 806 m 278 667 b 181 764 224 667 181 710 b 278 861 181 818 224 861 b 375 764 332 861 375 818 b 278 667 375 710 332 667 m 207 417 b 236 347 225 399 236 375 b 207 278 236 319 225 296 b 236 208 225 260 236 236 b 207 139 236 181 225 157 b 236 69 225 121 236 97 b 139 -28 236 15 193 -28 b 42 69 85 -28 42 15 b 71 139 42 97 53 121 b 42 208 53 157 42 181 b 71 278 42 236 53 260 b 42 347 53 296 42 319 b 71 417 42 375 53 399 b 42 486 53 435 42 458 b 139 583 42 540 85 583 b 208 554 167 583 190 572 b 278 583 226 572 250 583 b 375 486 332 583 375 540 b 278 389 375 432 332 389 b 208 418 250 389 226 400 m 514 347 b 485 278 514 319 503 296 b 514 208 503 260 514 236 b 485 139 514 181 503 157 b 514 69 503 121 514 97 b 417 -28 514 15 471 -28 b 319 69 363 -28 319 15 b 349 139 319 97 331 121 b 319 208 331 157 319 181 b 349 278 319 236 331 260 b 319 347 331 296 319 319 b 417 444 319 401 363 444 b 514 347 471 444 514 401 "},"ň":{"ha":556,"x_min":0,"x_max":0,"o":"m 139 806 b 42 903 85 806 42 849 b 139 1000 42 957 85 1000 b 236 903 193 1000 236 957 b 139 806 236 849 193 806 m 417 806 b 319 903 363 806 319 849 b 417 1000 319 957 363 1000 b 514 903 471 1000 514 957 b 417 806 514 849 471 806 m 181 764 b 278 861 181 818 224 861 b 375 764 332 861 375 818 b 278 667 375 710 332 667 b 181 764 224 667 181 710 m 207 417 b 236 347 225 399 236 375 b 207 278 236 319 225 296 b 236 208 225 260 236 236 b 207 139 236 181 225 157 b 236 69 225 121 236 97 b 139 -28 236 15 193 -28 b 42 69 85 -28 42 15 b 71 139 42 97 53 121 b 42 208 53 157 42 181 b 71 278 42 236 53 260 b 42 347 53 296 42 319 b 71 417 42 375 53 399 b 42 486 53 435 42 458 b 139 583 42 540 85 583 b 208 554 167 583 190 572 b 278 583 226 572 250 583 b 375 486 332 583 375 540 b 278 389 375 432 332 389 b 208 418 250 389 226 400 m 514 347 b 485 278 514 319 503 296 b 514 208 503 260 514 236 b 485 139 514 181 503 157 b 514 69 503 121 514 97 b 417 -28 514 15 471 -28 b 319 69 363 -28 319 15 b 349 139 319 97 331 121 b 319 208 331 157 319 181 b 349 278 319 236 331 260 b 319 347 331 296 319 319 b 417 444 319 401 363 444 b 514 347 471 444 514 401 "},"ņ":{"ha":556,"x_min":0,"x_max":0,"o":"m 42 69 b 71 139 42 97 53 121 b 42 208 53 157 42 181 b 71 278 42 236 53 260 b 42 347 53 296 42 319 b 71 417 42 375 53 399 b 42 486 53 435 42 458 b 139 583 42 540 85 583 b 208 554 167 583 190 572 b 278 583 226 572 250 583 b 375 486 332 583 375 540 b 278 389 375 432 332 389 b 208 418 250 389 226 400 l 207 417 b 236 347 225 399 236 375 b 207 278 236 319 225 296 b 236 208 225 260 236 236 b 207 139 236 181 225 157 b 236 69 225 121 236 97 b 139 -28 236 15 193 -28 b 42 69 85 -28 42 15 m 514 208 b 485 139 514 181 503 157 b 514 69 503 121 514 97 b 417 -28 514 15 471 -28 b 319 69 363 -28 319 15 b 349 139 319 97 331 121 b 319 208 331 157 319 181 b 349 278 319 236 331 260 b 319 347 331 296 319 319 b 417 444 319 401 363 444 b 514 347 471 444 514 401 b 485 278 514 319 503 296 b 514 208 503 260 514 236 m 375 -208 b 346 -278 375 -236 364 -260 b 375 -347 364 -296 375 -319 b 278 -444 375 -401 332 -444 b 181 -347 224 -444 181 -401 b 210 -278 181 -319 192 -296 l 208 -276 b 139 -306 190 -294 167 -306 b 42 -208 85 -306 42 -262 b 139 -111 42 -154 85 -111 b 208 -140 167 -111 190 -122 b 278 -111 226 -122 250 -111 b 375 -208 332 -111 375 -154 m 139 -389 b 236 -486 193 -389 236 -432 b 139 -583 236 -540 193 -583 b 42 -486 85 -583 42 -540 b 139 -389 42 -432 85 -389 "},"ŋ":{"ha":556,"x_min":0,"x_max":0,"o":"m 236 69 b 139 -28 236 15 193 -28 b 42 69 85 -28 42 15 b 71 139 42 97 53 121 b 42 208 53 157 42 181 b 71 278 42 236 53 260 b 42 347 53 296 42 319 b 71 417 42 375 53 399 b 42 486 53 435 42 458 b 139 583 42 540 85 583 b 208 554 167 583 190 572 b 278 583 226 572 250 583 b 375 486 332 583 375 540 b 278 389 375 432 332 389 b 208 418 250 389 226 400 l 207 417 b 236 347 225 399 236 375 b 207 278 236 319 225 296 b 236 208 225 260 236 236 b 207 139 236 181 225 157 b 236 69 225 121 236 97 m 514 208 b 485 139 514 181 503 157 b 514 69 503 121 514 97 b 485 0 514 42 503 18 b 514 -69 503 -18 514 -42 b 485 -139 514 -97 503 -121 b 514 -208 503 -157 514 -181 b 417 -306 514 -262 471 -306 b 347 -276 389 -306 365 -294 b 278 -306 329 -294 306 -306 b 181 -208 224 -306 181 -262 b 278 -111 181 -154 224 -111 b 347 -140 306 -111 329 -122 l 349 -139 b 319 -69 331 -121 319 -97 b 349 0 319 -42 331 -18 b 319 69 331 18 319 42 b 349 139 319 97 331 121 b 319 208 331 157 319 181 b 349 278 319 236 331 260 b 319 347 331 296 319 319 b 417 444 319 401 363 444 b 514 347 471 444 514 401 b 485 278 514 319 503 296 b 514 208 503 260 514 236 "},"ñ":{"ha":556,"x_min":0,"x_max":0,"o":"m 278 806 b 181 903 224 806 181 849 b 278 1000 181 957 224 1000 b 375 903 332 1000 375 957 b 278 806 375 849 332 806 m 556 1000 b 653 903 610 1000 653 957 b 556 806 653 849 610 806 b 458 903 501 806 458 849 b 556 1000 458 957 501 1000 m 139 667 b 42 764 85 667 42 710 b 139 861 42 818 85 861 b 236 764 193 861 236 818 b 139 667 236 710 193 667 m 417 861 b 514 764 471 861 514 818 b 417 667 514 710 471 667 b 319 764 363 667 319 710 b 417 861 319 818 363 861 m 207 417 b 236 347 225 399 236 375 b 207 278 236 319 225 296 b 236 208 225 260 236 236 b 207 139 236 181 225 157 b 236 69 225 121 236 97 b 139 -28 236 15 193 -28 b 42 69 85 -28 42 15 b 71 139 42 97 53 121 b 42 208 53 157 42 181 b 71 278 42 236 53 260 b 42 347 53 296 42 319 b 71 417 42 375 53 399 b 42 486 53 435 42 458 b 139 583 42 540 85 583 b 208 554 167 583 190 572 b 278 583 226 572 250 583 b 375 486 332 583 375 540 b 278 389 375 432 332 389 b 208 418 250 389 226 400 m 514 347 b 485 278 514 319 503 296 b 514 208 503 260 514 236 b 485 139 514 181 503 157 b 514 69 503 121 514 97 b 417 -28 514 15 471 -28 b 319 69 363 -28 319 15 b 349 139 319 97 331 121 b 319 208 331 157 319 181 b 349 278 319 236 331 260 b 319 347 331 296 319 319 b 417 444 319 401 363 444 b 514 347 471 444 514 401 "},"o":{"ha":556,"x_min":0,"x_max":0,"o":"m 278 389 b 181 486 224 389 181 432 b 278 583 181 540 224 583 b 375 486 332 583 375 540 b 278 389 375 432 332 389 m 236 208 b 139 111 236 154 193 111 b 42 208 85 111 42 154 b 71 278 42 236 53 260 b 42 347 53 296 42 319 b 139 444 42 401 85 444 b 236 347 193 444 236 401 b 207 278 236 319 225 296 b 236 208 225 260 236 236 m 485 278 b 514 208 503 260 514 236 b 417 111 514 154 471 111 b 319 208 363 111 319 154 b 349 278 319 236 331 260 b 319 347 331 296 319 319 b 417 444 319 401 363 444 b 514 347 471 444 514 401 b 485 278 514 319 503 296 m 278 167 b 375 69 332 167 375 124 b 278 -28 375 15 332 -28 b 181 69 224 -28 181 15 b 278 167 181 124 224 167 "},"ó":{"ha":556,"x_min":0,"x_max":0,"o":"m 417 806 b 319 903 363 806 319 849 b 417 1000 319 957 363 1000 b 514 903 471 1000 514 957 b 417 806 514 849 471 806 m 278 667 b 181 764 224 667 181 710 b 278 861 181 818 224 861 b 375 764 332 861 375 818 b 278 667 375 710 332 667 m 278 389 b 181 486 224 389 181 432 b 278 583 181 540 224 583 b 375 486 332 583 375 540 b 278 389 375 432 332 389 m 236 208 b 139 111 236 154 193 111 b 42 208 85 111 42 154 b 71 278 42 236 53 260 b 42 347 53 296 42 319 b 139 444 42 401 85 444 b 236 347 193 444 236 401 b 207 278 236 319 225 296 b 236 208 225 260 236 236 m 514 347 b 485 278 514 319 503 296 b 514 208 503 260 514 236 b 417 111 514 154 471 111 b 319 208 363 111 319 154 b 349 278 319 236 331 260 b 319 347 331 296 319 319 b 417 444 319 401 363 444 b 514 347 471 444 514 401 m 278 167 b 375 69 332 167 375 124 b 278 -28 375 15 332 -28 b 181 69 224 -28 181 15 b 278 167 181 124 224 167 "},"ô":{"ha":556,"x_min":0,"x_max":0,"o":"m 278 806 b 181 903 224 806 181 849 b 278 1000 181 957 224 1000 b 375 903 332 1000 375 957 b 278 806 375 849 332 806 m 139 667 b 42 764 85 667 42 710 b 139 861 42 818 85 861 b 236 764 193 861 236 818 b 139 667 236 710 193 667 m 319 764 b 417 861 319 818 363 861 b 514 764 471 861 514 818 b 417 667 514 710 471 667 b 319 764 363 667 319 710 m 278 583 b 375 486 332 583 375 540 b 278 389 375 432 332 389 b 181 486 224 389 181 432 b 278 583 181 540 224 583 m 236 208 b 139 111 236 154 193 111 b 42 208 85 111 42 154 b 71 278 42 236 53 260 b 42 347 53 296 42 319 b 139 444 42 401 85 444 b 236 347 193 444 236 401 b 207 278 236 319 225 296 b 236 208 225 260 236 236 m 514 347 b 485 278 514 319 503 296 b 514 208 503 260 514 236 b 417 111 514 154 471 111 b 319 208 363 111 319 154 b 349 278 319 236 331 260 b 319 347 331 296 319 319 b 417 444 319 401 363 444 b 514 347 471 444 514 401 m 278 167 b 375 69 332 167 375 124 b 278 -28 375 15 332 -28 b 181 69 224 -28 181 15 b 278 167 181 124 224 167 "},"ö":{"ha":556,"x_min":0,"x_max":0,"o":"m 139 667 b 42 764 85 667 42 710 b 139 861 42 818 85 861 b 236 764 193 861 236 818 b 139 667 236 710 193 667 m 417 667 b 319 764 363 667 319 710 b 417 861 319 818 363 861 b 514 764 471 861 514 818 b 417 667 514 710 471 667 m 181 486 b 278 583 181 540 224 583 b 375 486 332 583 375 540 b 278 389 375 432 332 389 b 181 486 224 389 181 432 m 236 208 b 139 111 236 154 193 111 b 42 208 85 111 42 154 b 71 278 42 236 53 260 b 42 347 53 296 42 319 b 139 444 42 401 85 444 b 236 347 193 444 236 401 b 207 278 236 319 225 296 b 236 208 225 260 236 236 m 514 347 b 485 278 514 319 503 296 b 514 208 503 260 514 236 b 417 111 514 154 471 111 b 319 208 363 111 319 154 b 349 278 319 236 331 260 b 319 347 331 296 319 319 b 417 444 319 401 363 444 b 514 347 471 444 514 401 m 278 167 b 375 69 332 167 375 124 b 278 -28 375 15 332 -28 b 181 69 224 -28 181 15 b 278 167 181 124 224 167 "},"ò":{"ha":556,"x_min":0,"x_max":0,"o":"m 139 806 b 42 903 85 806 42 849 b 139 1000 42 957 85 1000 b 236 903 193 1000 236 957 b 139 806 236 849 193 806 m 181 764 b 278 861 181 818 224 861 b 375 764 332 861 375 818 b 278 667 375 710 332 667 b 181 764 224 667 181 710 m 278 583 b 375 486 332 583 375 540 b 278 389 375 432 332 389 b 181 486 224 389 181 432 b 278 583 181 540 224 583 m 236 208 b 139 111 236 154 193 111 b 42 208 85 111 42 154 b 71 278 42 236 53 260 b 42 347 53 296 42 319 b 139 444 42 401 85 444 b 236 347 193 444 236 401 b 207 278 236 319 225 296 b 236 208 225 260 236 236 m 485 278 b 514 208 503 260 514 236 b 417 111 514 154 471 111 b 319 208 363 111 319 154 b 349 278 319 236 331 260 b 319 347 331 296 319 319 b 417 444 319 401 363 444 b 514 347 471 444 514 401 b 485 278 514 319 503 296 m 278 167 b 375 69 332 167 375 124 b 278 -28 375 15 332 -28 b 181 69 224 -28 181 15 b 278 167 181 124 224 167 "}}}
